NimbusSanL-ReguCond.ufo
<glyph name="exclam" format="1">
  <advance width="228"/>
  <unicode hex="0021"/>
  <outline>
    <contour>
      <point x="153" y="102" type="line"/>
      <point x="74" y="102" type="line"/>
      <point x="74" y="0" type="line"/>
      <point x="153" y="0" type="line"/>
    </contour>
    <contour>
      <point x="133" y="171" type="line"/>
      <point x="153" y="481" type="line"/>
      <point x="153" y="718" type="line"/>
      <point x="74" y="718" type="line"/>
      <point x="74" y="481" type="line"/>
      <point x="94" y="171" type="line"/>
    </contour>
  </outline>
</glyph>
<glyph name="quotedbl" format="1">
  <advance width="291"/>
  <unicode hex="0022"/>
  <outline>
    <contour>
      <point x="57" y="463" type="line"/>
      <point x="117" y="463" type="line"/>
      <point x="117" y="718" type="line"/>
      <point x="57" y="718" type="line"/>
    </contour>
    <contour>
      <point x="174" y="463" type="line"/>
      <point x="234" y="463" type="line"/>
      <point x="234" y="718" type="line"/>
      <point x="174" y="718" type="line"/>
    </contour>
  </outline>
</glyph>
<glyph name="numbersign" format="1">
  <advance width="456"/>
  <unicode hex="0023"/>
  <outline>
    <contour>
      <point x="318" y="210" type="line"/>
      <point x="403" y="210" type="line"/>
      <point x="410" y="273" type="line"/>
      <point x="326" y="273" type="line"/>
      <point x="342" y="415" type="line"/>
      <point x="427" y="415" type="line"/>
      <point x="434" y="478" type="line"/>
      <point x="350" y="478" type="line"/>
      <point x="373" y="688" type="line"/>
      <point x="318" y="688" type="line"/>
      <point x="295" y="478" type="line"/>
      <point x="193" y="478" type="line"/>
      <point x="217" y="688" type="line"/>
      <point x="162" y="688" type="line"/>
      <point x="138" y="478" type="line"/>
      <point x="53" y="478" type="line"/>
      <point x="46" y="415" type="line"/>
      <point x="130" y="415" type="line"/>
      <point x="115" y="273" type="line"/>
      <point x="30" y="273" type="line"/>
      <point x="23" y="210" type="line"/>
      <point x="107" y="210" type="line"/>
      <point x="84" y="0" type="line"/>
      <point x="138" y="0" type="line"/>
      <point x="162" y="210" type="line"/>
      <point x="264" y="210" type="line"/>
      <point x="240" y="0" type="line"/>
      <point x="295" y="0" type="line"/>
    </contour>
    <contour>
      <point x="287" y="415" type="line"/>
      <point x="272" y="273" type="line"/>
      <point x="169" y="273" type="line"/>
      <point x="185" y="415" type="line"/>
    </contour>
  </outline>
</glyph>
<glyph name="dollar" format="1">
  <advance width="456"/>
  <unicode hex="0024"/>
  <outline>
    <contour>
      <point x="412" y="521" type="line"/>
      <point x="406" y="639"/>
      <point x="354" y="699"/>
      <point x="246" y="711" type="curve"/>
      <point x="246" y="775" type="line"/>
      <point x="208" y="775" type="line"/>
      <point x="208" y="711" type="line"/>
      <point x="164" y="708"/>
      <point x="142" y="701"/>
      <point x="114" y="679" type="curve" smooth="yes"/>
      <point x="65" y="643"/>
      <point x="38" y="583"/>
      <point x="38" y="512" type="curve" smooth="yes"/>
      <point x="38" y="456"/>
      <point x="55" y="409"/>
      <point x="87" y="379" type="curve" smooth="yes"/>
      <point x="115" y="352"/>
      <point x="142" y="339"/>
      <point x="208" y="319" type="curve"/>
      <point x="208" y="54" type="line"/>
      <point x="126" y="71"/>
      <point x="104" y="103"/>
      <point x="98" y="213" type="curve"/>
      <point x="26" y="213" type="line"/>
      <point x="27" y="63"/>
      <point x="84" y="-10"/>
      <point x="208" y="-19" type="curve"/>
      <point x="208" y="-115" type="line"/>
      <point x="246" y="-115" type="line"/>
      <point x="246" y="-19" type="line"/>
      <point x="294" y="-16"/>
      <point x="319" y="-7"/>
      <point x="350" y="15" type="curve" smooth="yes"/>
      <point x="401" y="52"/>
      <point x="427" y="115"/>
      <point x="427" y="197" type="curve" smooth="yes"/>
      <point x="427" y="256"/>
      <point x="412" y="302"/>
      <point x="386" y="328" type="curve" smooth="yes"/>
      <point x="357" y="356"/>
      <point x="330" y="369"/>
      <point x="246" y="399" type="curve"/>
      <point x="246" y="638" type="line"/>
      <point x="310" y="622"/>
      <point x="335" y="591"/>
      <point x="343" y="521" type="curve"/>
    </contour>
    <contour>
      <point x="208" y="409" type="line"/>
      <point x="141" y="426"/>
      <point x="110" y="462"/>
      <point x="110" y="522" type="curve" smooth="yes"/>
      <point x="110" y="591"/>
      <point x="146" y="634"/>
      <point x="208" y="638" type="curve"/>
    </contour>
    <contour>
      <point x="246" y="308" type="line"/>
      <point x="290" y="291" type="line" smooth="yes"/>
      <point x="329" y="276"/>
      <point x="355" y="231"/>
      <point x="355" y="179" type="curve" smooth="yes"/>
      <point x="355" y="138"/>
      <point x="340" y="100"/>
      <point x="315" y="78" type="curve" smooth="yes"/>
      <point x="296" y="62"/>
      <point x="279" y="56"/>
      <point x="246" y="54" type="curve"/>
    </contour>
  </outline>
</glyph>
<glyph name="percent" format="1">
  <advance width="729"/>
  <unicode hex="0025"/>
  <outline>
    <contour>
      <point x="157" y="695" type="curve" smooth="yes"/>
      <point x="77" y="695"/>
      <point x="32" y="627"/>
      <point x="32" y="508" type="curve" smooth="yes"/>
      <point x="32" y="389"/>
      <point x="77" y="321"/>
      <point x="156" y="321" type="curve" smooth="yes"/>
      <point x="234" y="321"/>
      <point x="280" y="390"/>
      <point x="280" y="507" type="curve" smooth="yes"/>
      <point x="280" y="625"/>
      <point x="234" y="695"/>
    </contour>
    <contour>
      <point x="157" y="642" type="curve" smooth="yes"/>
      <point x="200" y="642"/>
      <point x="223" y="595"/>
      <point x="223" y="508" type="curve" smooth="yes"/>
      <point x="223" y="420"/>
      <point x="200" y="374"/>
      <point x="156" y="374" type="curve" smooth="yes"/>
      <point x="112" y="374"/>
      <point x="89" y="420"/>
      <point x="89" y="508" type="curve" smooth="yes"/>
      <point x="89" y="597"/>
      <point x="112" y="642"/>
    </contour>
    <contour>
      <point x="549" y="703" type="line"/>
      <point x="503" y="703" type="line"/>
      <point x="180" y="-19" type="line"/>
      <point x="224" y="-19" type="line"/>
    </contour>
    <contour>
      <point x="574" y="367" type="curve" smooth="yes"/>
      <point x="494" y="367"/>
      <point x="449" y="300"/>
      <point x="449" y="180" type="curve" smooth="yes"/>
      <point x="449" y="61"/>
      <point x="494" y="-7"/>
      <point x="573" y="-7" type="curve" smooth="yes"/>
      <point x="651" y="-7"/>
      <point x="697" y="62"/>
      <point x="697" y="180" type="curve" smooth="yes"/>
      <point x="697" y="297"/>
      <point x="651" y="367"/>
    </contour>
    <contour>
      <point x="574" y="314" type="curve" smooth="yes"/>
      <point x="617" y="314"/>
      <point x="640" y="267"/>
      <point x="640" y="180" type="curve" smooth="yes"/>
      <point x="640" y="92"/>
      <point x="617" y="46"/>
      <point x="573" y="46" type="curve" smooth="yes"/>
      <point x="529" y="46"/>
      <point x="506" y="92"/>
      <point x="506" y="180" type="curve" smooth="yes"/>
      <point x="506" y="269"/>
      <point x="529" y="314"/>
    </contour>
  </outline>
</glyph>
<glyph name="ampersand" format="1">
  <advance width="547"/>
  <unicode hex="0026"/>
  <outline>
    <contour>
      <point x="424" y="155" type="line"/>
      <point x="452" y="220"/>
      <point x="467" y="276"/>
      <point x="472" y="338" type="curve"/>
      <point x="404" y="338" type="line"/>
      <point x="396" y="286"/>
      <point x="393" y="269"/>
      <point x="380" y="226" type="curve"/>
      <point x="272" y="382" type="line"/>
      <point x="351" y="448"/>
      <point x="378" y="495"/>
      <point x="378" y="569" type="curve" smooth="yes"/>
      <point x="378" y="658"/>
      <point x="325" y="718"/>
      <point x="247" y="718" type="curve" smooth="yes"/>
      <point x="164" y="718"/>
      <point x="107" y="652"/>
      <point x="107" y="556" type="curve" smooth="yes"/>
      <point x="107" y="504"/>
      <point x="119" y="475"/>
      <point x="169" y="399" type="curve"/>
      <point x="65" y="324"/>
      <point x="36" y="277"/>
      <point x="36" y="184" type="curve" smooth="yes"/>
      <point x="36" y="60"/>
      <point x="102" y="-15"/>
      <point x="211" y="-15" type="curve" smooth="yes"/>
      <point x="282" y="-15"/>
      <point x="327" y="10"/>
      <point x="381" y="82" type="curve"/>
      <point x="436" y="0" type="line"/>
      <point x="529" y="0" type="line"/>
    </contour>
    <contour>
      <point x="342" y="141" type="line"/>
      <point x="306" y="87"/>
      <point x="266" y="62"/>
      <point x="218" y="62" type="curve" smooth="yes"/>
      <point x="155" y="62"/>
      <point x="108" y="113"/>
      <point x="108" y="183" type="curve" smooth="yes"/>
      <point x="108" y="245"/>
      <point x="129" y="276"/>
      <point x="209" y="339" type="curve"/>
    </contour>
    <contour>
      <point x="235" y="439" type="curve"/>
      <point x="195" y="489"/>
      <point x="177" y="528"/>
      <point x="177" y="565" type="curve" smooth="yes"/>
      <point x="177" y="611"/>
      <point x="203" y="641"/>
      <point x="243" y="641" type="curve" smooth="yes"/>
      <point x="283" y="641"/>
      <point x="308" y="611"/>
      <point x="308" y="564" type="curve" smooth="yes"/>
      <point x="308" y="517"/>
      <point x="289" y="485"/>
    </contour>
  </outline>
</glyph>
<glyph name="quotesingle" format="1">
  <advance width="157"/>
  <unicode hex="0027"/>
  <outline>
    <contour>
      <point x="48" y="463" type="line"/>
      <point x="108" y="463" type="line"/>
      <point x="108" y="718" type="line"/>
      <point x="48" y="718" type="line"/>
    </contour>
  </outline>
</glyph>
<glyph name="parenleft" format="1">
  <advance width="273"/>
  <unicode hex="0028"/>
  <outline>
    <contour>
      <point x="194" y="733" type="line"/>
      <point x="92" y="548"/>
      <point x="56" y="425"/>
      <point x="56" y="262" type="curve" smooth="yes"/>
      <point x="56" y="101"/>
      <point x="87" y="-3"/>
      <point x="197" y="-207" type="curve"/>
      <point x="245" y="-207" type="line"/>
      <point x="155" y="12"/>
      <point x="133" y="100"/>
      <point x="133" y="254" type="curve" smooth="yes"/>
      <point x="133" y="431"/>
      <point x="157" y="533"/>
      <point x="244" y="733" type="curve"/>
    </contour>
  </outline>
</glyph>
<glyph name="parenright" format="1">
  <advance width="273"/>
  <unicode hex="0029"/>
  <outline>
    <contour>
      <point x="79" y="-207" type="line"/>
      <point x="181" y="-21"/>
      <point x="217" y="102"/>
      <point x="217" y="264" type="curve" smooth="yes"/>
      <point x="217" y="425"/>
      <point x="186" y="528"/>
      <point x="76" y="733" type="curve"/>
      <point x="28" y="733" type="line"/>
      <point x="119" y="514"/>
      <point x="140" y="425"/>
      <point x="140" y="272" type="curve" smooth="yes"/>
      <point x="140" y="95"/>
      <point x="116" y="-6"/>
      <point x="29" y="-207" type="curve"/>
    </contour>
  </outline>
</glyph>
<glyph name="asterisk" format="1">
  <advance width="319"/>
  <unicode hex="002A"/>
  <outline>
    <contour>
      <point x="32" y="591" type="line"/>
      <point x="120" y="557" type="line"/>
      <point x="65" y="465" type="line"/>
      <point x="105" y="431" type="line"/>
      <point x="159" y="525" type="line"/>
      <point x="212" y="431" type="line"/>
      <point x="252" y="465" type="line"/>
      <point x="197" y="557" type="line"/>
      <point x="286" y="591" type="line"/>
      <point x="269" y="646" type="line"/>
      <point x="183" y="608" type="line"/>
      <point x="183" y="718" type="line"/>
      <point x="134" y="718" type="line"/>
      <point x="134" y="608" type="line"/>
      <point x="48" y="646" type="line"/>
    </contour>
  </outline>
</glyph>
<glyph name="plus" format="1">
  <advance width="479"/>
  <unicode hex="002B"/>
  <outline>
    <contour>
      <point x="210" y="289" type="line"/>
      <point x="32" y="289" type="line"/>
      <point x="32" y="216" type="line"/>
      <point x="210" y="216" type="line"/>
      <point x="210" y="0" type="line"/>
      <point x="270" y="0" type="line"/>
      <point x="270" y="216" type="line"/>
      <point x="447" y="216" type="line"/>
      <point x="447" y="289" type="line"/>
      <point x="270" y="289" type="line"/>
      <point x="270" y="505" type="line"/>
      <point x="210" y="505" type="line"/>
    </contour>
  </outline>
</glyph>
<glyph name="comma" format="1">
  <advance width="228"/>
  <unicode hex="002C"/>
  <outline>
    <contour>
      <point x="71" y="0" type="line"/>
      <point x="115" y="0" type="line"/>
      <point x="114" y="-64"/>
      <point x="100" y="-97"/>
      <point x="71" y="-101" type="curve"/>
      <point x="71" y="-147" type="line"/>
      <point x="128" y="-134"/>
      <point x="157" y="-82"/>
      <point x="157" y="8" type="curve" smooth="yes"/>
      <point x="157" y="107" type="line"/>
      <point x="71" y="107" type="line"/>
    </contour>
  </outline>
</glyph>
<glyph name="hyphen" format="1">
  <advance width="273"/>
  <unicode hex="002D"/>
  <outline>
    <contour>
      <point x="237" y="322" type="line"/>
      <point x="36" y="322" type="line"/>
      <point x="36" y="232" type="line"/>
      <point x="237" y="232" type="line"/>
    </contour>
  </outline>
</glyph>
<glyph name="slash" format="1">
  <advance width="228"/>
  <unicode hex="002F"/>
  <outline>
    <contour>
      <point x="242" y="737" type="line"/>
      <point x="188" y="737" type="line"/>
      <point x="-14" y="-19" type="line"/>
      <point x="41" y="-19" type="line"/>
    </contour>
  </outline>
</glyph>
<glyph name="zero" format="1">
  <advance width="456"/>
  <unicode hex="0030"/>
  <outline>
    <contour>
      <point x="230" y="703" type="curve" smooth="yes"/>
      <point x="102" y="703"/>
      <point x="30" y="574"/>
      <point x="30" y="343" type="curve" smooth="yes"/>
      <point x="30" y="112"/>
      <point x="102" y="-19"/>
      <point x="228" y="-19" type="curve" smooth="yes"/>
      <point x="354" y="-19"/>
      <point x="426" y="112"/>
      <point x="426" y="341" type="curve" smooth="yes"/>
      <point x="426" y="570"/>
      <point x="354" y="703"/>
    </contour>
    <contour>
      <point x="229" y="625" type="curve" smooth="yes"/>
      <point x="307" y="625"/>
      <point x="349" y="526"/>
      <point x="349" y="343" type="curve" smooth="yes"/>
      <point x="349" y="157"/>
      <point x="307" y="59"/>
      <point x="228" y="59" type="curve" smooth="yes"/>
      <point x="149" y="59"/>
      <point x="107" y="157"/>
      <point x="107" y="343" type="curve" smooth="yes"/>
      <point x="107" y="528"/>
      <point x="149" y="625"/>
    </contour>
  </outline>
</glyph>
<glyph name="one" format="1">
  <advance width="456"/>
  <unicode hex="0031"/>
  <outline>
    <contour>
      <point x="294" y="703" type="line"/>
      <point x="238" y="703" type="line"/>
      <point x="215" y="599"/>
      <point x="190" y="577"/>
      <point x="83" y="569" type="curve"/>
      <point x="83" y="499" type="line"/>
      <point x="217" y="499" type="line"/>
      <point x="217" y="0" type="line"/>
      <point x="294" y="0" type="line"/>
    </contour>
  </outline>
</glyph>
<glyph name="two" format="1">
  <advance width="456"/>
  <unicode hex="0032"/>
  <outline>
    <contour>
      <point x="108" y="451" type="line"/>
      <point x="114" y="573"/>
      <point x="149" y="625"/>
      <point x="225" y="625" type="curve" smooth="yes"/>
      <point x="294" y="625"/>
      <point x="339" y="573"/>
      <point x="339" y="494" type="curve" smooth="yes"/>
      <point x="339" y="458"/>
      <point x="330" y="427"/>
      <point x="313" y="403" type="curve" smooth="yes"/>
      <point x="300" y="384"/>
      <point x="281" y="367"/>
      <point x="233" y="333" type="curve" smooth="yes"/>
      <point x="156" y="279" type="line" smooth="yes"/>
      <point x="66" y="214"/>
      <point x="26" y="131"/>
      <point x="21" y="0" type="curve"/>
      <point x="416" y="0" type="line"/>
      <point x="416" y="83" type="line"/>
      <point x="102" y="83" type="line"/>
      <point x="108" y="131"/>
      <point x="144" y="179"/>
      <point x="202" y="218" type="curve" smooth="yes"/>
      <point x="262" y="258" type="line" smooth="yes"/>
      <point x="324" y="300"/>
      <point x="353" y="325"/>
      <point x="375" y="354" type="curve" smooth="yes"/>
      <point x="402" y="393"/>
      <point x="416" y="438"/>
      <point x="416" y="492" type="curve" smooth="yes"/>
      <point x="416" y="618"/>
      <point x="342" y="703"/>
      <point x="231" y="703" type="curve" smooth="yes"/>
      <point x="162" y="703"/>
      <point x="103" y="670"/>
      <point x="72" y="615" type="curve" smooth="yes"/>
      <point x="47" y="572"/>
      <point x="38" y="532"/>
      <point x="36" y="451" type="curve"/>
    </contour>
  </outline>
</glyph>
<glyph name="three" format="1">
  <advance width="456"/>
  <unicode hex="0033"/>
  <outline>
    <contour>
      <point x="184" y="324" type="line"/>
      <point x="199" y="324"/>
      <point x="206" y="324"/>
      <point x="216" y="325" type="curve"/>
      <point x="226" y="325" type="line" smooth="yes"/>
      <point x="304" y="325"/>
      <point x="351" y="277"/>
      <point x="351" y="197" type="curve" smooth="yes"/>
      <point x="351" y="114"/>
      <point x="300" y="59"/>
      <point x="223" y="59" type="curve" smooth="yes"/>
      <point x="180" y="59"/>
      <point x="147" y="76"/>
      <point x="127" y="108" type="curve" smooth="yes"/>
      <point x="112" y="133"/>
      <point x="106" y="159"/>
      <point x="103" y="215" type="curve"/>
      <point x="28" y="215" type="line"/>
      <point x="36" y="118"/>
      <point x="52" y="69"/>
      <point x="90" y="31" type="curve" smooth="yes"/>
      <point x="123" y="-1"/>
      <point x="171" y="-19"/>
      <point x="224" y="-19" type="curve" smooth="yes"/>
      <point x="347" y="-19"/>
      <point x="428" y="70"/>
      <point x="428" y="207" type="curve" smooth="yes"/>
      <point x="428" y="293"/>
      <point x="400" y="340"/>
      <point x="330" y="372" type="curve"/>
      <point x="380" y="396"/>
      <point x="406" y="445"/>
      <point x="406" y="517" type="curve" smooth="yes"/>
      <point x="406" y="630"/>
      <point x="335" y="703"/>
      <point x="226" y="703" type="curve" smooth="yes"/>
      <point x="158" y="703"/>
      <point x="107" y="675"/>
      <point x="76" y="622" type="curve" smooth="yes"/>
      <point x="53" y="582"/>
      <point x="45" y="545"/>
      <point x="42" y="473" type="curve"/>
      <point x="113" y="473" type="line"/>
      <point x="120" y="581"/>
      <point x="153" y="625"/>
      <point x="225" y="625" type="curve" smooth="yes"/>
      <point x="290" y="625"/>
      <point x="331" y="581"/>
      <point x="331" y="511" type="curve" smooth="yes"/>
      <point x="331" y="439"/>
      <point x="290" y="398"/>
      <point x="220" y="398" type="curve" smooth="yes"/>
      <point x="213" y="398"/>
      <point x="198" y="399"/>
      <point x="184" y="400" type="curve"/>
    </contour>
  </outline>
</glyph>
<glyph name="four" format="1">
  <advance width="456"/>
  <unicode hex="0034"/>
  <outline>
    <contour>
      <point x="429" y="171" type="line"/>
      <point x="429" y="248" type="line"/>
      <point x="344" y="248" type="line"/>
      <point x="344" y="703" type="line"/>
      <point x="284" y="703" type="line"/>
      <point x="20" y="258" type="line"/>
      <point x="20" y="171" type="line"/>
      <point x="272" y="171" type="line"/>
      <point x="272" y="0" type="line"/>
      <point x="344" y="0" type="line"/>
      <point x="344" y="171" type="line"/>
    </contour>
    <contour>
      <point x="272" y="569" type="line"/>
      <point x="272" y="248" type="line"/>
      <point x="86" y="248" type="line"/>
    </contour>
  </outline>
</glyph>
<glyph name="five" format="1">
  <advance width="456"/>
  <unicode hex="0035"/>
  <outline>
    <contour>
      <point x="145" y="601" type="line"/>
      <point x="389" y="601" type="line"/>
      <point x="389" y="688" type="line"/>
      <point x="91" y="688" type="line"/>
      <point x="47" y="311" type="line"/>
      <point x="110" y="307" type="line"/>
      <point x="142" y="354"/>
      <point x="174" y="374"/>
      <point x="217" y="374" type="curve" smooth="yes"/>
      <point x="293" y="374"/>
      <point x="344" y="311"/>
      <point x="344" y="219" type="curve" smooth="yes"/>
      <point x="344" y="124"/>
      <point x="293" y="58"/>
      <point x="219" y="58" type="curve" smooth="yes"/>
      <point x="179" y="58"/>
      <point x="143" y="75"/>
      <point x="123" y="105" type="curve" smooth="yes"/>
      <point x="110" y="124"/>
      <point x="105" y="141"/>
      <point x="101" y="175" type="curve"/>
      <point x="26" y="175" type="line"/>
      <point x="33" y="121"/>
      <point x="40" y="96"/>
      <point x="57" y="66" type="curve" smooth="yes"/>
      <point x="89" y="10"/>
      <point x="143" y="-19"/>
      <point x="214" y="-19" type="curve" smooth="yes"/>
      <point x="277" y="-19"/>
      <point x="331" y="5"/>
      <point x="365" y="47" type="curve" smooth="yes"/>
      <point x="401" y="92"/>
      <point x="421" y="157"/>
      <point x="421" y="226" type="curve" smooth="yes"/>
      <point x="421" y="356"/>
      <point x="340" y="452"/>
      <point x="231" y="452" type="curve" smooth="yes"/>
      <point x="188" y="452"/>
      <point x="156" y="439"/>
      <point x="120" y="408" type="curve"/>
    </contour>
  </outline>
</glyph>
<glyph name="six" format="1">
  <advance width="456"/>
  <unicode hex="0036"/>
  <outline>
    <contour>
      <point x="413" y="516" type="line"/>
      <point x="408" y="565"/>
      <point x="402" y="589"/>
      <point x="386" y="618" type="curve" smooth="yes"/>
      <point x="357" y="671"/>
      <point x="304" y="703"/>
      <point x="243" y="703" type="curve" smooth="yes"/>
      <point x="111" y="703"/>
      <point x="31" y="560"/>
      <point x="31" y="322" type="curve" smooth="yes"/>
      <point x="31" y="103"/>
      <point x="103" y="-19"/>
      <point x="232" y="-19" type="curve" smooth="yes"/>
      <point x="292" y="-19"/>
      <point x="333" y="1"/>
      <point x="370" y="49" type="curve" smooth="yes"/>
      <point x="408" y="98"/>
      <point x="425" y="153"/>
      <point x="425" y="223" type="curve" smooth="yes"/>
      <point x="425" y="356"/>
      <point x="350" y="448"/>
      <point x="242" y="448" type="curve" smooth="yes"/>
      <point x="180" y="448"/>
      <point x="137" y="420"/>
      <point x="105" y="358" type="curve"/>
      <point x="109" y="447"/>
      <point x="119" y="498"/>
      <point x="142" y="546" type="curve" smooth="yes"/>
      <point x="167" y="600"/>
      <point x="200" y="625"/>
      <point x="244" y="625" type="curve" smooth="yes"/>
      <point x="299" y="625"/>
      <point x="329" y="592"/>
      <point x="342" y="516" type="curve"/>
    </contour>
    <contour>
      <point x="236" y="370" type="curve" smooth="yes"/>
      <point x="305" y="370"/>
      <point x="350" y="310"/>
      <point x="350" y="218" type="curve" smooth="yes"/>
      <point x="350" y="124"/>
      <point x="304" y="60"/>
      <point x="236" y="60" type="curve" smooth="yes"/>
      <point x="165" y="60"/>
      <point x="116" y="124"/>
      <point x="116" y="217" type="curve" smooth="yes"/>
      <point x="116" y="311"/>
      <point x="162" y="370"/>
    </contour>
  </outline>
</glyph>
<glyph name="seven" format="1">
  <advance width="456"/>
  <unicode hex="0037"/>
  <outline>
    <contour>
      <point x="30" y="601" type="line"/>
      <point x="348" y="601" type="line"/>
      <point x="222" y="416"/>
      <point x="137" y="199"/>
      <point x="112" y="0" type="curve"/>
      <point x="192" y="0" type="line"/>
      <point x="228" y="242"/>
      <point x="307" y="444"/>
      <point x="429" y="610" type="curve"/>
      <point x="429" y="688" type="line"/>
      <point x="30" y="688" type="line"/>
    </contour>
  </outline>
</glyph>
<glyph name="eight" format="1">
  <advance width="456"/>
  <unicode hex="0038"/>
  <outline>
    <contour>
      <point x="129" y="373" type="curve"/>
      <point x="57" y="333"/>
      <point x="31" y="285"/>
      <point x="31" y="195" type="curve" smooth="yes"/>
      <point x="31" y="66"/>
      <point x="111" y="-19"/>
      <point x="232" y="-19" type="curve" smooth="yes"/>
      <point x="346" y="-19"/>
      <point x="424" y="70"/>
      <point x="424" y="201" type="curve" smooth="yes"/>
      <point x="424" y="238"/>
      <point x="417" y="272"/>
      <point x="403" y="300" type="curve" smooth="yes"/>
      <point x="386" y="333"/>
      <point x="369" y="351"/>
      <point x="330" y="374" type="curve"/>
      <point x="382" y="408"/>
      <point x="403" y="450"/>
      <point x="403" y="519" type="curve" smooth="yes"/>
      <point x="403" y="629"/>
      <point x="331" y="703"/>
      <point x="226" y="703" type="curve" smooth="yes"/>
      <point x="122" y="703"/>
      <point x="51" y="625"/>
      <point x="51" y="510" type="curve" smooth="yes"/>
      <point x="51" y="444"/>
      <point x="75" y="402"/>
    </contour>
    <contour>
      <point x="228" y="330" type="curve" smooth="yes"/>
      <point x="302" y="330"/>
      <point x="347" y="277"/>
      <point x="347" y="191" type="curve" smooth="yes"/>
      <point x="347" y="106"/>
      <point x="306" y="59"/>
      <point x="231" y="59" type="curve" smooth="yes"/>
      <point x="156" y="59"/>
      <point x="108" y="112"/>
      <point x="108" y="197" type="curve" smooth="yes"/>
      <point x="108" y="277"/>
      <point x="156" y="330"/>
    </contour>
    <contour>
      <point x="225" y="625" type="curve" smooth="yes"/>
      <point x="287" y="625"/>
      <point x="328" y="582"/>
      <point x="328" y="518" type="curve" smooth="yes"/>
      <point x="328" y="453"/>
      <point x="285" y="406"/>
      <point x="226" y="406" type="curve" smooth="yes"/>
      <point x="169" y="406"/>
      <point x="126" y="452"/>
      <point x="126" y="516" type="curve" smooth="yes"/>
      <point x="126" y="584"/>
      <point x="163" y="625"/>
    </contour>
  </outline>
</glyph>
<glyph name="nine" format="1">
  <advance width="456"/>
  <unicode hex="0039"/>
  <outline>
    <contour>
      <point x="41" y="169" type="line"/>
      <point x="47" y="51"/>
      <point x="109" y="-19"/>
      <point x="209" y="-19" type="curve" smooth="yes"/>
      <point x="275" y="-19"/>
      <point x="323" y="12"/>
      <point x="360" y="78" type="curve" smooth="yes"/>
      <point x="399" y="146"/>
      <point x="421" y="257"/>
      <point x="421" y="379" type="curve" smooth="yes"/>
      <point x="421" y="590"/>
      <point x="351" y="703"/>
      <point x="222" y="703" type="curve" smooth="yes"/>
      <point x="109" y="703"/>
      <point x="34" y="606"/>
      <point x="34" y="462" type="curve" smooth="yes"/>
      <point x="34" y="326"/>
      <point x="106" y="235"/>
      <point x="214" y="235" type="curve" smooth="yes"/>
      <point x="277" y="235"/>
      <point x="324" y="266"/>
      <point x="350" y="325" type="curve"/>
      <point x="336" y="208"/>
      <point x="323" y="154"/>
      <point x="300" y="113" type="curve" smooth="yes"/>
      <point x="277" y="72"/>
      <point x="248" y="54"/>
      <point x="210" y="54" type="curve" smooth="yes"/>
      <point x="152" y="54"/>
      <point x="120" y="92"/>
      <point x="113" y="169" type="curve"/>
    </contour>
    <contour>
      <point x="224" y="625" type="curve" smooth="yes"/>
      <point x="293" y="625"/>
      <point x="336" y="566"/>
      <point x="336" y="471" type="curve" smooth="yes"/>
      <point x="336" y="371"/>
      <point x="294" y="313"/>
      <point x="223" y="313" type="curve" smooth="yes"/>
      <point x="149" y="313"/>
      <point x="109" y="365"/>
      <point x="109" y="462" type="curve" smooth="yes"/>
      <point x="109" y="564"/>
      <point x="152" y="625"/>
    </contour>
  </outline>
</glyph>
<glyph name="colon" format="1">
  <advance width="228"/>
  <unicode hex="003A"/>
  <outline>
    <contour>
      <point x="157" y="107" type="line"/>
      <point x="71" y="107" type="line"/>
      <point x="71" y="0" type="line"/>
      <point x="157" y="0" type="line"/>
    </contour>
    <contour>
      <point x="157" y="516" type="line"/>
      <point x="71" y="516" type="line"/>
      <point x="71" y="409" type="line"/>
      <point x="157" y="409" type="line"/>
    </contour>
  </outline>
</glyph>
<glyph name="less" format="1">
  <advance width="479"/>
  <unicode hex="003C"/>
  <outline>
    <contour>
      <point x="440" y="10" type="line"/>
      <point x="440" y="92" type="line"/>
      <point x="121" y="253" type="line"/>
      <point x="440" y="414" type="line"/>
      <point x="440" y="496" type="line"/>
      <point x="39" y="289" type="line"/>
      <point x="39" y="217" type="line"/>
    </contour>
  </outline>
</glyph>
<glyph name="equal" format="1">
  <advance width="479"/>
  <unicode hex="003D"/>
  <outline>
    <contour>
      <point x="447" y="390" type="line"/>
      <point x="32" y="390" type="line"/>
      <point x="32" y="317" type="line"/>
      <point x="447" y="317" type="line"/>
    </contour>
    <contour>
      <point x="447" y="188" type="line"/>
      <point x="32" y="188" type="line"/>
      <point x="32" y="115" type="line"/>
      <point x="447" y="115" type="line"/>
    </contour>
  </outline>
</glyph>
<glyph name="greater" format="1">
  <advance width="479"/>
  <unicode hex="003E"/>
  <outline>
    <contour>
      <point x="39" y="10" type="line"/>
      <point x="440" y="217" type="line"/>
      <point x="440" y="289" type="line"/>
      <point x="39" y="496" type="line"/>
      <point x="39" y="414" type="line"/>
      <point x="358" y="253" type="line"/>
      <point x="39" y="92" type="line"/>
    </contour>
  </outline>
</glyph>
<glyph name="question" format="1">
  <advance width="456"/>
  <unicode hex="003F"/>
  <outline>
    <contour>
      <point x="118" y="493" type="line"/>
      <point x="120" y="600"/>
      <point x="154" y="650"/>
      <point x="226" y="650" type="curve" smooth="yes"/>
      <point x="288" y="650"/>
      <point x="326" y="605"/>
      <point x="326" y="531" type="curve" smooth="yes"/>
      <point x="326" y="485"/>
      <point x="319" y="471"/>
      <point x="260" y="398" type="curve" smooth="yes"/>
      <point x="194" y="315"/>
      <point x="184" y="287"/>
      <point x="183" y="183" type="curve"/>
      <point x="255" y="183" type="line"/>
      <point x="255" y="271"/>
      <point x="263" y="294"/>
      <point x="326" y="366" type="curve" smooth="yes"/>
      <point x="389" y="439"/>
      <point x="403" y="471"/>
      <point x="403" y="532" type="curve" smooth="yes"/>
      <point x="403" y="647"/>
      <point x="331" y="727"/>
      <point x="229" y="727" type="curve" smooth="yes"/>
      <point x="174" y="727"/>
      <point x="124" y="702"/>
      <point x="89" y="658" type="curve" smooth="yes"/>
      <point x="59" y="618"/>
      <point x="49" y="583"/>
      <point x="46" y="493" type="curve"/>
    </contour>
    <contour>
      <point x="261" y="102" type="line"/>
      <point x="181" y="102" type="line"/>
      <point x="181" y="0" type="line"/>
      <point x="261" y="0" type="line"/>
    </contour>
  </outline>
</glyph>
<glyph name="at" format="1">
  <advance width="832"/>
  <unicode hex="0040"/>
  <outline>
    <contour>
      <point x="527" y="494" type="line"/>
      <point x="503" y="550"/>
      <point x="476" y="572"/>
      <point x="432" y="572" type="curve" smooth="yes"/>
      <point x="330" y="572"/>
      <point x="243" y="447"/>
      <point x="243" y="301" type="curve" smooth="yes"/>
      <point x="243" y="207"/>
      <point x="294" y="136"/>
      <point x="361" y="136" type="curve" smooth="yes"/>
      <point x="397" y="136"/>
      <point x="427" y="155"/>
      <point x="464" y="200" type="curve"/>
      <point x="466" y="158"/>
      <point x="484" y="136"/>
      <point x="514" y="136" type="curve" smooth="yes"/>
      <point x="554" y="136"/>
      <point x="602" y="165"/>
      <point x="639" y="210" type="curve" smooth="yes"/>
      <point x="686" y="268"/>
      <point x="712" y="344"/>
      <point x="712" y="424" type="curve" smooth="yes"/>
      <point x="712" y="599"/>
      <point x="588" y="737"/>
      <point x="431" y="737" type="curve" smooth="yes"/>
      <point x="259" y="737"/>
      <point x="121" y="569"/>
      <point x="121" y="360" type="curve" smooth="yes"/>
      <point x="121" y="149"/>
      <point x="259" y="-19"/>
      <point x="433" y="-19" type="curve" smooth="yes"/>
      <point x="503" y="-19"/>
      <point x="570" y="10"/>
      <point x="624" y="64" type="curve" smooth="yes"/>
      <point x="650" y="90"/>
      <point x="664" y="109"/>
      <point x="690" y="157" type="curve"/>
      <point x="635" y="157" type="line"/>
      <point x="602" y="112"/>
      <point x="582" y="94"/>
      <point x="546" y="74" type="curve" smooth="yes"/>
      <point x="510" y="53"/>
      <point x="473" y="43"/>
      <point x="435" y="43" type="curve" smooth="yes"/>
      <point x="291" y="43"/>
      <point x="181" y="179"/>
      <point x="181" y="356" type="curve" smooth="yes"/>
      <point x="181" y="538"/>
      <point x="289" y="675"/>
      <point x="431" y="675" type="curve" smooth="yes"/>
      <point x="562" y="675"/>
      <point x="659" y="566"/>
      <point x="659" y="420" type="curve" smooth="yes"/>
      <point x="659" y="312"/>
      <point x="600" y="201"/>
      <point x="542" y="201" type="curve" smooth="yes"/>
      <point x="530" y="201"/>
      <point x="525" y="210"/>
      <point x="525" y="228" type="curve" smooth="yes"/>
      <point x="525" y="243"/>
      <point x="535" y="288"/>
      <point x="560" y="392" type="curve" smooth="yes"/>
      <point x="574" y="446"/>
      <point x="581" y="477"/>
      <point x="599" y="556" type="curve"/>
      <point x="543" y="556" type="line"/>
    </contour>
    <contour>
      <point x="433" y="500" type="curve" smooth="yes"/>
      <point x="470" y="500"/>
      <point x="501" y="458"/>
      <point x="501" y="406" type="curve" smooth="yes"/>
      <point x="501" y="372"/>
      <point x="489" y="325"/>
      <point x="472" y="290" type="curve" smooth="yes"/>
      <point x="446" y="237"/>
      <point x="413" y="208"/>
      <point x="378" y="208" type="curve" smooth="yes"/>
      <point x="339" y="208"/>
      <point x="310" y="248"/>
      <point x="310" y="302" type="curve" smooth="yes"/>
      <point x="310" y="403"/>
      <point x="370" y="500"/>
    </contour>
  </outline>
</glyph>
<glyph name="B" format="1">
  <advance width="547"/>
  <unicode hex="0042"/>
  <outline>
    <contour>
      <point x="61" y="0" type="line"/>
      <point x="315" y="0" type="line" smooth="yes"/>
      <point x="435" y="0"/>
      <point x="514" y="85"/>
      <point x="514" y="214" type="curve" smooth="yes"/>
      <point x="514" y="302"/>
      <point x="485" y="349"/>
      <point x="408" y="387" type="curve"/>
      <point x="462" y="422"/>
      <point x="486" y="468"/>
      <point x="486" y="537" type="curve" smooth="yes"/>
      <point x="486" y="646"/>
      <point x="420" y="718"/>
      <point x="320" y="718" type="curve" smooth="yes"/>
      <point x="61" y="718" type="line"/>
    </contour>
    <contour>
      <point x="141" y="635" type="line"/>
      <point x="285" y="635" type="line" smooth="yes"/>
      <point x="368" y="635"/>
      <point x="406" y="601"/>
      <point x="406" y="528" type="curve" smooth="yes"/>
      <point x="406" y="450"/>
      <point x="367" y="414"/>
      <point x="284" y="414" type="curve" smooth="yes"/>
      <point x="141" y="414" type="line"/>
    </contour>
    <contour>
      <point x="141" y="336" type="line"/>
      <point x="297" y="336" type="line" smooth="yes"/>
      <point x="388" y="336"/>
      <point x="434" y="295"/>
      <point x="434" y="214" type="curve" smooth="yes"/>
      <point x="434" y="131"/>
      <point x="389" y="83"/>
      <point x="311" y="83" type="curve" smooth="yes"/>
      <point x="141" y="83" type="line"/>
    </contour>
  </outline>
</glyph>
<glyph name="C" format="1">
  <advance width="592"/>
  <unicode hex="0043"/>
  <outline>
    <contour>
      <point x="552" y="502" type="line"/>
      <point x="545" y="558"/>
      <point x="536" y="586"/>
      <point x="514" y="623" type="curve" smooth="yes"/>
      <point x="472" y="696"/>
      <point x="399" y="737"/>
      <point x="311" y="737" type="curve" smooth="yes"/>
      <point x="143" y="737"/>
      <point x="36" y="590"/>
      <point x="36" y="358" type="curve" smooth="yes"/>
      <point x="36" y="127"/>
      <point x="139" y="-19"/>
      <point x="301" y="-19" type="curve" smooth="yes"/>
      <point x="366" y="-19"/>
      <point x="427" y="6"/>
      <point x="471" y="53" type="curve" smooth="yes"/>
      <point x="516" y="99"/>
      <point x="538" y="151"/>
      <point x="558" y="264" type="curve"/>
      <point x="481" y="264" type="line"/>
      <point x="469" y="202"/>
      <point x="459" y="173"/>
      <point x="438" y="141" type="curve" smooth="yes"/>
      <point x="405" y="92"/>
      <point x="363" y="68"/>
      <point x="308" y="68" type="curve" smooth="yes"/>
      <point x="188" y="68"/>
      <point x="118" y="173"/>
      <point x="118" y="355" type="curve" smooth="yes"/>
      <point x="118" y="539"/>
      <point x="191" y="650"/>
      <point x="313" y="650" type="curve" smooth="yes"/>
      <point x="354" y="650"/>
      <point x="392" y="636"/>
      <point x="420" y="612" type="curve" smooth="yes"/>
      <point x="449" y="586"/>
      <point x="462" y="559"/>
      <point x="475" y="502" type="curve"/>
    </contour>
  </outline>
</glyph>
<glyph name="E" format="1">
  <advance width="547"/>
  <unicode hex="0045"/>
  <outline>
    <contour>
      <point x="505" y="87" type="line"/>
      <point x="151" y="87" type="line"/>
      <point x="151" y="325" type="line"/>
      <point x="472" y="325" type="line"/>
      <point x="472" y="412" type="line"/>
      <point x="151" y="412" type="line"/>
      <point x="151" y="631" type="line"/>
      <point x="499" y="631" type="line"/>
      <point x="499" y="718" type="line"/>
      <point x="71" y="718" type="line"/>
      <point x="71" y="0" type="line"/>
      <point x="505" y="0" type="line"/>
    </contour>
  </outline>
</glyph>
<glyph name="F" format="1">
  <advance width="501"/>
  <unicode hex="0046"/>
  <outline>
    <contour>
      <point x="151" y="325" type="line"/>
      <point x="439" y="325" type="line"/>
      <point x="439" y="412" type="line"/>
      <point x="151" y="412" type="line"/>
      <point x="151" y="631" type="line"/>
      <point x="478" y="631" type="line"/>
      <point x="478" y="718" type="line"/>
      <point x="71" y="718" type="line"/>
      <point x="71" y="0" type="line"/>
      <point x="151" y="0" type="line"/>
    </contour>
  </outline>
</glyph>
<glyph name="H" format="1">
  <advance width="592"/>
  <unicode hex="0048"/>
  <outline>
    <contour>
      <point x="450" y="421" type="line"/>
      <point x="143" y="421" type="line"/>
      <point x="143" y="718" type="line"/>
      <point x="63" y="718" type="line"/>
      <point x="63" y="0" type="line"/>
      <point x="143" y="0" type="line"/>
      <point x="143" y="334" type="line"/>
      <point x="450" y="334" type="line"/>
      <point x="450" y="0" type="line"/>
      <point x="530" y="0" type="line"/>
      <point x="530" y="718" type="line"/>
      <point x="450" y="718" type="line"/>
    </contour>
  </outline>
</glyph>
<glyph name="J" format="1">
  <advance width="410"/>
  <unicode hex="004A"/>
  <outline>
    <contour>
      <point x="14" y="231" type="line"/>
      <point x="14" y="160" type="line" smooth="yes"/>
      <point x="14" y="51"/>
      <point x="79" y="-19"/>
      <point x="180" y="-19" type="curve" smooth="yes"/>
      <point x="289" y="-19"/>
      <point x="351" y="58"/>
      <point x="351" y="194" type="curve" smooth="yes"/>
      <point x="351" y="718" type="line"/>
      <point x="271" y="718" type="line"/>
      <point x="271" y="188" type="line" smooth="yes"/>
      <point x="271" y="105"/>
      <point x="241" y="64"/>
      <point x="179" y="64" type="curve" smooth="yes"/>
      <point x="117" y="64"/>
      <point x="89" y="101"/>
      <point x="89" y="181" type="curve" smooth="yes"/>
      <point x="89" y="231" type="line"/>
    </contour>
  </outline>
</glyph>
<glyph name="K" format="1">
  <advance width="547"/>
  <unicode hex="004B"/>
  <outline>
    <contour>
      <point x="142" y="252" type="line"/>
      <point x="235" y="360" type="line"/>
      <point x="441" y="0" type="line"/>
      <point x="544" y="0" type="line"/>
      <point x="292" y="428" type="line"/>
      <point x="538" y="718" type="line"/>
      <point x="428" y="718" type="line"/>
      <point x="142" y="370" type="line"/>
      <point x="142" y="718" type="line"/>
      <point x="62" y="718" type="line"/>
      <point x="62" y="0" type="line"/>
      <point x="142" y="0" type="line"/>
    </contour>
  </outline>
</glyph>
<glyph name="L" format="1">
  <advance width="456"/>
  <unicode hex="004C"/>
  <outline>
    <contour>
      <point x="142" y="718" type="line"/>
      <point x="62" y="718" type="line"/>
      <point x="62" y="0" type="line"/>
      <point x="440" y="0" type="line"/>
      <point x="440" y="87" type="line"/>
      <point x="142" y="87" type="line"/>
    </contour>
  </outline>
</glyph>
<glyph name="M" format="1">
  <advance width="683"/>
  <unicode hex="004D"/>
  <outline>
    <contour>
      <point x="624" y="0" type="line"/>
      <point x="624" y="718" type="line"/>
      <point x="511" y="718" type="line"/>
      <point x="343" y="108" type="line"/>
      <point x="174" y="718" type="line"/>
      <point x="60" y="718" type="line"/>
      <point x="60" y="0" type="line"/>
      <point x="137" y="0" type="line"/>
      <point x="137" y="424" type="line" smooth="yes"/>
      <point x="137" y="432"/>
      <point x="137" y="447"/>
      <point x="136" y="470" type="curve" smooth="yes"/>
      <point x="136" y="490"/>
      <point x="136" y="544"/>
      <point x="135" y="608" type="curve"/>
      <point x="303" y="0" type="line"/>
      <point x="381" y="0" type="line"/>
      <point x="549" y="609" type="line"/>
      <point x="548" y="540"/>
      <point x="548" y="493"/>
      <point x="547" y="469" type="curve"/>
      <point x="547" y="424" type="line"/>
      <point x="547" y="0" type="line"/>
    </contour>
  </outline>
</glyph>
<glyph name="P" format="1">
  <advance width="547"/>
  <unicode hex="0050"/>
  <outline>
    <contour>
      <point x="151" y="303" type="line"/>
      <point x="335" y="303" type="line" smooth="yes"/>
      <point x="441" y="303"/>
      <point x="510" y="387"/>
      <point x="510" y="515" type="curve" smooth="yes"/>
      <point x="510" y="637"/>
      <point x="440" y="718"/>
      <point x="335" y="718" type="curve" smooth="yes"/>
      <point x="71" y="718" type="line"/>
      <point x="71" y="0" type="line"/>
      <point x="151" y="0" type="line"/>
    </contour>
    <contour>
      <point x="151" y="635" type="line"/>
      <point x="311" y="635" type="line" smooth="yes"/>
      <point x="390" y="635"/>
      <point x="428" y="595"/>
      <point x="428" y="512" type="curve" smooth="yes"/>
      <point x="428" y="428"/>
      <point x="388" y="386"/>
      <point x="308" y="386" type="curve" smooth="yes"/>
      <point x="151" y="386" type="line"/>
    </contour>
  </outline>
</glyph>
<glyph name="Q" format="1">
  <advance width="638"/>
  <unicode hex="0051"/>
  <outline>
    <contour>
      <point x="601" y="2" type="line"/>
      <point x="521" y="78" type="line"/>
      <point x="554" y="124"/>
      <point x="565" y="146"/>
      <point x="579" y="188" type="curve" smooth="yes"/>
      <point x="597" y="242"/>
      <point x="606" y="301"/>
      <point x="606" y="360" type="curve" smooth="yes"/>
      <point x="606" y="472"/>
      <point x="574" y="574"/>
      <point x="517" y="646" type="curve" smooth="yes"/>
      <point x="470" y="705"/>
      <point x="400" y="737"/>
      <point x="319" y="737" type="curve" smooth="yes"/>
      <point x="238" y="737"/>
      <point x="168" y="705"/>
      <point x="121" y="646" type="curve" smooth="yes"/>
      <point x="64" y="574"/>
      <point x="32" y="472"/>
      <point x="32" y="359" type="curve" smooth="yes"/>
      <point x="32" y="246"/>
      <point x="64" y="144"/>
      <point x="121" y="72" type="curve" smooth="yes"/>
      <point x="168" y="13"/>
      <point x="238" y="-19"/>
      <point x="319" y="-19" type="curve" smooth="yes"/>
      <point x="379" y="-19"/>
      <point x="423" y="-5"/>
      <point x="471" y="29" type="curve"/>
      <point x="561" y="-56" type="line"/>
    </contour>
    <contour>
      <point x="344" y="148" type="line"/>
      <point x="406" y="90" type="line"/>
      <point x="377" y="75"/>
      <point x="351" y="68"/>
      <point x="319" y="68" type="curve" smooth="yes"/>
      <point x="196" y="68"/>
      <point x="114" y="184"/>
      <point x="114" y="359" type="curve" smooth="yes"/>
      <point x="114" y="534"/>
      <point x="196" y="650"/>
      <point x="319" y="650" type="curve" smooth="yes"/>
      <point x="442" y="650"/>
      <point x="524" y="534"/>
      <point x="524" y="359" type="curve" smooth="yes"/>
      <point x="524" y="265"/>
      <point x="505" y="200"/>
      <point x="459" y="137" type="curve"/>
      <point x="385" y="208" type="line"/>
    </contour>
  </outline>
</glyph>
<glyph name="T" format="1">
  <advance width="501"/>
  <unicode hex="0054"/>
  <outline>
    <contour>
      <point x="11" y="631" type="line"/>
      <point x="211" y="631" type="line"/>
      <point x="211" y="0" type="line"/>
      <point x="291" y="0" type="line"/>
      <point x="291" y="631" type="line"/>
      <point x="490" y="631" type="line"/>
      <point x="490" y="718" type="line"/>
      <point x="11" y="718" type="line"/>
    </contour>
  </outline>
</glyph>
<glyph name="V" format="1">
  <advance width="547"/>
  <unicode hex="0056"/>
  <outline>
    <contour>
      <point x="274" y="103" type="line"/>
      <point x="105" y="718" type="line"/>
      <point x="16" y="718" type="line"/>
      <point x="231" y="0" type="line"/>
      <point x="316" y="0" type="line"/>
      <point x="531" y="718" type="line"/>
      <point x="441" y="718" type="line"/>
    </contour>
  </outline>
</glyph>
<glyph name="W" format="1">
  <advance width="774"/>
  <unicode hex="0057"/>
  <outline>
    <contour>
      <point x="387" y="599" type="line"/>
      <point x="522" y="0" type="line"/>
      <point x="606" y="0" type="line"/>
      <point x="761" y="718" type="line"/>
      <point x="673" y="718" type="line"/>
      <point x="563" y="130" type="line"/>
      <point x="430" y="718" type="line"/>
      <point x="343" y="718" type="line"/>
      <point x="210" y="130" type="line"/>
      <point x="99" y="718" type="line"/>
      <point x="13" y="718" type="line"/>
      <point x="166" y="0" type="line"/>
      <point x="250" y="0" type="line"/>
    </contour>
  </outline>
</glyph>
<glyph name="X" format="1">
  <advance width="547"/>
  <unicode hex="0058"/>
  <outline>
    <contour>
      <point x="325" y="368" type="line"/>
      <point x="522" y="718" type="line"/>
      <point x="427" y="718" type="line"/>
      <point x="278" y="443" type="line"/>
      <point x="129" y="718" type="line"/>
      <point x="29" y="718" type="line"/>
      <point x="226" y="368" type="line"/>
      <point x="16" y="0" type="line"/>
      <point x="112" y="0" type="line"/>
      <point x="275" y="295" type="line"/>
      <point x="433" y="0" type="line"/>
      <point x="531" y="0" type="line"/>
    </contour>
  </outline>
</glyph>
<glyph name="Z" format="1">
  <advance width="501"/>
  <unicode hex="005A"/>
  <outline>
    <contour>
      <point x="482" y="87" type="line"/>
      <point x="120" y="87" type="line"/>
      <point x="482" y="633" type="line"/>
      <point x="482" y="718" type="line"/>
      <point x="46" y="718" type="line"/>
      <point x="46" y="631" type="line"/>
      <point x="380" y="631" type="line"/>
      <point x="19" y="82" type="line"/>
      <point x="19" y="0" type="line"/>
      <point x="482" y="0" type="line"/>
    </contour>
  </outline>
</glyph>
<glyph name="bracketleft" format="1">
  <advance width="228"/>
  <unicode hex="005B"/>
  <outline>
    <contour>
      <point x="117" y="650" type="line"/>
      <point x="205" y="650" type="line"/>
      <point x="205" y="722" type="line"/>
      <point x="52" y="722" type="line"/>
      <point x="52" y="-196" type="line"/>
      <point x="205" y="-196" type="line"/>
      <point x="205" y="-124" type="line"/>
      <point x="117" y="-124" type="line"/>
    </contour>
  </outline>
</glyph>
<glyph name="backslash" format="1">
  <advance width="228"/>
  <unicode hex="005C"/>
  <outline>
    <contour>
      <point x="187" y="-19" type="line"/>
      <point x="242" y="-19" type="line"/>
      <point x="40" y="737" type="line"/>
      <point x="-14" y="737" type="line"/>
    </contour>
  </outline>
</glyph>
<glyph name="bracketright" format="1">
  <advance width="228"/>
  <unicode hex="005D"/>
  <outline>
    <contour>
      <point x="111" y="-124" type="line"/>
      <point x="23" y="-124" type="line"/>
      <point x="23" y="-196" type="line"/>
      <point x="176" y="-196" type="line"/>
      <point x="176" y="722" type="line"/>
      <point x="23" y="722" type="line"/>
      <point x="23" y="650" type="line"/>
      <point x="111" y="650" type="line"/>
    </contour>
  </outline>
</glyph>
<glyph name="asciicircum" format="1">
  <advance width="385"/>
  <unicode hex="005E"/>
  <outline>
    <contour>
      <point x="396" y="264" type="line"/>
      <point x="222" y="688" type="line"/>
      <point x="163" y="688" type="line"/>
      <point x="-11" y="264" type="line"/>
      <point x="53" y="264" type="line"/>
      <point x="193" y="608" type="line"/>
      <point x="333" y="264" type="line"/>
    </contour>
  </outline>
</glyph>
<glyph name="grave" format="1">
  <advance width="273"/>
  <unicode hex="0060"/>
  <outline>
    <contour>
      <point x="118" y="593" type="line"/>
      <point x="173" y="593" type="line"/>
      <point x="100" y="734" type="line"/>
      <point x="11" y="734" type="line"/>
    </contour>
  </outline>
</glyph>
<glyph name="b" format="1">
  <advance width="456"/>
  <unicode hex="0062"/>
  <outline>
    <contour>
      <point x="116" y="0" type="line"/>
      <point x="116" y="68" type="line"/>
      <point x="147" y="8"/>
      <point x="181" y="-15"/>
      <point x="237" y="-15" type="curve" smooth="yes"/>
      <point x="350" y="-15"/>
      <point x="424" y="99"/>
      <point x="424" y="274" type="curve" smooth="yes"/>
      <point x="424" y="432"/>
      <point x="353" y="538"/>
      <point x="248" y="538" type="curve" smooth="yes"/>
      <point x="194" y="538"/>
      <point x="157" y="514"/>
      <point x="120" y="455" type="curve"/>
      <point x="120" y="718" type="line"/>
      <point x="48" y="718" type="line"/>
      <point x="48" y="0" type="line"/>
    </contour>
    <contour>
      <point x="235" y="460" type="curve" smooth="yes"/>
      <point x="310" y="460"/>
      <point x="349" y="395"/>
      <point x="349" y="268" type="curve" smooth="yes"/>
      <point x="349" y="138"/>
      <point x="307" y="62"/>
      <point x="234" y="62" type="curve" smooth="yes"/>
      <point x="204" y="62"/>
      <point x="175" y="77"/>
      <point x="155" y="102" type="curve" smooth="yes"/>
      <point x="129" y="135"/>
      <point x="117" y="180"/>
      <point x="117" y="249" type="curve" smooth="yes"/>
      <point x="117" y="387"/>
      <point x="158" y="460"/>
    </contour>
  </outline>
</glyph>
<glyph name="d" format="1">
  <advance width="456"/>
  <unicode hex="0064"/>
  <outline>
    <contour>
      <point x="409" y="718" type="line"/>
      <point x="337" y="718" type="line"/>
      <point x="337" y="444" type="line"/>
      <point x="303" y="511"/>
      <point x="265" y="538"/>
      <point x="206" y="538" type="curve" smooth="yes"/>
      <point x="100" y="538"/>
      <point x="29" y="432"/>
      <point x="29" y="274" type="curve" smooth="yes"/>
      <point x="29" y="99"/>
      <point x="103" y="-15"/>
      <point x="217" y="-15" type="curve" smooth="yes"/>
      <point x="275" y="-15"/>
      <point x="310" y="10"/>
      <point x="341" y="75" type="curve"/>
      <point x="341" y="0" type="line"/>
      <point x="409" y="0" type="line"/>
    </contour>
    <contour>
      <point x="221" y="460" type="curve" smooth="yes"/>
      <point x="295" y="460"/>
      <point x="336" y="385"/>
      <point x="336" y="248" type="curve" smooth="yes"/>
      <point x="336" y="180"/>
      <point x="324" y="135"/>
      <point x="298" y="102" type="curve" smooth="yes"/>
      <point x="278" y="77"/>
      <point x="249" y="62"/>
      <point x="218" y="62" type="curve" smooth="yes"/>
      <point x="146" y="62"/>
      <point x="104" y="138"/>
      <point x="104" y="269" type="curve" smooth="yes"/>
      <point x="104" y="397"/>
      <point x="143" y="460"/>
    </contour>
  </outline>
</glyph>
<glyph name="k" format="1">
  <advance width="410"/>
  <unicode hex="006B"/>
  <outline>
    <contour>
      <point x="237" y="328" type="line"/>
      <point x="401" y="523" type="line"/>
      <point x="310" y="523" type="line"/>
      <point x="125" y="302" type="line"/>
      <point x="125" y="718" type="line"/>
      <point x="55" y="718" type="line"/>
      <point x="55" y="0" type="line"/>
      <point x="125" y="0" type="line"/>
      <point x="125" y="198" type="line"/>
      <point x="185" y="264" type="line"/>
      <point x="318" y="0" type="line"/>
      <point x="411" y="0" type="line"/>
    </contour>
  </outline>
</glyph>
<glyph name="l" format="1">
  <advance width="182"/>
  <unicode hex="006C"/>
  <outline>
    <contour>
      <point x="127" y="718" type="line"/>
      <point x="55" y="718" type="line"/>
      <point x="55" y="0" type="line"/>
      <point x="127" y="0" type="line"/>
    </contour>
  </outline>
</glyph>
<glyph name="m" format="1">
  <advance width="683"/>
  <unicode hex="006D"/>
  <outline>
    <contour>
      <point x="53" y="0" type="line"/>
      <point x="125" y="0" type="line"/>
      <point x="125" y="285" type="line" smooth="yes"/>
      <point x="125" y="391"/>
      <point x="170" y="460"/>
      <point x="239" y="460" type="curve" smooth="yes"/>
      <point x="281" y="460"/>
      <point x="306" y="424"/>
      <point x="306" y="362" type="curve" smooth="yes"/>
      <point x="306" y="0" type="line"/>
      <point x="378" y="0" type="line"/>
      <point x="378" y="319" type="line" smooth="yes"/>
      <point x="378" y="398"/>
      <point x="423" y="460"/>
      <point x="481" y="460" type="curve" smooth="yes"/>
      <point x="534" y="460"/>
      <point x="559" y="420"/>
      <point x="559" y="338" type="curve" smooth="yes"/>
      <point x="559" y="0" type="line"/>
      <point x="631" y="0" type="line"/>
      <point x="631" y="362" type="line" smooth="yes"/>
      <point x="631" y="471"/>
      <point x="579" y="538"/>
      <point x="496" y="538" type="curve" smooth="yes"/>
      <point x="444" y="538"/>
      <point x="416" y="520"/>
      <point x="367" y="453" type="curve"/>
      <point x="340" y="514"/>
      <point x="307" y="538"/>
      <point x="254" y="538" type="curve" smooth="yes"/>
      <point x="197" y="538"/>
      <point x="158" y="511"/>
      <point x="121" y="446" type="curve"/>
      <point x="121" y="523" type="line"/>
      <point x="53" y="523" type="line"/>
    </contour>
  </outline>
</glyph>
<glyph name="q" format="1">
  <advance width="456"/>
  <unicode hex="0071"/>
  <outline>
    <contour>
      <point x="405" y="523" type="line"/>
      <point x="337" y="523" type="line"/>
      <point x="337" y="446" type="line"/>
      <point x="298" y="514"/>
      <point x="264" y="538"/>
      <point x="206" y="538" type="curve" smooth="yes"/>
      <point x="100" y="538"/>
      <point x="29" y="432"/>
      <point x="29" y="274" type="curve" smooth="yes"/>
      <point x="29" y="100"/>
      <point x="103" y="-15"/>
      <point x="216" y="-15" type="curve" smooth="yes"/>
      <point x="269" y="-15"/>
      <point x="304" y="7"/>
      <point x="333" y="58" type="curve"/>
      <point x="333" y="-207" type="line"/>
      <point x="405" y="-207" type="line"/>
    </contour>
    <contour>
      <point x="221" y="460" type="curve" smooth="yes"/>
      <point x="296" y="460"/>
      <point x="336" y="385"/>
      <point x="336" y="245" type="curve" smooth="yes"/>
      <point x="336" y="131"/>
      <point x="292" y="62"/>
      <point x="218" y="62" type="curve" smooth="yes"/>
      <point x="146" y="62"/>
      <point x="104" y="139"/>
      <point x="104" y="270" type="curve" smooth="yes"/>
      <point x="104" y="397"/>
      <point x="143" y="460"/>
    </contour>
  </outline>
</glyph>
<glyph name="w" format="1">
  <advance width="592"/>
  <unicode hex="0077"/>
  <outline>
    <contour>
      <point x="294" y="409" type="line"/>
      <point x="382" y="0" type="line"/>
      <point x="456" y="0" type="line"/>
      <point x="581" y="523" type="line"/>
      <point x="509" y="523" type="line"/>
      <point x="421" y="108" type="line"/>
      <point x="337" y="523" type="line"/>
      <point x="256" y="523" type="line"/>
      <point x="173" y="108" type="line"/>
      <point x="90" y="523" type="line"/>
      <point x="11" y="523" type="line"/>
      <point x="135" y="0" type="line"/>
      <point x="209" y="0" type="line"/>
    </contour>
  </outline>
</glyph>
<glyph name="x" format="1">
  <advance width="410"/>
  <unicode hex="0078"/>
  <outline>
    <contour>
      <point x="251" y="269" type="line"/>
      <point x="396" y="523" type="line"/>
      <point x="308" y="523" type="line"/>
      <point x="208" y="339" type="line"/>
      <point x="109" y="523" type="line"/>
      <point x="16" y="523" type="line"/>
      <point x="160" y="269" type="line"/>
      <point x="9" y="0" type="line"/>
      <point x="100" y="0" type="line"/>
      <point x="203" y="197" type="line"/>
      <point x="310" y="0" type="line"/>
      <point x="402" y="0" type="line"/>
    </contour>
  </outline>
</glyph>
<glyph name="y" format="1">
  <advance width="410"/>
  <unicode hex="0079"/>
  <outline>
    <contour>
      <point x="205" y="94" type="line"/>
      <point x="90" y="523" type="line"/>
      <point x="9" y="523" type="line"/>
      <point x="168" y="-14" type="line"/>
      <point x="160" y="-38"/>
      <point x="153" y="-60"/>
      <point x="150" y="-68" type="curve"/>
      <point x="134" y="-121"/>
      <point x="122" y="-135"/>
      <point x="92" y="-135" type="curve" smooth="yes"/>
      <point x="77" y="-135"/>
      <point x="62" y="-132"/>
      <point x="48" y="-126" type="curve"/>
      <point x="48" y="-206" type="line"/>
      <point x="54" y="-208" type="line" smooth="yes"/>
      <point x="67" y="-213"/>
      <point x="73" y="-214"/>
      <point x="83" y="-214" type="curve" smooth="yes"/>
      <point x="169" y="-214"/>
      <point x="182" y="-197"/>
      <point x="246" y="10" type="curve" smooth="yes"/>
      <point x="401" y="523" type="line"/>
      <point x="321" y="523" type="line"/>
    </contour>
  </outline>
</glyph>
<glyph name="z" format="1">
  <advance width="410"/>
  <unicode hex="007A"/>
  <outline>
    <contour>
      <point x="378" y="451" type="line"/>
      <point x="378" y="523" type="line"/>
      <point x="45" y="523" type="line"/>
      <point x="45" y="450" type="line"/>
      <point x="284" y="450" type="line"/>
      <point x="25" y="69" type="line"/>
      <point x="25" y="0" type="line"/>
      <point x="385" y="0" type="line"/>
      <point x="385" y="73" type="line"/>
      <point x="121" y="73" type="line"/>
    </contour>
  </outline>
</glyph>
<glyph name="braceleft" format="1">
  <advance width="274"/>
  <unicode hex="007B"/>
  <outline>
    <contour>
      <point x="34" y="234" type="line"/>
      <point x="53" y="231"/>
      <point x="60" y="227"/>
      <point x="70" y="214" type="curve" smooth="yes"/>
      <point x="89" y="189"/>
      <point x="100" y="150"/>
      <point x="100" y="104" type="curve" smooth="yes"/>
      <point x="100" y="-67" type="line" smooth="yes"/>
      <point x="100" y="-140"/>
      <point x="136" y="-196"/>
      <point x="184" y="-196" type="curve" smooth="yes"/>
      <point x="239" y="-196" type="line"/>
      <point x="239" y="-131" type="line"/>
      <point x="203" y="-131" type="line" smooth="yes"/>
      <point x="178" y="-131"/>
      <point x="165" y="-103"/>
      <point x="165" y="-49" type="curve" smooth="yes"/>
      <point x="165" y="120" type="line" smooth="yes"/>
      <point x="165" y="187"/>
      <point x="137" y="242"/>
      <point x="91" y="264" type="curve"/>
      <point x="134" y="283"/>
      <point x="165" y="341"/>
      <point x="165" y="405" type="curve" smooth="yes"/>
      <point x="165" y="575" type="line" smooth="yes"/>
      <point x="165" y="629"/>
      <point x="178" y="657"/>
      <point x="203" y="657" type="curve" smooth="yes"/>
      <point x="239" y="657" type="line"/>
      <point x="239" y="722" type="line"/>
      <point x="184" y="722" type="line" smooth="yes"/>
      <point x="136" y="722"/>
      <point x="100" y="666"/>
      <point x="100" y="593" type="curve" smooth="yes"/>
      <point x="100" y="421" type="line" smooth="yes"/>
      <point x="100" y="377"/>
      <point x="90" y="339"/>
      <point x="71" y="314" type="curve" smooth="yes"/>
      <point x="61" y="301"/>
      <point x="53" y="297"/>
      <point x="34" y="294" type="curve"/>
    </contour>
  </outline>
</glyph>
<glyph name="bar" format="1">
  <advance width="213"/>
  <unicode hex="007C"/>
  <outline>
    <contour>
      <point x="77" y="-19" type="line"/>
      <point x="137" y="-19" type="line"/>
      <point x="137" y="737" type="line"/>
      <point x="77" y="737" type="line"/>
    </contour>
  </outline>
</glyph>
<glyph name="braceright" format="1">
  <advance width="274"/>
  <unicode hex="007D"/>
  <outline>
    <contour>
      <point x="239" y="294" type="line"/>
      <point x="220" y="297"/>
      <point x="212" y="301"/>
      <point x="202" y="314" type="curve" smooth="yes"/>
      <point x="183" y="339"/>
      <point x="173" y="376"/>
      <point x="173" y="421" type="curve" smooth="yes"/>
      <point x="173" y="593" type="line" smooth="yes"/>
      <point x="173" y="666"/>
      <point x="137" y="722"/>
      <point x="89" y="722" type="curve" smooth="yes"/>
      <point x="34" y="722" type="line"/>
      <point x="34" y="657" type="line"/>
      <point x="70" y="657" type="line" smooth="yes"/>
      <point x="95" y="657"/>
      <point x="108" y="629"/>
      <point x="108" y="575" type="curve" smooth="yes"/>
      <point x="108" y="405" type="line" smooth="yes"/>
      <point x="108" y="341"/>
      <point x="139" y="283"/>
      <point x="182" y="264" type="curve"/>
      <point x="136" y="242"/>
      <point x="108" y="187"/>
      <point x="108" y="120" type="curve" smooth="yes"/>
      <point x="108" y="-49" type="line" smooth="yes"/>
      <point x="108" y="-102"/>
      <point x="95" y="-131"/>
      <point x="70" y="-131" type="curve" smooth="yes"/>
      <point x="34" y="-131" type="line"/>
      <point x="34" y="-196" type="line"/>
      <point x="89" y="-196" type="line" smooth="yes"/>
      <point x="137" y="-196"/>
      <point x="173" y="-140"/>
      <point x="173" y="-67" type="curve" smooth="yes"/>
      <point x="173" y="104" type="line" smooth="yes"/>
      <point x="173" y="151"/>
      <point x="183" y="189"/>
      <point x="203" y="214" type="curve" smooth="yes"/>
      <point x="213" y="227"/>
      <point x="220" y="231"/>
      <point x="239" y="234" type="curve"/>
    </contour>
  </outline>
</glyph>
<glyph name="asciitilde" format="1">
  <advance width="479"/>
  <unicode hex="007E"/>
  <outline>
    <contour>
      <point x="388" y="305" type="line"/>
      <point x="366" y="268"/>
      <point x="349" y="254"/>
      <point x="329" y="254" type="curve" smooth="yes"/>
      <point x="316" y="254"/>
      <point x="294" y="262"/>
      <point x="267" y="277" type="curve" smooth="yes"/>
      <point x="199" y="314"/>
      <point x="179" y="322"/>
      <point x="151" y="322" type="curve" smooth="yes"/>
      <point x="108" y="322"/>
      <point x="78" y="297"/>
      <point x="50" y="236" type="curve"/>
      <point x="89" y="200" type="line"/>
      <point x="107" y="235"/>
      <point x="124" y="249"/>
      <point x="150" y="249" type="curve" smooth="yes"/>
      <point x="179" y="249"/>
      <point x="205" y="239"/>
      <point x="243" y="214" type="curve" smooth="yes"/>
      <point x="279" y="190"/>
      <point x="301" y="181"/>
      <point x="326" y="181" type="curve" smooth="yes"/>
      <point x="366" y="181"/>
      <point x="395" y="206"/>
      <point x="429" y="267" type="curve"/>
    </contour>
  </outline>
</glyph>
<glyph name="exclamdown" format="1">
  <advance width="273"/>
  <unicode hex="00A1"/>
  <outline>
    <contour>
      <point x="97" y="421" type="line"/>
      <point x="176" y="421" type="line"/>
      <point x="176" y="523" type="line"/>
      <point x="97" y="523" type="line"/>
    </contour>
    <contour>
      <point x="117" y="352" type="line"/>
      <point x="97" y="42" type="line"/>
      <point x="97" y="-195" type="line"/>
      <point x="176" y="-195" type="line"/>
      <point x="176" y="42" type="line"/>
      <point x="156" y="352" type="line"/>
    </contour>
  </outline>
</glyph>
<glyph name="cent" format="1">
  <advance width="456"/>
  <unicode hex="00A2"/>
  <outline>
    <contour>
      <point x="418" y="345" type="line"/>
      <point x="410" y="434"/>
      <point x="371" y="499"/>
      <point x="312" y="523" type="curve"/>
      <point x="332" y="623" type="line"/>
      <point x="300" y="623" type="line"/>
      <point x="279" y="532" type="line"/>
      <point x="269" y="536"/>
      <point x="259" y="538"/>
      <point x="243" y="538" type="curve" smooth="yes"/>
      <point x="118" y="538"/>
      <point x="42" y="430"/>
      <point x="42" y="251" type="curve" smooth="yes"/>
      <point x="42" y="128"/>
      <point x="76" y="52"/>
      <point x="155" y="-1" type="curve"/>
      <point x="127" y="-115" type="line"/>
      <point x="161" y="-115" type="line"/>
      <point x="186" y="-12" type="line"/>
      <point x="216" y="-18"/>
      <point x="226" y="-19"/>
      <point x="238" y="-19" type="curve" smooth="yes"/>
      <point x="337" y="-19"/>
      <point x="402" y="52"/>
      <point x="421" y="183" type="curve"/>
      <point x="351" y="183" type="line"/>
      <point x="331" y="91"/>
      <point x="299" y="58"/>
      <point x="232" y="58" type="curve" smooth="yes"/>
      <point x="220" y="58"/>
      <point x="213" y="59"/>
      <point x="204" y="61" type="curve"/>
      <point x="295" y="447" type="line"/>
      <point x="324" y="432"/>
      <point x="339" y="404"/>
      <point x="350" y="345" type="curve"/>
    </contour>
    <contour>
      <point x="174" y="78" type="line"/>
      <point x="135" y="112"/>
      <point x="114" y="172"/>
      <point x="114" y="252" type="curve" smooth="yes"/>
      <point x="114" y="385"/>
      <point x="162" y="461"/>
      <point x="245" y="461" type="curve" smooth="yes"/>
      <point x="252" y="461"/>
      <point x="258" y="460"/>
      <point x="263" y="459" type="curve"/>
    </contour>
  </outline>
</glyph>
<glyph name="sterling" format="1">
  <advance width="456"/>
  <unicode hex="00A3"/>
  <outline>
    <contour>
      <point x="167" y="380" type="line"/>
      <point x="135" y="451"/>
      <point x="125" y="484"/>
      <point x="125" y="516" type="curve" smooth="yes"/>
      <point x="125" y="586"/>
      <point x="176" y="641"/>
      <point x="240" y="641" type="curve" smooth="yes"/>
      <point x="309" y="641"/>
      <point x="355" y="583"/>
      <point x="355" y="499" type="curve" smooth="yes"/>
      <point x="355" y="490" type="line"/>
      <point x="427" y="490" type="line"/>
      <point x="427" y="505" type="line" smooth="yes"/>
      <point x="427" y="566"/>
      <point x="410" y="621"/>
      <point x="378" y="660" type="curve" smooth="yes"/>
      <point x="347" y="699"/>
      <point x="303" y="718"/>
      <point x="245" y="718" type="curve" smooth="yes"/>
      <point x="129" y="718"/>
      <point x="48" y="635"/>
      <point x="48" y="516" type="curve" smooth="yes"/>
      <point x="48" y="477"/>
      <point x="55" y="451"/>
      <point x="84" y="380" type="curve"/>
      <point x="27" y="380" type="line"/>
      <point x="27" y="317" type="line"/>
      <point x="115" y="317" type="line"/>
      <point x="125" y="286"/>
      <point x="130" y="263"/>
      <point x="130" y="243" type="curve" smooth="yes"/>
      <point x="130" y="209"/>
      <point x="116" y="165"/>
      <point x="93" y="128" type="curve" smooth="yes"/>
      <point x="78" y="103"/>
      <point x="64" y="88"/>
      <point x="30" y="58" type="curve"/>
      <point x="70" y="-11" type="line"/>
      <point x="109" y="17"/>
      <point x="138" y="29"/>
      <point x="168" y="29" type="curve" smooth="yes"/>
      <point x="189" y="29"/>
      <point x="218" y="22"/>
      <point x="261" y="5" type="curve" smooth="yes"/>
      <point x="299" y="-10"/>
      <point x="321" y="-16"/>
      <point x="339" y="-16" type="curve" smooth="yes"/>
      <point x="375" y="-16"/>
      <point x="403" y="-3"/>
      <point x="442" y="32" type="curve"/>
      <point x="408" y="98" type="line"/>
      <point x="389" y="78"/>
      <point x="367" y="67"/>
      <point x="345" y="67" type="curve" smooth="yes"/>
      <point x="335" y="67"/>
      <point x="317" y="72"/>
      <point x="290" y="82" type="curve" smooth="yes"/>
      <point x="253" y="96"/>
      <point x="228" y="102"/>
      <point x="207" y="102" type="curve" smooth="yes"/>
      <point x="171" y="102"/>
      <point x="139" y="90"/>
      <point x="95" y="61" type="curve"/>
      <point x="143" y="104"/>
      <point x="161" y="128"/>
      <point x="180" y="170" type="curve" smooth="yes"/>
      <point x="192" y="198"/>
      <point x="198" y="226"/>
      <point x="198" y="253" type="curve" smooth="yes"/>
      <point x="198" y="273"/>
      <point x="196" y="292"/>
      <point x="191" y="317" type="curve"/>
      <point x="304" y="317" type="line"/>
      <point x="304" y="380" type="line"/>
    </contour>
  </outline>
</glyph>
<glyph name="currency" format="1">
  <advance width="456"/>
  <unicode hex="00A4"/>
  <outline>
    <contour>
      <point x="394" y="603" type="line"/>
      <point x="347" y="547" type="line"/>
      <point x="310" y="582"/>
      <point x="273" y="598"/>
      <point x="228" y="598" type="curve" smooth="yes"/>
      <point x="183" y="598"/>
      <point x="146" y="582"/>
      <point x="109" y="547" type="curve"/>
      <point x="62" y="603" type="line"/>
      <point x="23" y="555" type="line"/>
      <point x="68" y="501" type="line"/>
      <point x="39" y="456"/>
      <point x="27" y="411"/>
      <point x="27" y="351" type="curve" smooth="yes"/>
      <point x="27" y="292"/>
      <point x="39" y="248"/>
      <point x="68" y="200" type="curve"/>
      <point x="24" y="144" type="line"/>
      <point x="61" y="99" type="line"/>
      <point x="106" y="157" type="line"/>
      <point x="144" y="118"/>
      <point x="180" y="102"/>
      <point x="228" y="102" type="curve" smooth="yes"/>
      <point x="275" y="102"/>
      <point x="312" y="118"/>
      <point x="350" y="157" type="curve"/>
      <point x="395" y="99" type="line"/>
      <point x="432" y="144" type="line"/>
      <point x="388" y="200" type="line"/>
      <point x="417" y="249"/>
      <point x="429" y="293"/>
      <point x="429" y="351" type="curve" smooth="yes"/>
      <point x="429" y="411"/>
      <point x="417" y="455"/>
      <point x="388" y="501" type="curve"/>
      <point x="433" y="555" type="line"/>
    </contour>
    <contour>
      <point x="230" y="528" type="curve" smooth="yes"/>
      <point x="304" y="528"/>
      <point x="369" y="446"/>
      <point x="369" y="350" type="curve" smooth="yes"/>
      <point x="369" y="253"/>
      <point x="305" y="172"/>
      <point x="228" y="172" type="curve" smooth="yes"/>
      <point x="151" y="172"/>
      <point x="87" y="253"/>
      <point x="87" y="351" type="curve" smooth="yes"/>
      <point x="87" y="448"/>
      <point x="152" y="528"/>
    </contour>
  </outline>
</glyph>
<glyph name="yen" format="1">
  <advance width="456"/>
  <unicode hex="00A5"/>
  <outline>
    <contour>
      <point x="34" y="327" type="line"/>
      <point x="191" y="327" type="line"/>
      <point x="191" y="242" type="line"/>
      <point x="34" y="242" type="line"/>
      <point x="34" y="185" type="line"/>
      <point x="191" y="185" type="line"/>
      <point x="191" y="0" type="line"/>
      <point x="263" y="0" type="line"/>
      <point x="263" y="185" type="line"/>
      <point x="422" y="185" type="line"/>
      <point x="422" y="242" type="line"/>
      <point x="263" y="242" type="line"/>
      <point x="263" y="327" type="line"/>
      <point x="422" y="327" type="line"/>
      <point x="422" y="384" type="line"/>
      <point x="294" y="384" type="line"/>
      <point x="453" y="688" type="line"/>
      <point x="371" y="688" type="line"/>
      <point x="227" y="393" type="line"/>
      <point x="84" y="688" type="line"/>
      <point x="2" y="688" type="line"/>
      <point x="160" y="384" type="line"/>
      <point x="34" y="384" type="line"/>
    </contour>
  </outline>
</glyph>
<glyph name="section" format="1">
  <advance width="456"/>
  <unicode hex="00A7"/>
  <outline>
    <contour>
      <point x="377" y="554" type="line"/>
      <point x="375" y="606"/>
      <point x="370" y="631"/>
      <point x="356" y="661" type="curve" smooth="yes"/>
      <point x="332" y="709"/>
      <point x="286" y="737"/>
      <point x="228" y="737" type="curve" smooth="yes"/>
      <point x="140" y="737"/>
      <point x="79" y="667"/>
      <point x="79" y="567" type="curve" smooth="yes"/>
      <point x="79" y="530"/>
      <point x="87" y="508"/>
      <point x="117" y="467" type="curve"/>
      <point x="56" y="422"/>
      <point x="35" y="382"/>
      <point x="35" y="313" type="curve" smooth="yes"/>
      <point x="35" y="260"/>
      <point x="54" y="215"/>
      <point x="88" y="187" type="curve" smooth="yes"/>
      <point x="261" y="47" type="line" smooth="yes"/>
      <point x="294" y="20"/>
      <point x="306" y="-1"/>
      <point x="306" y="-33" type="curve" smooth="yes"/>
      <point x="306" y="-83"/>
      <point x="273" y="-114"/>
      <point x="221" y="-114" type="curve" smooth="yes"/>
      <point x="168" y="-114"/>
      <point x="142" y="-79"/>
      <point x="140" y="-3" type="curve"/>
      <point x="68" y="-3" type="line"/>
      <point x="70" y="-55"/>
      <point x="75" y="-80"/>
      <point x="89" y="-110" type="curve" smooth="yes"/>
      <point x="114" y="-161"/>
      <point x="164" y="-191"/>
      <point x="223" y="-191" type="curve" smooth="yes"/>
      <point x="312" y="-191"/>
      <point x="378" y="-122"/>
      <point x="378" y="-30" type="curve" smooth="yes"/>
      <point x="378" y="13"/>
      <point x="367" y="41"/>
      <point x="335" y="84" type="curve"/>
      <point x="397" y="133"/>
      <point x="420" y="176"/>
      <point x="420" y="244" type="curve" smooth="yes"/>
      <point x="420" y="312"/>
      <point x="394" y="358"/>
      <point x="331" y="404" type="curve" smooth="yes"/>
      <point x="211" y="490" type="line" smooth="yes"/>
      <point x="168" y="520"/>
      <point x="151" y="547"/>
      <point x="151" y="581" type="curve" smooth="yes"/>
      <point x="151" y="628"/>
      <point x="183" y="660"/>
      <point x="228" y="660" type="curve" smooth="yes"/>
      <point x="279" y="660"/>
      <point x="303" y="628"/>
      <point x="308" y="554" type="curve"/>
    </contour>
    <contour>
      <point x="140" y="246" type="line" smooth="yes"/>
      <point x="115" y="265"/>
      <point x="103" y="294"/>
      <point x="103" y="330" type="curve" smooth="yes"/>
      <point x="103" y="374"/>
      <point x="119" y="401"/>
      <point x="158" y="428" type="curve"/>
      <point x="301" y="321" type="line" smooth="yes"/>
      <point x="334" y="296"/>
      <point x="352" y="263"/>
      <point x="352" y="224" type="curve" smooth="yes"/>
      <point x="352" y="184"/>
      <point x="338" y="159"/>
      <point x="295" y="124" type="curve"/>
    </contour>
  </outline>
</glyph>
<glyph name="dieresis" format="1">
  <advance width="273"/>
  <unicode hex="00A8"/>
  <outline>
    <contour>
      <point x="108" y="706" type="line"/>
      <point x="33" y="706" type="line"/>
      <point x="33" y="604" type="line"/>
      <point x="108" y="604" type="line"/>
    </contour>
    <contour>
      <point x="240" y="706" type="line"/>
      <point x="165" y="706" type="line"/>
      <point x="165" y="604" type="line"/>
      <point x="240" y="604" type="line"/>
    </contour>
  </outline>
</glyph>
<glyph name="copyright" format="1">
  <advance width="604"/>
  <unicode hex="00A9"/>
  <outline>
    <contour>
      <point x="411" y="289" type="line"/>
      <point x="401" y="229"/>
      <point x="366" y="195"/>
      <point x="315" y="195" type="curve" smooth="yes"/>
      <point x="244" y="195"/>
      <point x="194" y="266"/>
      <point x="194" y="364" type="curve" smooth="yes"/>
      <point x="194" y="461"/>
      <point x="241" y="525"/>
      <point x="311" y="525" type="curve" smooth="yes"/>
      <point x="364" y="525"/>
      <point x="397" y="495"/>
      <point x="411" y="435" type="curve"/>
      <point x="466" y="435" type="line"/>
      <point x="460" y="476"/>
      <point x="454" y="495"/>
      <point x="439" y="520" type="curve" smooth="yes"/>
      <point x="411" y="566"/>
      <point x="365" y="592"/>
      <point x="310" y="592" type="curve" smooth="yes"/>
      <point x="205" y="592"/>
      <point x="132" y="499"/>
      <point x="132" y="362" type="curve" smooth="yes"/>
      <point x="132" y="226"/>
      <point x="207" y="128"/>
      <point x="312" y="128" type="curve" smooth="yes"/>
      <point x="393" y="128"/>
      <point x="446" y="184"/>
      <point x="467" y="289" type="curve"/>
    </contour>
    <contour>
      <point x="307" y="737" type="curve" smooth="yes"/>
      <point x="127" y="737"/>
      <point x="-11" y="572"/>
      <point x="-11" y="359" type="curve" smooth="yes"/>
      <point x="-11" y="148"/>
      <point x="128" y="-19"/>
      <point x="304" y="-19" type="curve" smooth="yes"/>
      <point x="478" y="-19"/>
      <point x="617" y="149"/>
      <point x="617" y="359" type="curve" smooth="yes"/>
      <point x="617" y="568"/>
      <point x="478" y="737"/>
    </contour>
    <contour>
      <point x="307" y="674" type="curve" smooth="yes"/>
      <point x="446" y="674"/>
      <point x="555" y="535"/>
      <point x="555" y="359" type="curve" smooth="yes"/>
      <point x="555" y="180"/>
      <point x="446" y="44"/>
      <point x="303" y="44" type="curve" smooth="yes"/>
      <point x="160" y="44"/>
      <point x="51" y="180"/>
      <point x="51" y="360" type="curve" smooth="yes"/>
      <point x="51" y="539"/>
      <point x="161" y="674"/>
    </contour>
  </outline>
</glyph>
<glyph name="ordfeminine" format="1">
  <advance width="303"/>
  <unicode hex="00AA"/>
  <outline>
    <contour>
      <point x="284" y="454" type="line"/>
      <point x="276" y="453"/>
      <point x="272" y="452"/>
      <point x="269" y="452" type="curve" smooth="yes"/>
      <point x="258" y="452"/>
      <point x="254" y="458"/>
      <point x="254" y="471" type="curve" smooth="yes"/>
      <point x="254" y="649" type="line" smooth="yes"/>
      <point x="254" y="704"/>
      <point x="213" y="737"/>
      <point x="147" y="737" type="curve" smooth="yes"/>
      <point x="74" y="737"/>
      <point x="39" y="704"/>
      <point x="34" y="632" type="curve"/>
      <point x="79" y="632" type="line"/>
      <point x="83" y="669"/>
      <point x="102" y="685"/>
      <point x="142" y="685" type="curve" smooth="yes"/>
      <point x="182" y="685"/>
      <point x="204" y="670"/>
      <point x="204" y="643" type="curve" smooth="yes"/>
      <point x="204" y="622"/>
      <point x="197" y="610"/>
      <point x="184" y="608" type="curve" smooth="yes"/>
      <point x="112" y="598" type="line" smooth="yes"/>
      <point x="53" y="590"/>
      <point x="20" y="554"/>
      <point x="20" y="498" type="curve" smooth="yes"/>
      <point x="20" y="442"/>
      <point x="56" y="405"/>
      <point x="110" y="405" type="curve" smooth="yes"/>
      <point x="149" y="405"/>
      <point x="178" y="420"/>
      <point x="209" y="456" type="curve"/>
      <point x="212" y="418"/>
      <point x="224" y="405"/>
      <point x="257" y="405" type="curve" smooth="yes"/>
      <point x="263" y="405"/>
      <point x="269" y="406"/>
      <point x="278" y="408" type="curve"/>
      <point x="284" y="410" type="line"/>
    </contour>
    <contour>
      <point x="204" y="531" type="line" smooth="yes"/>
      <point x="204" y="489"/>
      <point x="168" y="457"/>
      <point x="119" y="457" type="curve" smooth="yes"/>
      <point x="88" y="457"/>
      <point x="72" y="474"/>
      <point x="72" y="505" type="curve" smooth="yes"/>
      <point x="72" y="531"/>
      <point x="87" y="543"/>
      <point x="129" y="550" type="curve" smooth="yes"/>
      <point x="181" y="558"/>
      <point x="198" y="563"/>
      <point x="204" y="570" type="curve"/>
    </contour>
    <contour>
      <point x="29" y="352" type="line"/>
      <point x="29" y="304" type="line"/>
      <point x="272" y="304" type="line"/>
      <point x="272" y="352" type="line"/>
    </contour>
  </outline>
</glyph>
<glyph name="guillemotleft" format="1">
  <advance width="456"/>
  <unicode hex="00AB"/>
  <outline>
    <contour>
      <point x="208" y="196" type="line"/>
      <point x="122" y="277" type="line"/>
      <point x="208" y="358" type="line"/>
      <point x="208" y="446" type="line"/>
      <point x="80" y="323" type="line"/>
      <point x="80" y="231" type="line"/>
      <point x="208" y="108" type="line"/>
    </contour>
    <contour>
      <point x="376" y="196" type="line"/>
      <point x="290" y="277" type="line"/>
      <point x="376" y="358" type="line"/>
      <point x="376" y="446" type="line"/>
      <point x="248" y="323" type="line"/>
      <point x="248" y="231" type="line"/>
      <point x="376" y="108" type="line"/>
    </contour>
  </outline>
</glyph>
<glyph name="logicalnot" format="1">
  <advance width="479"/>
  <unicode hex="00AC"/>
  <outline>
    <contour>
      <point x="387" y="108" type="line"/>
      <point x="447" y="108" type="line"/>
      <point x="447" y="390" type="line"/>
      <point x="32" y="390" type="line"/>
      <point x="32" y="317" type="line"/>
      <point x="387" y="317" type="line"/>
    </contour>
  </outline>
</glyph>
<glyph name="registered" format="1">
  <advance width="604"/>
  <unicode hex="00AE"/>
  <outline>
    <contour>
      <point x="237" y="329" type="line"/>
      <point x="299" y="329" type="line"/>
      <point x="394" y="141" type="line"/>
      <point x="454" y="141" type="line"/>
      <point x="353" y="332" type="line"/>
      <point x="416" y="345"/>
      <point x="445" y="383"/>
      <point x="445" y="454" type="curve" smooth="yes"/>
      <point x="445" y="536"/>
      <point x="403" y="577"/>
      <point x="319" y="577" type="curve" smooth="yes"/>
      <point x="184" y="577" type="line"/>
      <point x="184" y="141" type="line"/>
      <point x="237" y="141" type="line"/>
    </contour>
    <contour>
      <point x="237" y="386" type="line"/>
      <point x="237" y="520" type="line"/>
      <point x="311" y="520" type="line" smooth="yes"/>
      <point x="364" y="520"/>
      <point x="388" y="499"/>
      <point x="388" y="454" type="curve" smooth="yes"/>
      <point x="388" y="404"/>
      <point x="366" y="386"/>
      <point x="302" y="386" type="curve" smooth="yes"/>
    </contour>
    <contour>
      <point x="307" y="737" type="curve" smooth="yes"/>
      <point x="127" y="737"/>
      <point x="-11" y="572"/>
      <point x="-11" y="359" type="curve" smooth="yes"/>
      <point x="-11" y="148"/>
      <point x="128" y="-19"/>
      <point x="304" y="-19" type="curve" smooth="yes"/>
      <point x="478" y="-19"/>
      <point x="617" y="149"/>
      <point x="617" y="359" type="curve" smooth="yes"/>
      <point x="617" y="568"/>
      <point x="478" y="737"/>
    </contour>
    <contour>
      <point x="307" y="674" type="curve" smooth="yes"/>
      <point x="446" y="674"/>
      <point x="555" y="535"/>
      <point x="555" y="359" type="curve" smooth="yes"/>
      <point x="555" y="180"/>
      <point x="446" y="44"/>
      <point x="303" y="44" type="curve" smooth="yes"/>
      <point x="160" y="44"/>
      <point x="51" y="180"/>
      <point x="51" y="360" type="curve" smooth="yes"/>
      <point x="51" y="539"/>
      <point x="161" y="674"/>
    </contour>
  </outline>
</glyph>
<glyph name="macron" format="1">
  <advance width="273"/>
  <unicode hex="00AF"/>
  <outline>
    <contour>
      <point x="265" y="684" type="line"/>
      <point x="8" y="684" type="line"/>
      <point x="8" y="627" type="line"/>
      <point x="265" y="627" type="line"/>
    </contour>
  </outline>
</glyph>
<glyph name="degree" format="1">
  <advance width="328"/>
  <unicode hex="00B0"/>
  <outline>
    <contour>
      <point x="166" y="703" type="curve" smooth="yes"/>
      <point x="96" y="703"/>
      <point x="44" y="641"/>
      <point x="44" y="557" type="curve" smooth="yes"/>
      <point x="44" y="474"/>
      <point x="96" y="411"/>
      <point x="164" y="411" type="curve" smooth="yes"/>
      <point x="232" y="411"/>
      <point x="284" y="474"/>
      <point x="284" y="557" type="curve" smooth="yes"/>
      <point x="284" y="639"/>
      <point x="232" y="703"/>
    </contour>
    <contour>
      <point x="164" y="660" type="curve" smooth="yes"/>
      <point x="206" y="660"/>
      <point x="244" y="610"/>
      <point x="244" y="557" type="curve" smooth="yes"/>
      <point x="244" y="503"/>
      <point x="206" y="454"/>
      <point x="164" y="454" type="curve" smooth="yes"/>
      <point x="122" y="454"/>
      <point x="84" y="503"/>
      <point x="84" y="557" type="curve" smooth="yes"/>
      <point x="84" y="611"/>
      <point x="122" y="660"/>
    </contour>
  </outline>
</glyph>
<glyph name="plusminus" format="1">
  <advance width="479"/>
  <unicode hex="00B1"/>
  <outline>
    <contour>
      <point x="210" y="345" type="line"/>
      <point x="32" y="345" type="line"/>
      <point x="32" y="272" type="line"/>
      <point x="210" y="272" type="line"/>
      <point x="210" y="111" type="line"/>
      <point x="270" y="111" type="line"/>
      <point x="270" y="272" type="line"/>
      <point x="447" y="272" type="line"/>
      <point x="447" y="345" type="line"/>
      <point x="270" y="345" type="line"/>
      <point x="270" y="561" type="line"/>
      <point x="210" y="561" type="line"/>
    </contour>
    <contour>
      <point x="32" y="0" type="line"/>
      <point x="447" y="0" type="line"/>
      <point x="447" y="73" type="line"/>
      <point x="32" y="73" type="line"/>
    </contour>
  </outline>
</glyph>
<glyph name="acute" format="1">
  <advance width="273"/>
  <unicode hex="00B4"/>
  <outline>
    <contour>
      <point x="262" y="734" type="line"/>
      <point x="173" y="734" type="line"/>
      <point x="100" y="593" type="line"/>
      <point x="155" y="593" type="line"/>
    </contour>
  </outline>
</glyph>
<glyph name="paragraph" format="1">
  <advance width="440"/>
  <unicode hex="00B6"/>
  <outline>
    <contour>
      <point x="191" y="-173" type="line"/>
      <point x="251" y="-173" type="line"/>
      <point x="251" y="658" type="line"/>
      <point x="348" y="658" type="line"/>
      <point x="348" y="-173" type="line"/>
      <point x="408" y="-173" type="line"/>
      <point x="408" y="718" type="line"/>
      <point x="205" y="718" type="line" smooth="yes"/>
      <point x="83" y="718"/>
      <point x="15" y="651"/>
      <point x="15" y="533" type="curve" smooth="yes"/>
      <point x="15" y="470"/>
      <point x="36" y="420"/>
      <point x="76" y="385" type="curve" smooth="yes"/>
      <point x="108" y="357"/>
      <point x="136" y="347"/>
      <point x="191" y="344" type="curve"/>
    </contour>
  </outline>
</glyph>
<glyph name="periodcentered" format="1">
  <advance width="228"/>
  <unicode hex="00B7"/>
  <outline>
    <contour>
      <point x="115" y="315" type="curve" smooth="yes"/>
      <point x="86" y="315"/>
      <point x="63" y="287"/>
      <point x="63" y="253" type="curve" smooth="yes"/>
      <point x="63" y="219"/>
      <point x="86" y="190"/>
      <point x="114" y="190" type="curve" smooth="yes"/>
      <point x="142" y="190"/>
      <point x="166" y="219"/>
      <point x="166" y="252" type="curve" smooth="yes"/>
      <point x="166" y="285"/>
      <point x="142" y="315"/>
    </contour>
  </outline>
</glyph>
<glyph name="cedilla" format="1">
  <advance width="273"/>
  <unicode hex="00B8"/>
  <outline>
    <contour>
      <point x="65" y="-86" type="line"/>
      <point x="79" y="-105" type="line"/>
      <point x="95" y="-98"/>
      <point x="103" y="-96"/>
      <point x="110" y="-96" type="curve" smooth="yes"/>
      <point x="133" y="-96"/>
      <point x="150" y="-113"/>
      <point x="150" y="-136" type="curve" smooth="yes"/>
      <point x="150" y="-162"/>
      <point x="133" y="-178"/>
      <point x="103" y="-178" type="curve" smooth="yes"/>
      <point x="87" y="-178"/>
      <point x="74" y="-175"/>
      <point x="51" y="-163" type="curve"/>
      <point x="37" y="-203" type="line"/>
      <point x="69" y="-219"/>
      <point x="91" y="-225"/>
      <point x="116" y="-225" type="curve" smooth="yes"/>
      <point x="173" y="-225"/>
      <point x="212" y="-187"/>
      <point x="212" y="-133" type="curve" smooth="yes"/>
      <point x="212" y="-88"/>
      <point x="185" y="-58"/>
      <point x="144" y="-58" type="curve" smooth="yes"/>
      <point x="137" y="-58"/>
      <point x="132" y="-59"/>
      <point x="123" y="-61" type="curve"/>
      <point x="121" y="-61" type="line"/>
      <point x="118" y="-62" type="line"/>
      <point x="156" y="0" type="line"/>
      <point x="117" y="0" type="line"/>
    </contour>
  </outline>
</glyph>
<glyph name="ordmasculine" format="1">
  <advance width="299"/>
  <unicode hex="00BA"/>
  <outline>
    <contour>
      <point x="152" y="737" type="curve" smooth="yes"/>
      <point x="67" y="737"/>
      <point x="20" y="677"/>
      <point x="20" y="570" type="curve" smooth="yes"/>
      <point x="20" y="466"/>
      <point x="68" y="405"/>
      <point x="150" y="405" type="curve" smooth="yes"/>
      <point x="232" y="405"/>
      <point x="280" y="466"/>
      <point x="280" y="571" type="curve" smooth="yes"/>
      <point x="280" y="675"/>
      <point x="232" y="737"/>
    </contour>
    <contour>
      <point x="151" y="685" type="curve" smooth="yes"/>
      <point x="197" y="685"/>
      <point x="225" y="643"/>
      <point x="225" y="571" type="curve" smooth="yes"/>
      <point x="225" y="499"/>
      <point x="198" y="457"/>
      <point x="150" y="457" type="curve" smooth="yes"/>
      <point x="102" y="457"/>
      <point x="75" y="499"/>
      <point x="75" y="571" type="curve" smooth="yes"/>
      <point x="75" y="644"/>
      <point x="102" y="685"/>
    </contour>
    <contour>
      <point x="28" y="352" type="line"/>
      <point x="28" y="304" type="line"/>
      <point x="271" y="304" type="line"/>
      <point x="271" y="352" type="line"/>
    </contour>
  </outline>
</glyph>
<glyph name="guillemotright" format="1">
  <advance width="456"/>
  <unicode hex="00BB"/>
  <outline>
    <contour>
      <point x="208" y="231" type="line"/>
      <point x="208" y="323" type="line"/>
      <point x="80" y="446" type="line"/>
      <point x="80" y="358" type="line"/>
      <point x="166" y="277" type="line"/>
      <point x="80" y="196" type="line"/>
      <point x="80" y="108" type="line"/>
    </contour>
    <contour>
      <point x="376" y="231" type="line"/>
      <point x="376" y="323" type="line"/>
      <point x="248" y="446" type="line"/>
      <point x="248" y="358" type="line"/>
      <point x="334" y="277" type="line"/>
      <point x="248" y="196" type="line"/>
      <point x="248" y="108" type="line"/>
    </contour>
  </outline>
</glyph>
<glyph name="onequarter" format="1">
  <advance width="684"/>
  <unicode hex="00BC"/>
  <outline>
    <contour>
      <point x="344" y="94" type="line"/>
      <point x="513" y="94" type="line"/>
      <point x="513" y="0" type="line"/>
      <point x="565" y="0" type="line"/>
      <point x="565" y="94" type="line"/>
      <point x="620" y="94" type="line"/>
      <point x="620" y="152" type="line"/>
      <point x="565" y="152" type="line"/>
      <point x="565" y="422" type="line"/>
      <point x="513" y="422" type="line"/>
      <point x="344" y="154" type="line"/>
    </contour>
    <contour>
      <point x="513" y="152" type="line"/>
      <point x="395" y="152" type="line"/>
      <point x="513" y="342" type="line"/>
    </contour>
    <contour>
      <point x="536" y="703" type="line"/>
      <point x="489" y="703" type="line"/>
      <point x="126" y="-19" type="line"/>
      <point x="173" y="-19" type="line"/>
    </contour>
    <contour>
      <point x="149" y="580" type="line"/>
      <point x="149" y="281" type="line"/>
      <point x="205" y="281" type="line"/>
      <point x="205" y="703" type="line"/>
      <point x="161" y="703" type="line"/>
      <point x="147" y="641"/>
      <point x="130" y="628"/>
      <point x="60" y="623" type="curve"/>
      <point x="60" y="580" type="line"/>
    </contour>
  </outline>
</glyph>
<glyph name="onehalf" format="1">
  <advance width="684"/>
  <unicode hex="00BD"/>
  <outline>
    <contour>
      <point x="506" y="703" type="line"/>
      <point x="459" y="703" type="line"/>
      <point x="97" y="-19" type="line"/>
      <point x="143" y="-19" type="line"/>
    </contour>
    <contour>
      <point x="124" y="577" type="line"/>
      <point x="124" y="281" type="line"/>
      <point x="182" y="281" type="line"/>
      <point x="182" y="703" type="line"/>
      <point x="136" y="703" type="line"/>
      <point x="122" y="641"/>
      <point x="105" y="628"/>
      <point x="35" y="623" type="curve"/>
      <point x="35" y="577" type="line"/>
    </contour>
    <contour>
      <point x="434" y="271" type="line"/>
      <point x="438" y="343"/>
      <point x="461" y="375"/>
      <point x="508" y="375" type="curve" smooth="yes"/>
      <point x="552" y="375"/>
      <point x="577" y="348"/>
      <point x="577" y="302" type="curve" smooth="yes"/>
      <point x="577" y="253"/>
      <point x="569" y="242"/>
      <point x="507" y="200" type="curve" smooth="yes"/>
      <point x="458" y="167" type="line" smooth="yes"/>
      <point x="401" y="129"/>
      <point x="376" y="79"/>
      <point x="372" y="0" type="curve"/>
      <point x="634" y="0" type="line"/>
      <point x="634" y="62" type="line"/>
      <point x="434" y="62" type="line"/>
      <point x="447" y="90"/>
      <point x="468" y="112"/>
      <point x="499" y="132" type="curve" smooth="yes"/>
      <point x="536" y="155" type="line" smooth="yes"/>
      <point x="611" y="201"/>
      <point x="634" y="234"/>
      <point x="634" y="296" type="curve" smooth="yes"/>
      <point x="634" y="377"/>
      <point x="585" y="433"/>
      <point x="512" y="433" type="curve" smooth="yes"/>
      <point x="473" y="433"/>
      <point x="437" y="416"/>
      <point x="416" y="388" type="curve" smooth="yes"/>
      <point x="394" y="359"/>
      <point x="386" y="330"/>
      <point x="385" y="271" type="curve"/>
    </contour>
  </outline>
</glyph>
<glyph name="threequarters" format="1">
  <advance width="684"/>
  <unicode hex="00BE"/>
  <outline>
    <contour>
      <point x="388" y="94" type="line"/>
      <point x="557" y="94" type="line"/>
      <point x="557" y="0" type="line"/>
      <point x="609" y="0" type="line"/>
      <point x="609" y="94" type="line"/>
      <point x="664" y="94" type="line"/>
      <point x="664" y="152" type="line"/>
      <point x="609" y="152" type="line"/>
      <point x="609" y="422" type="line"/>
      <point x="557" y="422" type="line"/>
      <point x="388" y="154" type="line"/>
    </contour>
    <contour>
      <point x="557" y="342" type="line"/>
      <point x="557" y="152" type="line"/>
      <point x="439" y="152" type="line"/>
    </contour>
    <contour>
      <point x="584" y="703" type="line"/>
      <point x="537" y="703" type="line"/>
      <point x="175" y="-19" type="line"/>
      <point x="221" y="-19" type="line"/>
    </contour>
    <contour>
      <point x="37" y="421" type="line"/>
      <point x="43" y="358"/>
      <point x="53" y="327"/>
      <point x="78" y="303" type="curve" smooth="yes"/>
      <point x="100" y="282"/>
      <point x="131" y="270"/>
      <point x="165" y="270" type="curve" smooth="yes"/>
      <point x="246" y="270"/>
      <point x="300" y="328"/>
      <point x="300" y="415" type="curve" smooth="yes"/>
      <point x="300" y="468"/>
      <point x="282" y="496"/>
      <point x="235" y="515" type="curve"/>
      <point x="269" y="529"/>
      <point x="286" y="559"/>
      <point x="286" y="602" type="curve" smooth="yes"/>
      <point x="286" y="670"/>
      <point x="240" y="714"/>
      <point x="169" y="714" type="curve" smooth="yes"/>
      <point x="91" y="714"/>
      <point x="50" y="668"/>
      <point x="46" y="576" type="curve"/>
      <point x="96" y="576" type="line"/>
      <point x="100" y="633"/>
      <point x="120" y="656"/>
      <point x="165" y="656" type="curve" smooth="yes"/>
      <point x="206" y="656"/>
      <point x="229" y="635"/>
      <point x="229" y="598" type="curve" smooth="yes"/>
      <point x="229" y="556"/>
      <point x="205" y="533"/>
      <point x="161" y="533" type="curve" smooth="yes"/>
      <point x="139" y="533" type="line"/>
      <point x="139" y="481" type="line"/>
      <point x="158" y="481" type="line" smooth="yes"/>
      <point x="219" y="481"/>
      <point x="243" y="461"/>
      <point x="243" y="410" type="curve" smooth="yes"/>
      <point x="243" y="358"/>
      <point x="215" y="328"/>
      <point x="166" y="328" type="curve" smooth="yes"/>
      <point x="117" y="328"/>
      <point x="97" y="353"/>
      <point x="93" y="421" type="curve"/>
    </contour>
  </outline>
</glyph>
<glyph name="questiondown" format="1">
  <advance width="501"/>
  <unicode hex="00BF"/>
  <outline>
    <contour>
      <point x="360" y="33" type="line"/>
      <point x="358" y="-74"/>
      <point x="323" y="-124"/>
      <point x="252" y="-124" type="curve" smooth="yes"/>
      <point x="190" y="-124"/>
      <point x="152" y="-79"/>
      <point x="152" y="-5" type="curve" smooth="yes"/>
      <point x="152" y="41"/>
      <point x="159" y="54"/>
      <point x="218" y="128" type="curve" smooth="yes"/>
      <point x="284" y="211"/>
      <point x="294" y="239"/>
      <point x="295" y="343" type="curve"/>
      <point x="223" y="343" type="line"/>
      <point x="223" y="255"/>
      <point x="214" y="232"/>
      <point x="152" y="160" type="curve" smooth="yes"/>
      <point x="89" y="87"/>
      <point x="75" y="56"/>
      <point x="75" y="-6" type="curve" smooth="yes"/>
      <point x="75" y="-121"/>
      <point x="147" y="-201"/>
      <point x="249" y="-201" type="curve" smooth="yes"/>
      <point x="304" y="-201"/>
      <point x="354" y="-176"/>
      <point x="388" y="-132" type="curve" smooth="yes"/>
      <point x="419" y="-92"/>
      <point x="429" y="-56"/>
      <point x="432" y="33" type="curve"/>
    </contour>
    <contour>
      <point x="217" y="423" type="line"/>
      <point x="297" y="423" type="line"/>
      <point x="297" y="525" type="line"/>
      <point x="217" y="525" type="line"/>
    </contour>
  </outline>
</glyph>
<glyph name="Aacute" format="1">
  <advance width="547"/>
  <unicode hex="00C1"/>
  <outline>
    <contour>
      <point x="391" y="209" type="line"/>
      <point x="449" y="0" type="line"/>
      <point x="536" y="0" type="line"/>
      <point x="323" y="718" type="line"/>
      <point x="232" y="718" type="line"/>
      <point x="11" y="0" type="line"/>
      <point x="93" y="0" type="line"/>
      <point x="155" y="209" type="line"/>
    </contour>
    <contour>
      <point x="179" y="296" type="line"/>
      <point x="274" y="614" type="line"/>
      <point x="362" y="296" type="line"/>
    </contour>
    <contour>
      <point x="399" y="929" type="line"/>
      <point x="310" y="929" type="line"/>
      <point x="237" y="788" type="line"/>
      <point x="292" y="788" type="line"/>
    </contour>
  </outline>
</glyph>
<glyph name="Acircumflex" format="1">
  <advance width="547"/>
  <unicode hex="00C2"/>
  <outline>
    <contour>
      <point x="391" y="209" type="line"/>
      <point x="449" y="0" type="line"/>
      <point x="536" y="0" type="line"/>
      <point x="323" y="718" type="line"/>
      <point x="232" y="718" type="line"/>
      <point x="11" y="0" type="line"/>
      <point x="93" y="0" type="line"/>
      <point x="155" y="209" type="line"/>
    </contour>
    <contour>
      <point x="179" y="296" type="line"/>
      <point x="274" y="614" type="line"/>
      <point x="362" y="296" type="line"/>
    </contour>
    <contour>
      <point x="273" y="881" type="line"/>
      <point x="327" y="788" type="line"/>
      <point x="393" y="788" type="line"/>
      <point x="312" y="929" type="line"/>
      <point x="235" y="929" type="line"/>
      <point x="154" y="788" type="line"/>
      <point x="219" y="788" type="line"/>
    </contour>
  </outline>
</glyph>
<glyph name="Atilde" format="1">
  <advance width="547"/>
  <unicode hex="00C3"/>
  <outline>
    <contour>
      <point x="391" y="209" type="line"/>
      <point x="449" y="0" type="line"/>
      <point x="536" y="0" type="line"/>
      <point x="323" y="718" type="line"/>
      <point x="232" y="718" type="line"/>
      <point x="11" y="0" type="line"/>
      <point x="93" y="0" type="line"/>
      <point x="155" y="209" type="line"/>
    </contour>
    <contour>
      <point x="179" y="296" type="line"/>
      <point x="274" y="614" type="line"/>
      <point x="362" y="296" type="line"/>
    </contour>
    <contour>
      <point x="371" y="917" type="line"/>
      <point x="365" y="884"/>
      <point x="354" y="871"/>
      <point x="333" y="871" type="curve" smooth="yes"/>
      <point x="323" y="871"/>
      <point x="308" y="876"/>
      <point x="292" y="884" type="curve" smooth="yes"/>
      <point x="274" y="893" type="line" smooth="yes"/>
      <point x="255" y="903"/>
      <point x="235" y="908"/>
      <point x="218" y="908" type="curve" smooth="yes"/>
      <point x="170" y="908"/>
      <point x="143" y="875"/>
      <point x="133" y="801" type="curve"/>
      <point x="172" y="801" type="line"/>
      <point x="181" y="833"/>
      <point x="191" y="845"/>
      <point x="210" y="845" type="curve" smooth="yes"/>
      <point x="221" y="845"/>
      <point x="236" y="841"/>
      <point x="261" y="830" type="curve" smooth="yes"/>
      <point x="282" y="821" type="line" smooth="yes"/>
      <point x="304" y="812"/>
      <point x="317" y="808"/>
      <point x="329" y="808" type="curve" smooth="yes"/>
      <point x="374" y="808"/>
      <point x="402" y="845"/>
      <point x="412" y="917" type="curve"/>
    </contour>
  </outline>
</glyph>
<glyph name="Adieresis" format="1">
  <advance width="547"/>
  <unicode hex="00C4"/>
  <outline>
    <contour>
      <point x="391" y="209" type="line"/>
      <point x="449" y="0" type="line"/>
      <point x="536" y="0" type="line"/>
      <point x="323" y="718" type="line"/>
      <point x="232" y="718" type="line"/>
      <point x="11" y="0" type="line"/>
      <point x="93" y="0" type="line"/>
      <point x="155" y="209" type="line"/>
    </contour>
    <contour>
      <point x="179" y="296" type="line"/>
      <point x="274" y="614" type="line"/>
      <point x="362" y="296" type="line"/>
    </contour>
    <contour>
      <point x="244" y="901" type="line"/>
      <point x="169" y="901" type="line"/>
      <point x="169" y="799" type="line"/>
      <point x="244" y="799" type="line"/>
    </contour>
    <contour>
      <point x="376" y="901" type="line"/>
      <point x="301" y="901" type="line"/>
      <point x="301" y="799" type="line"/>
      <point x="376" y="799" type="line"/>
    </contour>
  </outline>
</glyph>
<glyph name="Aring" format="1">
  <advance width="547"/>
  <unicode hex="00C5"/>
  <outline>
    <contour>
      <point x="391" y="209" type="line"/>
      <point x="449" y="0" type="line"/>
      <point x="536" y="0" type="line"/>
      <point x="323" y="718" type="line"/>
      <point x="232" y="718" type="line"/>
      <point x="11" y="0" type="line"/>
      <point x="93" y="0" type="line"/>
      <point x="155" y="209" type="line"/>
    </contour>
    <contour>
      <point x="179" y="296" type="line"/>
      <point x="274" y="614" type="line"/>
      <point x="362" y="296" type="line"/>
    </contour>
    <contour>
      <point x="274" y="944" type="curve" smooth="yes"/>
      <point x="230" y="944"/>
      <point x="198" y="905"/>
      <point x="198" y="852" type="curve" smooth="yes"/>
      <point x="198" y="799"/>
      <point x="230" y="760"/>
      <point x="273" y="760" type="curve" smooth="yes"/>
      <point x="317" y="760"/>
      <point x="349" y="799"/>
      <point x="349" y="852" type="curve" smooth="yes"/>
      <point x="349" y="904"/>
      <point x="317" y="944"/>
    </contour>
    <contour>
      <point x="274" y="904" type="curve" smooth="yes"/>
      <point x="297" y="904"/>
      <point x="316" y="880"/>
      <point x="316" y="852" type="curve" smooth="yes"/>
      <point x="316" y="823"/>
      <point x="297" y="800"/>
      <point x="273" y="800" type="curve" smooth="yes"/>
      <point x="250" y="800"/>
      <point x="231" y="823"/>
      <point x="231" y="852" type="curve" smooth="yes"/>
      <point x="231" y="881"/>
      <point x="250" y="904"/>
    </contour>
  </outline>
</glyph>
<glyph name="AE" format="1">
  <advance width="820"/>
  <unicode hex="00C6"/>
  <outline>
    <contour>
      <point x="158" y="209" type="line"/>
      <point x="375" y="209" type="line"/>
      <point x="375" y="0" type="line"/>
      <point x="780" y="0" type="line"/>
      <point x="780" y="87" type="line"/>
      <point x="455" y="87" type="line"/>
      <point x="455" y="325" type="line"/>
      <point x="746" y="325" type="line"/>
      <point x="746" y="412" type="line"/>
      <point x="455" y="412" type="line"/>
      <point x="455" y="631" type="line"/>
      <point x="774" y="631" type="line"/>
      <point x="774" y="718" type="line"/>
      <point x="246" y="718" type="line"/>
      <point x="7" y="0" type="line"/>
      <point x="93" y="0" type="line"/>
    </contour>
    <contour>
      <point x="375" y="296" type="line"/>
      <point x="186" y="296" type="line"/>
      <point x="295" y="631" type="line"/>
      <point x="375" y="631" type="line"/>
    </contour>
  </outline>
</glyph>
<glyph name="Ccedilla" format="1">
  <advance width="592"/>
  <unicode hex="00C7"/>
  <outline>
    <contour>
      <point x="304" y="-19" type="line"/>
      <point x="351" y="-18"/>
      <point x="394" y="-5"/>
      <point x="431" y="19" type="curve" smooth="yes"/>
      <point x="505" y="72"/>
      <point x="532" y="123"/>
      <point x="558" y="264" type="curve"/>
      <point x="481" y="264" type="line"/>
      <point x="469" y="202"/>
      <point x="459" y="173"/>
      <point x="438" y="140" type="curve" smooth="yes"/>
      <point x="405" y="91"/>
      <point x="363" y="67"/>
      <point x="308" y="67" type="curve" smooth="yes"/>
      <point x="188" y="67"/>
      <point x="118" y="173"/>
      <point x="118" y="354" type="curve" smooth="yes"/>
      <point x="118" y="539"/>
      <point x="191" y="650"/>
      <point x="313" y="650" type="curve" smooth="yes"/>
      <point x="354" y="650"/>
      <point x="392" y="636"/>
      <point x="420" y="612" type="curve" smooth="yes"/>
      <point x="449" y="586"/>
      <point x="462" y="559"/>
      <point x="475" y="502" type="curve"/>
      <point x="552" y="502" type="line"/>
      <point x="545" y="558"/>
      <point x="536" y="586"/>
      <point x="514" y="623" type="curve" smooth="yes"/>
      <point x="472" y="696"/>
      <point x="399" y="737"/>
      <point x="311" y="737" type="curve" smooth="yes"/>
      <point x="143" y="737"/>
      <point x="36" y="590"/>
      <point x="36" y="358" type="curve" smooth="yes"/>
      <point x="36" y="145"/>
      <point x="122" y="5"/>
      <point x="267" y="-17" type="curve"/>
      <point x="224" y="-86" type="line"/>
      <point x="238" y="-105" type="line"/>
      <point x="255" y="-98"/>
      <point x="263" y="-96"/>
      <point x="270" y="-96" type="curve" smooth="yes"/>
      <point x="293" y="-96"/>
      <point x="310" y="-113"/>
      <point x="310" y="-136" type="curve" smooth="yes"/>
      <point x="310" y="-163"/>
      <point x="293" y="-178"/>
      <point x="263" y="-178" type="curve" smooth="yes"/>
      <point x="246" y="-178"/>
      <point x="234" y="-175"/>
      <point x="211" y="-163" type="curve"/>
      <point x="197" y="-203" type="line"/>
      <point x="229" y="-219"/>
      <point x="251" y="-225"/>
      <point x="276" y="-225" type="curve" smooth="yes"/>
      <point x="332" y="-225"/>
      <point x="372" y="-187"/>
      <point x="372" y="-133" type="curve" smooth="yes"/>
      <point x="372" y="-88"/>
      <point x="345" y="-58"/>
      <point x="304" y="-58" type="curve" smooth="yes"/>
      <point x="297" y="-58"/>
      <point x="291" y="-59"/>
      <point x="278" y="-62" type="curve"/>
    </contour>
  </outline>
</glyph>
<glyph name="Eacute" format="1">
  <advance width="547"/>
  <unicode hex="00C9"/>
  <outline>
    <contour>
      <point x="505" y="87" type="line"/>
      <point x="151" y="87" type="line"/>
      <point x="151" y="325" type="line"/>
      <point x="472" y="325" type="line"/>
      <point x="472" y="412" type="line"/>
      <point x="151" y="412" type="line"/>
      <point x="151" y="631" type="line"/>
      <point x="499" y="631" type="line"/>
      <point x="499" y="718" type="line"/>
      <point x="71" y="718" type="line"/>
      <point x="71" y="0" type="line"/>
      <point x="505" y="0" type="line"/>
    </contour>
    <contour>
      <point x="399" y="929" type="line"/>
      <point x="310" y="929" type="line"/>
      <point x="237" y="788" type="line"/>
      <point x="292" y="788" type="line"/>
    </contour>
  </outline>
</glyph>
<glyph name="Ecircumflex" format="1">
  <advance width="547"/>
  <unicode hex="00CA"/>
  <outline>
    <contour>
      <point x="505" y="87" type="line"/>
      <point x="151" y="87" type="line"/>
      <point x="151" y="325" type="line"/>
      <point x="472" y="325" type="line"/>
      <point x="472" y="412" type="line"/>
      <point x="151" y="412" type="line"/>
      <point x="151" y="631" type="line"/>
      <point x="499" y="631" type="line"/>
      <point x="499" y="718" type="line"/>
      <point x="71" y="718" type="line"/>
      <point x="71" y="0" type="line"/>
      <point x="505" y="0" type="line"/>
    </contour>
    <contour>
      <point x="274" y="881" type="line"/>
      <point x="328" y="788" type="line"/>
      <point x="394" y="788" type="line"/>
      <point x="313" y="929" type="line"/>
      <point x="236" y="929" type="line"/>
      <point x="155" y="788" type="line"/>
      <point x="220" y="788" type="line"/>
    </contour>
  </outline>
</glyph>
<glyph name="Igrave" format="1">
  <advance width="228"/>
  <unicode hex="00CC"/>
  <outline>
    <contour>
      <point x="154" y="718" type="line"/>
      <point x="74" y="718" type="line"/>
      <point x="74" y="0" type="line"/>
      <point x="154" y="0" type="line"/>
    </contour>
    <contour>
      <point x="96" y="788" type="line"/>
      <point x="151" y="788" type="line"/>
      <point x="78" y="929" type="line"/>
      <point x="-11" y="929" type="line"/>
    </contour>
  </outline>
</glyph>
<glyph name="Iacute" format="1">
  <advance width="228"/>
  <unicode hex="00CD"/>
  <outline>
    <contour>
      <point x="154" y="718" type="line"/>
      <point x="75" y="718" type="line"/>
      <point x="75" y="0" type="line"/>
      <point x="154" y="0" type="line"/>
    </contour>
    <contour>
      <point x="240" y="903" type="line"/>
      <point x="151" y="903" type="line"/>
      <point x="78" y="762" type="line"/>
      <point x="133" y="762" type="line"/>
    </contour>
  </outline>
</glyph>
<glyph name="Icircumflex" format="1">
  <advance width="228"/>
  <unicode hex="00CE"/>
  <outline>
    <contour>
      <point x="155" y="718" type="line"/>
      <point x="75" y="718" type="line"/>
      <point x="75" y="0" type="line"/>
      <point x="155" y="0" type="line"/>
    </contour>
    <contour>
      <point x="114" y="881" type="line"/>
      <point x="168" y="788" type="line"/>
      <point x="234" y="788" type="line"/>
      <point x="153" y="929" type="line"/>
      <point x="76" y="929" type="line"/>
      <point x="-5" y="788" type="line"/>
      <point x="60" y="788" type="line"/>
    </contour>
  </outline>
</glyph>
<glyph name="Idieresis" format="1">
  <advance width="228"/>
  <unicode hex="00CF"/>
  <outline>
    <contour>
      <point x="155" y="718" type="line"/>
      <point x="75" y="718" type="line"/>
      <point x="75" y="0" type="line"/>
      <point x="155" y="0" type="line"/>
    </contour>
    <contour>
      <point x="86" y="901" type="line"/>
      <point x="11" y="901" type="line"/>
      <point x="11" y="799" type="line"/>
      <point x="86" y="799" type="line"/>
    </contour>
    <contour>
      <point x="218" y="901" type="line"/>
      <point x="143" y="901" type="line"/>
      <point x="143" y="799" type="line"/>
      <point x="218" y="799" type="line"/>
    </contour>
  </outline>
</glyph>
<glyph name="Ntilde" format="1">
  <advance width="592"/>
  <unicode hex="00D1"/>
  <outline>
    <contour>
      <point x="453" y="135" type="line"/>
      <point x="156" y="718" type="line"/>
      <point x="62" y="718" type="line"/>
      <point x="62" y="0" type="line"/>
      <point x="139" y="0" type="line"/>
      <point x="139" y="583" type="line"/>
      <point x="441" y="0" type="line"/>
      <point x="530" y="0" type="line"/>
      <point x="530" y="718" type="line"/>
      <point x="453" y="718" type="line"/>
    </contour>
    <contour>
      <point x="403" y="917" type="line"/>
      <point x="397" y="884"/>
      <point x="386" y="871"/>
      <point x="365" y="871" type="curve" smooth="yes"/>
      <point x="355" y="871"/>
      <point x="340" y="876"/>
      <point x="324" y="884" type="curve" smooth="yes"/>
      <point x="306" y="893" type="line" smooth="yes"/>
      <point x="287" y="903"/>
      <point x="267" y="908"/>
      <point x="250" y="908" type="curve" smooth="yes"/>
      <point x="202" y="908"/>
      <point x="175" y="875"/>
      <point x="165" y="801" type="curve"/>
      <point x="204" y="801" type="line"/>
      <point x="213" y="833"/>
      <point x="223" y="845"/>
      <point x="242" y="845" type="curve" smooth="yes"/>
      <point x="253" y="845"/>
      <point x="268" y="841"/>
      <point x="293" y="830" type="curve" smooth="yes"/>
      <point x="314" y="821" type="line" smooth="yes"/>
      <point x="336" y="812"/>
      <point x="349" y="808"/>
      <point x="361" y="808" type="curve" smooth="yes"/>
      <point x="406" y="808"/>
      <point x="434" y="845"/>
      <point x="444" y="917" type="curve"/>
    </contour>
  </outline>
</glyph>
<glyph name="Oacute" format="1">
  <advance width="638"/>
  <unicode hex="00D3"/>
  <outline>
    <contour>
      <point x="323" y="737" type="curve" smooth="yes"/>
      <point x="238" y="737"/>
      <point x="170" y="706"/>
      <point x="121" y="646" type="curve" smooth="yes"/>
      <point x="64" y="576"/>
      <point x="32" y="472"/>
      <point x="32" y="358" type="curve" smooth="yes"/>
      <point x="32" y="246"/>
      <point x="64" y="144"/>
      <point x="121" y="72" type="curve" smooth="yes"/>
      <point x="168" y="13"/>
      <point x="238" y="-19"/>
      <point x="319" y="-19" type="curve" smooth="yes"/>
      <point x="400" y="-19"/>
      <point x="470" y="13"/>
      <point x="517" y="72" type="curve" smooth="yes"/>
      <point x="574" y="144"/>
      <point x="606" y="246"/>
      <point x="606" y="358" type="curve" smooth="yes"/>
      <point x="606" y="437"/>
      <point x="589" y="518"/>
      <point x="559" y="580" type="curve" smooth="yes"/>
      <point x="508" y="682"/>
      <point x="427" y="737"/>
    </contour>
    <contour>
      <point x="322" y="650" type="curve" smooth="yes"/>
      <point x="442" y="650"/>
      <point x="524" y="532"/>
      <point x="524" y="359" type="curve" smooth="yes"/>
      <point x="524" y="184"/>
      <point x="442" y="68"/>
      <point x="319" y="68" type="curve" smooth="yes"/>
      <point x="196" y="68"/>
      <point x="114" y="184"/>
      <point x="114" y="358" type="curve" smooth="yes"/>
      <point x="114" y="536"/>
      <point x="195" y="650"/>
    </contour>
    <contour>
      <point x="445" y="929" type="line"/>
      <point x="356" y="929" type="line"/>
      <point x="283" y="788" type="line"/>
      <point x="338" y="788" type="line"/>
    </contour>
  </outline>
</glyph>
<glyph name="Otilde" format="1">
  <advance width="638"/>
  <unicode hex="00D5"/>
  <outline>
    <contour>
      <point x="323" y="737" type="curve" smooth="yes"/>
      <point x="238" y="737"/>
      <point x="170" y="706"/>
      <point x="121" y="646" type="curve" smooth="yes"/>
      <point x="64" y="576"/>
      <point x="32" y="472"/>
      <point x="32" y="358" type="curve" smooth="yes"/>
      <point x="32" y="246"/>
      <point x="64" y="144"/>
      <point x="121" y="72" type="curve" smooth="yes"/>
      <point x="168" y="13"/>
      <point x="238" y="-19"/>
      <point x="319" y="-19" type="curve" smooth="yes"/>
      <point x="400" y="-19"/>
      <point x="470" y="13"/>
      <point x="517" y="72" type="curve" smooth="yes"/>
      <point x="574" y="144"/>
      <point x="606" y="246"/>
      <point x="606" y="358" type="curve" smooth="yes"/>
      <point x="606" y="437"/>
      <point x="589" y="518"/>
      <point x="559" y="580" type="curve" smooth="yes"/>
      <point x="508" y="682"/>
      <point x="427" y="737"/>
    </contour>
    <contour>
      <point x="322" y="650" type="curve" smooth="yes"/>
      <point x="442" y="650"/>
      <point x="524" y="532"/>
      <point x="524" y="359" type="curve" smooth="yes"/>
      <point x="524" y="184"/>
      <point x="442" y="68"/>
      <point x="319" y="68" type="curve" smooth="yes"/>
      <point x="196" y="68"/>
      <point x="114" y="184"/>
      <point x="114" y="358" type="curve" smooth="yes"/>
      <point x="114" y="536"/>
      <point x="195" y="650"/>
    </contour>
    <contour>
      <point x="418" y="917" type="line"/>
      <point x="412" y="884"/>
      <point x="401" y="871"/>
      <point x="380" y="871" type="curve" smooth="yes"/>
      <point x="370" y="871"/>
      <point x="355" y="876"/>
      <point x="339" y="884" type="curve" smooth="yes"/>
      <point x="321" y="893" type="line" smooth="yes"/>
      <point x="302" y="903"/>
      <point x="282" y="908"/>
      <point x="265" y="908" type="curve" smooth="yes"/>
      <point x="217" y="908"/>
      <point x="190" y="875"/>
      <point x="180" y="801" type="curve"/>
      <point x="219" y="801" type="line"/>
      <point x="228" y="833"/>
      <point x="238" y="845"/>
      <point x="257" y="845" type="curve" smooth="yes"/>
      <point x="268" y="845"/>
      <point x="283" y="841"/>
      <point x="308" y="830" type="curve" smooth="yes"/>
      <point x="329" y="821" type="line" smooth="yes"/>
      <point x="351" y="812"/>
      <point x="364" y="808"/>
      <point x="376" y="808" type="curve" smooth="yes"/>
      <point x="421" y="808"/>
      <point x="449" y="845"/>
      <point x="459" y="917" type="curve"/>
    </contour>
  </outline>
</glyph>
<glyph name="multiply" format="1">
  <advance width="479"/>
  <unicode hex="00D7"/>
  <outline>
    <contour>
      <point x="198" y="253" type="line"/>
      <point x="32" y="51" type="line"/>
      <point x="74" y="0" type="line"/>
      <point x="239" y="201" type="line"/>
      <point x="405" y="0" type="line"/>
      <point x="447" y="51" type="line"/>
      <point x="282" y="253" type="line"/>
      <point x="447" y="455" type="line"/>
      <point x="405" y="506" type="line"/>
      <point x="239" y="305" type="line"/>
      <point x="75" y="506" type="line"/>
      <point x="32" y="455" type="line"/>
    </contour>
  </outline>
</glyph>
<glyph name="Oslash" format="1">
  <advance width="638"/>
  <unicode hex="00D8"/>
  <outline>
    <contour>
      <point x="607" y="707" type="line"/>
      <point x="582" y="737" type="line"/>
      <point x="515" y="648" type="line"/>
      <point x="458" y="711"/>
      <point x="401" y="737"/>
      <point x="320" y="737" type="curve" smooth="yes"/>
      <point x="238" y="737"/>
      <point x="168" y="705"/>
      <point x="121" y="646" type="curve" smooth="yes"/>
      <point x="64" y="574"/>
      <point x="32" y="472"/>
      <point x="32" y="360" type="curve" smooth="yes"/>
      <point x="32" y="259"/>
      <point x="53" y="183"/>
      <point x="102" y="99" type="curve"/>
      <point x="34" y="9" type="line"/>
      <point x="60" y="-19" type="line"/>
      <point x="126" y="68" type="line"/>
      <point x="183" y="6"/>
      <point x="239" y="-19"/>
      <point x="318" y="-19" type="curve" smooth="yes"/>
      <point x="400" y="-19"/>
      <point x="470" y="13"/>
      <point x="517" y="72" type="curve" smooth="yes"/>
      <point x="574" y="144"/>
      <point x="606" y="246"/>
      <point x="606" y="358" type="curve" smooth="yes"/>
      <point x="606" y="457"/>
      <point x="586" y="533"/>
      <point x="539" y="616" type="curve"/>
    </contour>
    <contour>
      <point x="484" y="543" type="line"/>
      <point x="513" y="485"/>
      <point x="524" y="433"/>
      <point x="524" y="359" type="curve" smooth="yes"/>
      <point x="524" y="184"/>
      <point x="442" y="68"/>
      <point x="318" y="68" type="curve" smooth="yes"/>
      <point x="261" y="68"/>
      <point x="220" y="89"/>
      <point x="178" y="138" type="curve"/>
    </contour>
    <contour>
      <point x="156" y="171" type="line"/>
      <point x="126" y="232"/>
      <point x="114" y="286"/>
      <point x="114" y="359" type="curve" smooth="yes"/>
      <point x="114" y="534"/>
      <point x="196" y="650"/>
      <point x="320" y="650" type="curve" smooth="yes"/>
      <point x="378" y="650"/>
      <point x="420" y="629"/>
      <point x="463" y="578" type="curve"/>
    </contour>
  </outline>
</glyph>
<glyph name="Uacute" format="1">
  <advance width="592"/>
  <unicode hex="00DA"/>
  <outline>
    <contour>
      <point x="448" y="718" type="line"/>
      <point x="448" y="264" type="line" smooth="yes"/>
      <point x="448" y="139"/>
      <point x="392" y="68"/>
      <point x="295" y="68" type="curve" smooth="yes"/>
      <point x="199" y="68"/>
      <point x="145" y="139"/>
      <point x="145" y="266" type="curve" smooth="yes"/>
      <point x="145" y="718" type="line"/>
      <point x="65" y="718" type="line"/>
      <point x="65" y="239" type="line" smooth="yes"/>
      <point x="65" y="81"/>
      <point x="153" y="-19"/>
      <point x="292" y="-19" type="curve" smooth="yes"/>
      <point x="436" y="-19"/>
      <point x="528" y="87"/>
      <point x="528" y="252" type="curve" smooth="yes"/>
      <point x="528" y="718" type="line"/>
    </contour>
    <contour>
      <point x="422" y="929" type="line"/>
      <point x="333" y="929" type="line"/>
      <point x="260" y="788" type="line"/>
      <point x="315" y="788" type="line"/>
    </contour>
  </outline>
</glyph>
<glyph name="Yacute" format="1">
  <advance width="547"/>
  <unicode hex="00DD"/>
  <outline>
    <contour>
      <point x="313" y="289" type="line"/>
      <point x="535" y="718" type="line"/>
      <point x="442" y="718" type="line"/>
      <point x="273" y="373" type="line"/>
      <point x="104" y="718" type="line"/>
      <point x="11" y="718" type="line"/>
      <point x="233" y="289" type="line"/>
      <point x="233" y="0" type="line"/>
      <point x="313" y="0" type="line"/>
    </contour>
    <contour>
      <point x="398" y="929" type="line"/>
      <point x="309" y="929" type="line"/>
      <point x="236" y="788" type="line"/>
      <point x="291" y="788" type="line"/>
    </contour>
  </outline>
</glyph>
<glyph name="Thorn" format="1">
  <advance width="547"/>
  <unicode hex="00DE"/>
  <outline>
    <contour>
      <point x="71" y="0" type="line"/>
      <point x="151" y="0" type="line"/>
      <point x="151" y="184" type="line"/>
      <point x="335" y="184" type="line" smooth="yes"/>
      <point x="441" y="184"/>
      <point x="510" y="268"/>
      <point x="510" y="396" type="curve" smooth="yes"/>
      <point x="510" y="518"/>
      <point x="440" y="599"/>
      <point x="335" y="599" type="curve" smooth="yes"/>
      <point x="151" y="599" type="line"/>
      <point x="151" y="718" type="line"/>
      <point x="71" y="718" type="line"/>
    </contour>
    <contour>
      <point x="151" y="516" type="line"/>
      <point x="311" y="516" type="line" smooth="yes"/>
      <point x="390" y="516"/>
      <point x="428" y="476"/>
      <point x="428" y="393" type="curve" smooth="yes"/>
      <point x="428" y="309"/>
      <point x="388" y="267"/>
      <point x="308" y="267" type="curve" smooth="yes"/>
      <point x="151" y="267" type="line"/>
    </contour>
  </outline>
</glyph>
<glyph name="germandbls" format="1">
  <advance width="501"/>
  <unicode hex="00DF"/>
  <outline>
    <contour>
      <point x="218" y="-8" type="line"/>
      <point x="221" y="-9" type="line" smooth="yes"/>
      <point x="237" y="-14"/>
      <point x="246" y="-15"/>
      <point x="262" y="-15" type="curve" smooth="yes"/>
      <point x="325" y="-15"/>
      <point x="380" y="9"/>
      <point x="413" y="51" type="curve" smooth="yes"/>
      <point x="448" y="95"/>
      <point x="468" y="159"/>
      <point x="468" y="223" type="curve" smooth="yes"/>
      <point x="468" y="311"/>
      <point x="434" y="374"/>
      <point x="373" y="400" type="curve"/>
      <point x="420" y="437"/>
      <point x="440" y="481"/>
      <point x="440" y="546" type="curve" smooth="yes"/>
      <point x="440" y="657"/>
      <point x="365" y="728"/>
      <point x="247" y="728" type="curve" smooth="yes"/>
      <point x="127" y="728"/>
      <point x="55" y="655"/>
      <point x="55" y="532" type="curve" smooth="yes"/>
      <point x="55" y="0" type="line"/>
      <point x="127" y="0" type="line"/>
      <point x="127" y="510" type="line" smooth="yes"/>
      <point x="127" y="609"/>
      <point x="162" y="651"/>
      <point x="244" y="651" type="curve" smooth="yes"/>
      <point x="321" y="651"/>
      <point x="368" y="608"/>
      <point x="368" y="538" type="curve" smooth="yes"/>
      <point x="368" y="468"/>
      <point x="323" y="427"/>
      <point x="245" y="427" type="curve" smooth="yes"/>
      <point x="238" y="427"/>
      <point x="227" y="428"/>
      <point x="222" y="429" type="curve"/>
      <point x="222" y="350" type="line"/>
      <point x="232" y="353"/>
      <point x="241" y="354"/>
      <point x="253" y="354" type="curve" smooth="yes"/>
      <point x="348" y="354"/>
      <point x="393" y="309"/>
      <point x="393" y="214" type="curve" smooth="yes"/>
      <point x="393" y="115"/>
      <point x="345" y="63"/>
      <point x="253" y="63" type="curve" smooth="yes"/>
      <point x="242" y="63"/>
      <point x="228" y="65"/>
      <point x="218" y="67" type="curve"/>
    </contour>
  </outline>
</glyph>
<glyph name="ae" format="1">
  <advance width="729"/>
  <unicode hex="00E6"/>
  <outline>
    <contour>
      <point x="617" y="164" type="line"/>
      <point x="609" y="105"/>
      <point x="561" y="62"/>
      <point x="503" y="62" type="curve" smooth="yes"/>
      <point x="461" y="62"/>
      <point x="427" y="81"/>
      <point x="407" y="117" type="curve" smooth="yes"/>
      <point x="389" y="146"/>
      <point x="383" y="175"/>
      <point x="381" y="233" type="curve"/>
      <point x="695" y="233" type="line"/>
      <point x="691" y="336"/>
      <point x="683" y="386"/>
      <point x="658" y="437" type="curve" smooth="yes"/>
      <point x="625" y="506"/>
      <point x="577" y="538"/>
      <point x="508" y="538" type="curve" smooth="yes"/>
      <point x="448" y="538"/>
      <point x="414" y="520"/>
      <point x="367" y="464" type="curve"/>
      <point x="323" y="522"/>
      <point x="292" y="538"/>
      <point x="228" y="538" type="curve" smooth="yes"/>
      <point x="156" y="538"/>
      <point x="105" y="515"/>
      <point x="77" y="469" type="curve" smooth="yes"/>
      <point x="60" y="441"/>
      <point x="54" y="416"/>
      <point x="51" y="364" type="curve"/>
      <point x="117" y="364" type="line"/>
      <point x="128" y="438"/>
      <point x="155" y="465"/>
      <point x="218" y="465" type="curve" smooth="yes"/>
      <point x="283" y="465"/>
      <point x="317" y="435"/>
      <point x="317" y="378" type="curve" smooth="yes"/>
      <point x="317" y="340"/>
      <point x="306" y="322"/>
      <point x="279" y="318" type="curve" smooth="yes"/>
      <point x="160" y="300" type="line" smooth="yes"/>
      <point x="77" y="287"/>
      <point x="30" y="229"/>
      <point x="30" y="138" type="curve" smooth="yes"/>
      <point x="30" y="44"/>
      <point x="85" y="-15"/>
      <point x="171" y="-15" type="curve" smooth="yes"/>
      <point x="217" y="-15"/>
      <point x="260" y="2"/>
      <point x="293" y="32" type="curve" smooth="yes"/>
      <point x="309" y="48"/>
      <point x="320" y="62"/>
      <point x="339" y="94" type="curve"/>
      <point x="376" y="17"/>
      <point x="423" y="-15"/>
      <point x="500" y="-15" type="curve" smooth="yes"/>
      <point x="553" y="-15"/>
      <point x="591" y="-1"/>
      <point x="624" y="31" type="curve" smooth="yes"/>
      <point x="658" y="64"/>
      <point x="680" y="109"/>
      <point x="689" y="164" type="curve"/>
    </contour>
    <contour>
      <point x="381" y="303" type="line"/>
      <point x="386" y="397"/>
      <point x="435" y="460"/>
      <point x="504" y="460" type="curve" smooth="yes"/>
      <point x="541" y="460"/>
      <point x="573" y="442"/>
      <point x="592" y="410" type="curve" smooth="yes"/>
      <point x="609" y="383"/>
      <point x="616" y="357"/>
      <point x="620" y="303" type="curve"/>
    </contour>
    <contour>
      <point x="315" y="181" type="line" smooth="yes"/>
      <point x="315" y="115"/>
      <point x="254" y="58"/>
      <point x="182" y="58" type="curve" smooth="yes"/>
      <point x="133" y="58"/>
      <point x="105" y="90"/>
      <point x="105" y="146" type="curve" smooth="yes"/>
      <point x="105" y="197"/>
      <point x="132" y="223"/>
      <point x="197" y="234" type="curve" smooth="yes"/>
      <point x="279" y="248"/>
      <point x="301" y="253"/>
      <point x="315" y="267" type="curve"/>
    </contour>
  </outline>
</glyph>
<glyph name="ccedilla" format="1">
  <advance width="410"/>
  <unicode hex="00E7"/>
  <outline>
    <contour>
      <point x="216" y="-15" type="line"/>
      <point x="313" y="-16"/>
      <point x="378" y="58"/>
      <point x="391" y="185" type="curve"/>
      <point x="321" y="185" type="line"/>
      <point x="306" y="102"/>
      <point x="271" y="61"/>
      <point x="216" y="61" type="curve" smooth="yes"/>
      <point x="143" y="61"/>
      <point x="102" y="132"/>
      <point x="102" y="259" type="curve" smooth="yes"/>
      <point x="102" y="386"/>
      <point x="146" y="460"/>
      <point x="221" y="460" type="curve" smooth="yes"/>
      <point x="278" y="460"/>
      <point x="309" y="426"/>
      <point x="321" y="347" type="curve"/>
      <point x="391" y="347" type="line"/>
      <point x="378" y="475"/>
      <point x="324" y="538"/>
      <point x="228" y="538" type="curve" smooth="yes"/>
      <point x="104" y="538"/>
      <point x="25" y="427"/>
      <point x="25" y="252" type="curve" smooth="yes"/>
      <point x="25" y="108"/>
      <point x="83" y="9"/>
      <point x="179" y="-11" type="curve"/>
      <point x="134" y="-86" type="line"/>
      <point x="148" y="-105" type="line"/>
      <point x="164" y="-98"/>
      <point x="173" y="-96"/>
      <point x="179" y="-96" type="curve" smooth="yes"/>
      <point x="202" y="-96"/>
      <point x="219" y="-113"/>
      <point x="219" y="-136" type="curve" smooth="yes"/>
      <point x="219" y="-162"/>
      <point x="202" y="-178"/>
      <point x="172" y="-178" type="curve" smooth="yes"/>
      <point x="156" y="-178"/>
      <point x="144" y="-175"/>
      <point x="120" y="-163" type="curve"/>
      <point x="106" y="-203" type="line"/>
      <point x="138" y="-219"/>
      <point x="160" y="-225"/>
      <point x="185" y="-225" type="curve" smooth="yes"/>
      <point x="242" y="-225"/>
      <point x="281" y="-187"/>
      <point x="281" y="-133" type="curve" smooth="yes"/>
      <point x="281" y="-88"/>
      <point x="254" y="-58"/>
      <point x="213" y="-58" type="curve" smooth="yes"/>
      <point x="206" y="-58"/>
      <point x="199" y="-59"/>
      <point x="187" y="-62" type="curve"/>
    </contour>
  </outline>
</glyph>
<glyph name="eacute" format="1">
  <advance width="456"/>
  <unicode hex="00E9"/>
  <outline>
    <contour>
      <point x="345" y="164" type="line"/>
      <point x="338" y="105"/>
      <point x="290" y="62"/>
      <point x="232" y="62" type="curve" smooth="yes"/>
      <point x="190" y="62"/>
      <point x="156" y="81"/>
      <point x="135" y="117" type="curve" smooth="yes"/>
      <point x="118" y="146"/>
      <point x="112" y="174"/>
      <point x="110" y="233" type="curve"/>
      <point x="423" y="233" type="line"/>
      <point x="420" y="336"/>
      <point x="411" y="385"/>
      <point x="386" y="437" type="curve" smooth="yes"/>
      <point x="353" y="506"/>
      <point x="305" y="538"/>
      <point x="236" y="538" type="curve" smooth="yes"/>
      <point x="112" y="538"/>
      <point x="33" y="427"/>
      <point x="33" y="252" type="curve" smooth="yes"/>
      <point x="33" y="87"/>
      <point x="108" y="-15"/>
      <point x="230" y="-15" type="curve" smooth="yes"/>
      <point x="329" y="-15"/>
      <point x="398" y="51"/>
      <point x="417" y="164" type="curve"/>
    </contour>
    <contour>
      <point x="110" y="303" type="line"/>
      <point x="114" y="397"/>
      <point x="164" y="460"/>
      <point x="233" y="460" type="curve" smooth="yes"/>
      <point x="270" y="460"/>
      <point x="301" y="442"/>
      <point x="321" y="410" type="curve" smooth="yes"/>
      <point x="337" y="383"/>
      <point x="344" y="357"/>
      <point x="348" y="303" type="curve"/>
    </contour>
    <contour>
      <point x="354" y="734" type="line"/>
      <point x="265" y="734" type="line"/>
      <point x="192" y="593" type="line"/>
      <point x="247" y="593" type="line"/>
    </contour>
  </outline>
</glyph>
<glyph name="igrave" format="1">
  <advance width="228"/>
  <unicode hex="00EC"/>
  <outline>
    <contour>
      <point x="150" y="523" type="line"/>
      <point x="78" y="523" type="line"/>
      <point x="78" y="0" type="line"/>
      <point x="150" y="0" type="line"/>
    </contour>
    <contour>
      <point x="96" y="593" type="line"/>
      <point x="151" y="593" type="line"/>
      <point x="78" y="734" type="line"/>
      <point x="-11" y="734" type="line"/>
    </contour>
  </outline>
</glyph>
<glyph name="iacute" format="1">
  <advance width="228"/>
  <unicode hex="00ED"/>
  <outline>
    <contour>
      <point x="150" y="523" type="line"/>
      <point x="78" y="523" type="line"/>
      <point x="78" y="0" type="line"/>
      <point x="150" y="0" type="line"/>
    </contour>
    <contour>
      <point x="240" y="734" type="line"/>
      <point x="151" y="734" type="line"/>
      <point x="78" y="593" type="line"/>
      <point x="133" y="593" type="line"/>
    </contour>
  </outline>
</glyph>
<glyph name="icircumflex" format="1">
  <advance width="228"/>
  <unicode hex="00EE"/>
  <outline>
    <contour>
      <point x="150" y="523" type="line"/>
      <point x="78" y="523" type="line"/>
      <point x="78" y="0" type="line"/>
      <point x="150" y="0" type="line"/>
    </contour>
    <contour>
      <point x="114" y="686" type="line"/>
      <point x="168" y="593" type="line"/>
      <point x="234" y="593" type="line"/>
      <point x="153" y="734" type="line"/>
      <point x="76" y="734" type="line"/>
      <point x="-5" y="593" type="line"/>
      <point x="60" y="593" type="line"/>
    </contour>
  </outline>
</glyph>
<glyph name="idieresis" format="1">
  <advance width="228"/>
  <unicode hex="00EF"/>
  <outline>
    <contour>
      <point x="150" y="523" type="line"/>
      <point x="78" y="523" type="line"/>
      <point x="78" y="0" type="line"/>
      <point x="150" y="0" type="line"/>
    </contour>
    <contour>
      <point x="86" y="706" type="line"/>
      <point x="11" y="706" type="line"/>
      <point x="11" y="604" type="line"/>
      <point x="86" y="604" type="line"/>
    </contour>
    <contour>
      <point x="218" y="706" type="line"/>
      <point x="143" y="706" type="line"/>
      <point x="143" y="604" type="line"/>
      <point x="218" y="604" type="line"/>
    </contour>
  </outline>
</glyph>
<glyph name="eth" format="1">
  <advance width="456"/>
  <unicode hex="00F0"/>
  <outline>
    <contour>
      <point x="385" y="697" type="line"/>
      <point x="346" y="737" type="line"/>
      <point x="259" y="686" type="line"/>
      <point x="235" y="708"/>
      <point x="215" y="722"/>
      <point x="185" y="737" type="curve"/>
      <point x="124" y="701" type="line"/>
      <point x="152" y="686"/>
      <point x="173" y="671"/>
      <point x="197" y="649" type="curve"/>
      <point x="100" y="592" type="line"/>
      <point x="135" y="550" type="line"/>
      <point x="236" y="612" type="line"/>
      <point x="282" y="565"/>
      <point x="309" y="522"/>
      <point x="330" y="463" type="curve"/>
      <point x="293" y="508"/>
      <point x="265" y="523"/>
      <point x="219" y="523" type="curve" smooth="yes"/>
      <point x="109" y="523"/>
      <point x="29" y="409"/>
      <point x="29" y="253" type="curve" smooth="yes"/>
      <point x="29" y="96"/>
      <point x="112" y="-15"/>
      <point x="230" y="-15" type="curve" smooth="yes"/>
      <point x="351" y="-15"/>
      <point x="428" y="104"/>
      <point x="428" y="290" type="curve" smooth="yes"/>
      <point x="428" y="357"/>
      <point x="418" y="416"/>
      <point x="397" y="476" type="curve" smooth="yes"/>
      <point x="374" y="541"/>
      <point x="352" y="578"/>
      <point x="297" y="646" type="curve"/>
    </contour>
    <contour>
      <point x="230" y="446" type="curve" smooth="yes"/>
      <point x="301" y="446"/>
      <point x="353" y="366"/>
      <point x="353" y="254" type="curve" smooth="yes"/>
      <point x="353" y="213"/>
      <point x="343" y="164"/>
      <point x="327" y="132" type="curve" smooth="yes"/>
      <point x="305" y="85"/>
      <point x="272" y="62"/>
      <point x="228" y="62" type="curve" smooth="yes"/>
      <point x="189" y="62"/>
      <point x="158" y="81"/>
      <point x="135" y="121" type="curve" smooth="yes"/>
      <point x="116" y="154"/>
      <point x="104" y="207"/>
      <point x="104" y="254" type="curve" smooth="yes"/>
      <point x="104" y="296"/>
      <point x="114" y="344"/>
      <point x="130" y="376" type="curve" smooth="yes"/>
      <point x="153" y="423"/>
      <point x="185" y="446"/>
    </contour>
  </outline>
</glyph>
<glyph name="ntilde" format="1">
  <advance width="456"/>
  <unicode hex="00F1"/>
  <outline>
    <contour>
      <point x="121" y="523" type="line"/>
      <point x="53" y="523" type="line"/>
      <point x="53" y="0" type="line"/>
      <point x="125" y="0" type="line"/>
      <point x="125" y="285" type="line" smooth="yes"/>
      <point x="125" y="394"/>
      <point x="170" y="460"/>
      <point x="243" y="460" type="curve" smooth="yes"/>
      <point x="304" y="460"/>
      <point x="331" y="418"/>
      <point x="331" y="322" type="curve" smooth="yes"/>
      <point x="331" y="0" type="line"/>
      <point x="403" y="0" type="line"/>
      <point x="403" y="356" type="line" smooth="yes"/>
      <point x="403" y="471"/>
      <point x="349" y="538"/>
      <point x="258" y="538" type="curve" smooth="yes"/>
      <point x="199" y="538"/>
      <point x="158" y="511"/>
      <point x="121" y="446" type="curve"/>
    </contour>
    <contour>
      <point x="318" y="722" type="line"/>
      <point x="312" y="689"/>
      <point x="301" y="676"/>
      <point x="280" y="676" type="curve" smooth="yes"/>
      <point x="270" y="676"/>
      <point x="255" y="681"/>
      <point x="239" y="689" type="curve" smooth="yes"/>
      <point x="221" y="698" type="line" smooth="yes"/>
      <point x="202" y="708"/>
      <point x="182" y="713"/>
      <point x="165" y="713" type="curve" smooth="yes"/>
      <point x="117" y="713"/>
      <point x="90" y="680"/>
      <point x="80" y="606" type="curve"/>
      <point x="119" y="606" type="line"/>
      <point x="128" y="638"/>
      <point x="138" y="650"/>
      <point x="157" y="650" type="curve" smooth="yes"/>
      <point x="168" y="650"/>
      <point x="183" y="646"/>
      <point x="208" y="635" type="curve" smooth="yes"/>
      <point x="229" y="626" type="line" smooth="yes"/>
      <point x="251" y="617"/>
      <point x="264" y="613"/>
      <point x="276" y="613" type="curve" smooth="yes"/>
      <point x="321" y="613"/>
      <point x="349" y="650"/>
      <point x="359" y="722" type="curve"/>
    </contour>
  </outline>
</glyph>
<glyph name="ograve" format="1">
  <advance width="456"/>
  <unicode hex="00F2"/>
  <outline>
    <contour>
      <point x="231" y="538" type="curve" smooth="yes"/>
      <point x="110" y="538"/>
      <point x="29" y="427"/>
      <point x="29" y="262" type="curve" smooth="yes"/>
      <point x="29" y="99"/>
      <point x="111" y="-14"/>
      <point x="228" y="-14" type="curve" smooth="yes"/>
      <point x="346" y="-14"/>
      <point x="427" y="99"/>
      <point x="427" y="262" type="curve" smooth="yes"/>
      <point x="427" y="423"/>
      <point x="346" y="538"/>
    </contour>
    <contour>
      <point x="230" y="461" type="curve" smooth="yes"/>
      <point x="303" y="461"/>
      <point x="352" y="382"/>
      <point x="352" y="262" type="curve" smooth="yes"/>
      <point x="352" y="141"/>
      <point x="303" y="63"/>
      <point x="228" y="63" type="curve" smooth="yes"/>
      <point x="153" y="63"/>
      <point x="104" y="141"/>
      <point x="104" y="262" type="curve" smooth="yes"/>
      <point x="104" y="384"/>
      <point x="152" y="461"/>
    </contour>
    <contour>
      <point x="211" y="593" type="line"/>
      <point x="266" y="593" type="line"/>
      <point x="193" y="734" type="line"/>
      <point x="104" y="734" type="line"/>
    </contour>
  </outline>
</glyph>
<glyph name="otilde" format="1">
  <advance width="456"/>
  <unicode hex="00F5"/>
  <outline>
    <contour>
      <point x="231" y="538" type="curve" smooth="yes"/>
      <point x="110" y="538"/>
      <point x="29" y="427"/>
      <point x="29" y="262" type="curve" smooth="yes"/>
      <point x="29" y="99"/>
      <point x="111" y="-14"/>
      <point x="228" y="-14" type="curve" smooth="yes"/>
      <point x="346" y="-14"/>
      <point x="427" y="99"/>
      <point x="427" y="262" type="curve" smooth="yes"/>
      <point x="427" y="423"/>
      <point x="346" y="538"/>
    </contour>
    <contour>
      <point x="230" y="461" type="curve" smooth="yes"/>
      <point x="303" y="461"/>
      <point x="352" y="382"/>
      <point x="352" y="262" type="curve" smooth="yes"/>
      <point x="352" y="141"/>
      <point x="303" y="63"/>
      <point x="228" y="63" type="curve" smooth="yes"/>
      <point x="153" y="63"/>
      <point x="104" y="141"/>
      <point x="104" y="262" type="curve" smooth="yes"/>
      <point x="104" y="384"/>
      <point x="152" y="461"/>
    </contour>
    <contour>
      <point x="327" y="722" type="line"/>
      <point x="321" y="689"/>
      <point x="310" y="676"/>
      <point x="289" y="676" type="curve" smooth="yes"/>
      <point x="279" y="676"/>
      <point x="264" y="681"/>
      <point x="248" y="689" type="curve" smooth="yes"/>
      <point x="230" y="698" type="line" smooth="yes"/>
      <point x="211" y="708"/>
      <point x="191" y="713"/>
      <point x="174" y="713" type="curve" smooth="yes"/>
      <point x="126" y="713"/>
      <point x="99" y="680"/>
      <point x="89" y="606" type="curve"/>
      <point x="128" y="606" type="line"/>
      <point x="137" y="638"/>
      <point x="147" y="650"/>
      <point x="166" y="650" type="curve" smooth="yes"/>
      <point x="177" y="650"/>
      <point x="192" y="646"/>
      <point x="217" y="635" type="curve" smooth="yes"/>
      <point x="238" y="626" type="line" smooth="yes"/>
      <point x="260" y="617"/>
      <point x="273" y="613"/>
      <point x="285" y="613" type="curve" smooth="yes"/>
      <point x="330" y="613"/>
      <point x="358" y="650"/>
      <point x="368" y="722" type="curve"/>
    </contour>
  </outline>
</glyph>
<glyph name="divide" format="1">
  <advance width="479"/>
  <unicode hex="00F7"/>
  <outline>
    <contour>
      <point x="447" y="216" type="line"/>
      <point x="447" y="289" type="line"/>
      <point x="32" y="289" type="line"/>
      <point x="32" y="216" type="line"/>
    </contour>
    <contour>
      <point x="241" y="524" type="curve" smooth="yes"/>
      <point x="210" y="524"/>
      <point x="184" y="493"/>
      <point x="184" y="456" type="curve" smooth="yes"/>
      <point x="184" y="420"/>
      <point x="210" y="388"/>
      <point x="240" y="388" type="curve" smooth="yes"/>
      <point x="269" y="388"/>
      <point x="296" y="421"/>
      <point x="296" y="456" type="curve" smooth="yes"/>
      <point x="296" y="492"/>
      <point x="270" y="524"/>
    </contour>
    <contour>
      <point x="241" y="117" type="curve" smooth="yes"/>
      <point x="210" y="117"/>
      <point x="184" y="86"/>
      <point x="184" y="49" type="curve" smooth="yes"/>
      <point x="184" y="13"/>
      <point x="210" y="-19"/>
      <point x="240" y="-19" type="curve" smooth="yes"/>
      <point x="269" y="-19"/>
      <point x="296" y="14"/>
      <point x="296" y="50" type="curve" smooth="yes"/>
      <point x="296" y="85"/>
      <point x="270" y="117"/>
    </contour>
  </outline>
</glyph>
<glyph name="oslash" format="1">
  <advance width="501"/>
  <unicode hex="00F8"/>
  <outline>
    <contour>
      <point x="440" y="519" type="line"/>
      <point x="415" y="545" type="line"/>
      <point x="362" y="473" type="line"/>
      <point x="322" y="519"/>
      <point x="283" y="538"/>
      <point x="229" y="538" type="curve" smooth="yes"/>
      <point x="110" y="538"/>
      <point x="29" y="426"/>
      <point x="29" y="262" type="curve" smooth="yes"/>
      <point x="29" y="191"/>
      <point x="43" y="135"/>
      <point x="75" y="76" type="curve"/>
      <point x="23" y="4" type="line"/>
      <point x="48" y="-22" type="line"/>
      <point x="98" y="46" type="line"/>
      <point x="137" y="4"/>
      <point x="175" y="-14"/>
      <point x="227" y="-14" type="curve" smooth="yes"/>
      <point x="345" y="-14"/>
      <point x="427" y="98"/>
      <point x="427" y="261" type="curve" smooth="yes"/>
      <point x="427" y="331"/>
      <point x="414" y="383"/>
      <point x="383" y="441" type="curve"/>
    </contour>
    <contour>
      <point x="124" y="143" type="line"/>
      <point x="110" y="183"/>
      <point x="104" y="220"/>
      <point x="104" y="262" type="curve" smooth="yes"/>
      <point x="104" y="383"/>
      <point x="153" y="461"/>
      <point x="228" y="461" type="curve" smooth="yes"/>
      <point x="266" y="461"/>
      <point x="292" y="446"/>
      <point x="317" y="410" type="curve"/>
    </contour>
    <contour>
      <point x="334" y="373" type="line"/>
      <point x="347" y="335"/>
      <point x="352" y="303"/>
      <point x="352" y="262" type="curve" smooth="yes"/>
      <point x="352" y="141"/>
      <point x="303" y="63"/>
      <point x="227" y="63" type="curve" smooth="yes"/>
      <point x="192" y="63"/>
      <point x="166" y="77"/>
      <point x="143" y="108" type="curve"/>
    </contour>
  </outline>
</glyph>
<glyph name="ugrave" format="1">
  <advance width="456"/>
  <unicode hex="00F9"/>
  <outline>
    <contour>
      <point x="401" y="0" type="line"/>
      <point x="401" y="523" type="line"/>
      <point x="329" y="523" type="line"/>
      <point x="329" y="235" type="line" smooth="yes"/>
      <point x="329" y="129"/>
      <point x="283" y="62"/>
      <point x="211" y="62" type="curve" smooth="yes"/>
      <point x="156" y="62"/>
      <point x="128" y="101"/>
      <point x="128" y="176" type="curve" smooth="yes"/>
      <point x="128" y="523" type="line"/>
      <point x="56" y="523" type="line"/>
      <point x="56" y="147" type="line" smooth="yes"/>
      <point x="56" y="45"/>
      <point x="109" y="-15"/>
      <point x="197" y="-15" type="curve" smooth="yes"/>
      <point x="261" y="-15"/>
      <point x="295" y="9"/>
      <point x="333" y="81" type="curve"/>
      <point x="333" y="0" type="line"/>
    </contour>
    <contour>
      <point x="211" y="593" type="line"/>
      <point x="266" y="593" type="line"/>
      <point x="193" y="734" type="line"/>
      <point x="104" y="734" type="line"/>
    </contour>
  </outline>
</glyph>
<glyph name="udieresis" format="1">
  <advance width="456"/>
  <unicode hex="00FC"/>
  <outline>
    <contour>
      <point x="401" y="0" type="line"/>
      <point x="401" y="523" type="line"/>
      <point x="329" y="523" type="line"/>
      <point x="329" y="235" type="line" smooth="yes"/>
      <point x="329" y="129"/>
      <point x="283" y="62"/>
      <point x="211" y="62" type="curve" smooth="yes"/>
      <point x="156" y="62"/>
      <point x="128" y="101"/>
      <point x="128" y="176" type="curve" smooth="yes"/>
      <point x="128" y="523" type="line"/>
      <point x="56" y="523" type="line"/>
      <point x="56" y="147" type="line" smooth="yes"/>
      <point x="56" y="45"/>
      <point x="109" y="-15"/>
      <point x="197" y="-15" type="curve" smooth="yes"/>
      <point x="261" y="-15"/>
      <point x="295" y="9"/>
      <point x="333" y="81" type="curve"/>
      <point x="333" y="0" type="line"/>
    </contour>
    <contour>
      <point x="200" y="706" type="line"/>
      <point x="125" y="706" type="line"/>
      <point x="125" y="604" type="line"/>
      <point x="200" y="604" type="line"/>
    </contour>
    <contour>
      <point x="332" y="706" type="line"/>
      <point x="257" y="706" type="line"/>
      <point x="257" y="604" type="line"/>
      <point x="332" y="604" type="line"/>
    </contour>
  </outline>
</glyph>
<glyph name="thorn" format="1">
  <advance width="456"/>
  <unicode hex="00FE"/>
  <outline>
    <contour>
      <point x="48" y="-207" type="line"/>
      <point x="120" y="-207" type="line"/>
      <point x="120" y="58" type="line"/>
      <point x="149" y="7"/>
      <point x="184" y="-15"/>
      <point x="237" y="-15" type="curve" smooth="yes"/>
      <point x="350" y="-15"/>
      <point x="424" y="100"/>
      <point x="424" y="274" type="curve" smooth="yes"/>
      <point x="424" y="433"/>
      <point x="353" y="538"/>
      <point x="246" y="538" type="curve" smooth="yes"/>
      <point x="189" y="538"/>
      <point x="155" y="513"/>
      <point x="120" y="448" type="curve"/>
      <point x="120" y="718" type="line"/>
      <point x="48" y="718" type="line"/>
    </contour>
    <contour>
      <point x="235" y="460" type="curve" smooth="yes"/>
      <point x="309" y="460"/>
      <point x="349" y="394"/>
      <point x="349" y="271" type="curve" smooth="yes"/>
      <point x="349" y="139"/>
      <point x="307" y="62"/>
      <point x="234" y="62" type="curve" smooth="yes"/>
      <point x="162" y="62"/>
      <point x="117" y="131"/>
      <point x="117" y="244" type="curve" smooth="yes"/>
      <point x="117" y="387"/>
      <point x="157" y="460"/>
    </contour>
  </outline>
</glyph>
<glyph name="Amacron" format="1">
  <advance width="547"/>
  <unicode hex="0100"/>
  <outline>
    <contour>
      <point x="391" y="209" type="line"/>
      <point x="449" y="0" type="line"/>
      <point x="536" y="0" type="line"/>
      <point x="323" y="718" type="line"/>
      <point x="232" y="718" type="line"/>
      <point x="11" y="0" type="line"/>
      <point x="93" y="0" type="line"/>
      <point x="155" y="209" type="line"/>
    </contour>
    <contour>
      <point x="179" y="296" type="line"/>
      <point x="274" y="614" type="line"/>
      <point x="362" y="296" type="line"/>
    </contour>
    <contour>
      <point x="402" y="879" type="line"/>
      <point x="145" y="879" type="line"/>
      <point x="145" y="822" type="line"/>
      <point x="402" y="822" type="line"/>
    </contour>
  </outline>
</glyph>
<glyph name="Abreve" format="1">
  <advance width="547"/>
  <unicode hex="0102"/>
  <outline>
    <contour>
      <point x="391" y="209" type="line"/>
      <point x="449" y="0" type="line"/>
      <point x="536" y="0" type="line"/>
      <point x="323" y="718" type="line"/>
      <point x="232" y="718" type="line"/>
      <point x="11" y="0" type="line"/>
      <point x="93" y="0" type="line"/>
      <point x="155" y="209" type="line"/>
    </contour>
    <contour>
      <point x="179" y="296" type="line"/>
      <point x="274" y="614" type="line"/>
      <point x="362" y="296" type="line"/>
    </contour>
    <contour>
      <point x="361" y="926" type="line"/>
      <point x="346" y="867"/>
      <point x="325" y="847"/>
      <point x="276" y="847" type="curve" smooth="yes"/>
      <point x="229" y="847"/>
      <point x="203" y="869"/>
      <point x="190" y="919" type="curve" smooth="yes"/>
      <point x="188" y="926" type="line"/>
      <point x="148" y="926" type="line"/>
      <point x="158" y="832"/>
      <point x="196" y="790"/>
      <point x="271" y="790" type="curve" smooth="yes"/>
      <point x="349" y="790"/>
      <point x="388" y="832"/>
      <point x="400" y="926" type="curve"/>
    </contour>
  </outline>
</glyph>
<glyph name="Aogonek" format="1">
  <advance width="547"/>
  <unicode hex="0104"/>
  <outline>
    <contour>
      <point x="391" y="209" type="line"/>
      <point x="449" y="0" type="line"/>
      <point x="481" y="0" type="line"/>
      <point x="452" y="-13"/>
      <point x="444" y="-17"/>
      <point x="431" y="-31" type="curve" smooth="yes"/>
      <point x="406" y="-57"/>
      <point x="392" y="-95"/>
      <point x="392" y="-133" type="curve" smooth="yes"/>
      <point x="392" y="-187"/>
      <point x="431" y="-225"/>
      <point x="487" y="-225" type="curve" smooth="yes"/>
      <point x="512" y="-225"/>
      <point x="537" y="-218"/>
      <point x="567" y="-203" type="curve"/>
      <point x="553" y="-163" type="line"/>
      <point x="528" y="-175"/>
      <point x="517" y="-178"/>
      <point x="501" y="-178" type="curve" smooth="yes"/>
      <point x="469" y="-178"/>
      <point x="454" y="-161"/>
      <point x="454" y="-124" type="curve" smooth="yes"/>
      <point x="454" y="-74"/>
      <point x="471" y="-49"/>
      <point x="536" y="-4" type="curve"/>
      <point x="536" y="0" type="line"/>
      <point x="323" y="718" type="line"/>
      <point x="232" y="718" type="line"/>
      <point x="11" y="0" type="line"/>
      <point x="93" y="0" type="line"/>
      <point x="155" y="209" type="line"/>
    </contour>
    <contour>
      <point x="179" y="296" type="line"/>
      <point x="274" y="614" type="line"/>
      <point x="362" y="296" type="line"/>
    </contour>
  </outline>
</glyph>
<glyph name="aogonek" format="1">
  <advance width="456"/>
  <unicode hex="0105"/>
  <outline>
    <contour>
      <point x="435" y="64" type="line"/>
      <point x="420" y="61"/>
      <point x="416" y="60"/>
      <point x="410" y="60" type="curve" smooth="yes"/>
      <point x="395" y="60"/>
      <point x="387" y="71"/>
      <point x="387" y="91" type="curve" smooth="yes"/>
      <point x="387" y="392" type="line" smooth="yes"/>
      <point x="387" y="483"/>
      <point x="325" y="538"/>
      <point x="223" y="538" type="curve" smooth="yes"/>
      <point x="156" y="538"/>
      <point x="105" y="514"/>
      <point x="77" y="469" type="curve" smooth="yes"/>
      <point x="60" y="441"/>
      <point x="54" y="416"/>
      <point x="51" y="364" type="curve"/>
      <point x="117" y="364" type="line"/>
      <point x="127" y="437"/>
      <point x="155" y="465"/>
      <point x="218" y="465" type="curve" smooth="yes"/>
      <point x="283" y="465"/>
      <point x="317" y="435"/>
      <point x="317" y="378" type="curve" smooth="yes"/>
      <point x="317" y="340"/>
      <point x="306" y="322"/>
      <point x="279" y="318" type="curve" smooth="yes"/>
      <point x="160" y="300" type="line" smooth="yes"/>
      <point x="77" y="287"/>
      <point x="30" y="229"/>
      <point x="30" y="138" type="curve" smooth="yes"/>
      <point x="30" y="46"/>
      <point x="84" y="-15"/>
      <point x="167" y="-15" type="curve" smooth="yes"/>
      <point x="228" y="-15"/>
      <point x="272" y="10"/>
      <point x="319" y="70" type="curve"/>
      <point x="322" y="25"/>
      <point x="335" y="3"/>
      <point x="366" y="-6" type="curve"/>
      <point x="319" y="-28"/>
      <point x="291" y="-76"/>
      <point x="291" y="-133" type="curve" smooth="yes"/>
      <point x="291" y="-187"/>
      <point x="330" y="-225"/>
      <point x="386" y="-225" type="curve" smooth="yes"/>
      <point x="411" y="-225"/>
      <point x="436" y="-218"/>
      <point x="466" y="-203" type="curve"/>
      <point x="452" y="-163" type="line"/>
      <point x="427" y="-175"/>
      <point x="416" y="-178"/>
      <point x="400" y="-178" type="curve" smooth="yes"/>
      <point x="368" y="-178"/>
      <point x="353" y="-161"/>
      <point x="353" y="-124" type="curve" smooth="yes"/>
      <point x="353" y="-74"/>
      <point x="370" y="-49"/>
      <point x="435" y="-4" type="curve"/>
    </contour>
    <contour>
      <point x="315" y="181" type="line" smooth="yes"/>
      <point x="315" y="115"/>
      <point x="254" y="58"/>
      <point x="182" y="58" type="curve" smooth="yes"/>
      <point x="133" y="58"/>
      <point x="105" y="90"/>
      <point x="105" y="146" type="curve" smooth="yes"/>
      <point x="105" y="198"/>
      <point x="131" y="223"/>
      <point x="197" y="234" type="curve" smooth="yes"/>
      <point x="279" y="248"/>
      <point x="300" y="253"/>
      <point x="315" y="267" type="curve"/>
    </contour>
  </outline>
</glyph>
<glyph name="cacute" format="1">
  <advance width="410"/>
  <unicode hex="0107"/>
  <outline>
    <contour>
      <point x="391" y="347" type="line"/>
      <point x="378" y="475"/>
      <point x="324" y="538"/>
      <point x="228" y="538" type="curve" smooth="yes"/>
      <point x="104" y="538"/>
      <point x="25" y="427"/>
      <point x="25" y="252" type="curve" smooth="yes"/>
      <point x="25" y="89"/>
      <point x="100" y="-15"/>
      <point x="217" y="-15" type="curve" smooth="yes"/>
      <point x="315" y="-15"/>
      <point x="374" y="52"/>
      <point x="391" y="185" type="curve"/>
      <point x="321" y="185" type="line"/>
      <point x="306" y="103"/>
      <point x="271" y="62"/>
      <point x="216" y="62" type="curve" smooth="yes"/>
      <point x="143" y="62"/>
      <point x="102" y="133"/>
      <point x="102" y="259" type="curve" smooth="yes"/>
      <point x="102" y="386"/>
      <point x="146" y="460"/>
      <point x="221" y="460" type="curve" smooth="yes"/>
      <point x="278" y="460"/>
      <point x="309" y="426"/>
      <point x="321" y="347" type="curve"/>
    </contour>
    <contour>
      <point x="351" y="734" type="line"/>
      <point x="262" y="734" type="line"/>
      <point x="189" y="593" type="line"/>
      <point x="244" y="593" type="line"/>
    </contour>
  </outline>
</glyph>
<glyph name="Dcaron" format="1">
  <advance width="592"/>
  <unicode hex="010E"/>
  <outline>
    <contour>
      <point x="66" y="0" type="line"/>
      <point x="302" y="0" type="line" smooth="yes"/>
      <point x="370" y="0"/>
      <point x="429" y="27"/>
      <point x="469" y="77" type="curve" smooth="yes"/>
      <point x="523" y="146"/>
      <point x="553" y="248"/>
      <point x="553" y="367" type="curve" smooth="yes"/>
      <point x="553" y="580"/>
      <point x="456" y="718"/>
      <point x="305" y="718" type="curve" smooth="yes"/>
      <point x="66" y="718" type="line"/>
    </contour>
    <contour>
      <point x="146" y="635" type="line"/>
      <point x="295" y="635" type="line" smooth="yes"/>
      <point x="408" y="635"/>
      <point x="471" y="537"/>
      <point x="471" y="359" type="curve" smooth="yes"/>
      <point x="471" y="188"/>
      <point x="406" y="83"/>
      <point x="300" y="83" type="curve" smooth="yes"/>
      <point x="146" y="83" type="line"/>
    </contour>
    <contour>
      <point x="242" y="929" type="line"/>
      <point x="177" y="929" type="line"/>
      <point x="258" y="788" type="line"/>
      <point x="335" y="788" type="line"/>
      <point x="416" y="929" type="line"/>
      <point x="350" y="929" type="line"/>
      <point x="296" y="836" type="line"/>
    </contour>
  </outline>
</glyph>
<glyph name="Dcroat" format="1">
  <advance width="592"/>
  <unicode hex="0110"/>
  <outline>
    <contour>
      <point x="0" y="325" type="line"/>
      <point x="66" y="325" type="line"/>
      <point x="66" y="0" type="line"/>
      <point x="302" y="0" type="line" smooth="yes"/>
      <point x="387" y="0"/>
      <point x="450" y="38"/>
      <point x="495" y="114" type="curve" smooth="yes"/>
      <point x="531" y="178"/>
      <point x="553" y="273"/>
      <point x="553" y="372" type="curve" smooth="yes"/>
      <point x="553" y="580"/>
      <point x="455" y="718"/>
      <point x="306" y="718" type="curve" smooth="yes"/>
      <point x="66" y="718" type="line"/>
      <point x="66" y="412" type="line"/>
      <point x="0" y="412" type="line"/>
    </contour>
    <contour>
      <point x="304" y="412" type="line"/>
      <point x="146" y="412" type="line"/>
      <point x="146" y="635" type="line"/>
      <point x="295" y="635" type="line" smooth="yes"/>
      <point x="408" y="635"/>
      <point x="471" y="537"/>
      <point x="471" y="359" type="curve" smooth="yes"/>
      <point x="471" y="188"/>
      <point x="406" y="83"/>
      <point x="301" y="83" type="curve" smooth="yes"/>
      <point x="146" y="83" type="line"/>
      <point x="146" y="325" type="line"/>
      <point x="304" y="325" type="line"/>
    </contour>
  </outline>
</glyph>
<glyph name="dcroat" format="1">
  <advance width="456"/>
  <unicode hex="0111"/>
  <outline>
    <contour>
      <point x="409" y="653" type="line"/>
      <point x="409" y="718" type="line"/>
      <point x="337" y="718" type="line"/>
      <point x="337" y="653" type="line"/>
      <point x="200" y="653" type="line"/>
      <point x="200" y="600" type="line"/>
      <point x="337" y="600" type="line"/>
      <point x="337" y="444" type="line"/>
      <point x="303" y="511"/>
      <point x="264" y="538"/>
      <point x="206" y="538" type="curve" smooth="yes"/>
      <point x="100" y="538"/>
      <point x="29" y="432"/>
      <point x="29" y="274" type="curve" smooth="yes"/>
      <point x="29" y="99"/>
      <point x="103" y="-15"/>
      <point x="217" y="-15" type="curve" smooth="yes"/>
      <point x="275" y="-15"/>
      <point x="310" y="10"/>
      <point x="341" y="75" type="curve"/>
      <point x="341" y="0" type="line"/>
      <point x="409" y="0" type="line"/>
      <point x="409" y="600" type="line"/>
      <point x="456" y="600" type="line"/>
      <point x="456" y="653" type="line"/>
    </contour>
    <contour>
      <point x="221" y="460" type="curve" smooth="yes"/>
      <point x="295" y="460"/>
      <point x="336" y="385"/>
      <point x="336" y="248" type="curve" smooth="yes"/>
      <point x="336" y="181"/>
      <point x="324" y="135"/>
      <point x="298" y="102" type="curve" smooth="yes"/>
      <point x="278" y="77"/>
      <point x="249" y="62"/>
      <point x="218" y="62" type="curve" smooth="yes"/>
      <point x="146" y="62"/>
      <point x="104" y="138"/>
      <point x="104" y="269" type="curve" smooth="yes"/>
      <point x="104" y="397"/>
      <point x="142" y="460"/>
    </contour>
  </outline>
</glyph>
<glyph name="Emacron" format="1">
  <advance width="547"/>
  <unicode hex="0112"/>
  <outline>
    <contour>
      <point x="505" y="87" type="line"/>
      <point x="151" y="87" type="line"/>
      <point x="151" y="325" type="line"/>
      <point x="472" y="325" type="line"/>
      <point x="472" y="412" type="line"/>
      <point x="151" y="412" type="line"/>
      <point x="151" y="631" type="line"/>
      <point x="499" y="631" type="line"/>
      <point x="499" y="718" type="line"/>
      <point x="71" y="718" type="line"/>
      <point x="71" y="0" type="line"/>
      <point x="505" y="0" type="line"/>
    </contour>
    <contour>
      <point x="412" y="879" type="line"/>
      <point x="155" y="879" type="line"/>
      <point x="155" y="822" type="line"/>
      <point x="412" y="822" type="line"/>
    </contour>
  </outline>
</glyph>
<glyph name="Eogonek" format="1">
  <advance width="547"/>
  <unicode hex="0118"/>
  <outline>
    <contour>
      <point x="499" y="718" type="line"/>
      <point x="71" y="718" type="line"/>
      <point x="71" y="0" type="line"/>
      <point x="450" y="0" type="line"/>
      <point x="421" y="-13"/>
      <point x="413" y="-17"/>
      <point x="400" y="-31" type="curve" smooth="yes"/>
      <point x="375" y="-57"/>
      <point x="361" y="-95"/>
      <point x="361" y="-133" type="curve" smooth="yes"/>
      <point x="361" y="-187"/>
      <point x="400" y="-225"/>
      <point x="456" y="-225" type="curve" smooth="yes"/>
      <point x="481" y="-225"/>
      <point x="506" y="-218"/>
      <point x="536" y="-203" type="curve"/>
      <point x="522" y="-163" type="line"/>
      <point x="497" y="-175"/>
      <point x="486" y="-178"/>
      <point x="470" y="-178" type="curve" smooth="yes"/>
      <point x="438" y="-178"/>
      <point x="423" y="-161"/>
      <point x="423" y="-124" type="curve" smooth="yes"/>
      <point x="423" y="-74"/>
      <point x="440" y="-49"/>
      <point x="505" y="-4" type="curve"/>
      <point x="505" y="87" type="line"/>
      <point x="151" y="87" type="line"/>
      <point x="151" y="325" type="line"/>
      <point x="472" y="325" type="line"/>
      <point x="472" y="412" type="line"/>
      <point x="151" y="412" type="line"/>
      <point x="151" y="631" type="line"/>
      <point x="499" y="631" type="line"/>
    </contour>
  </outline>
</glyph>
<glyph name="eogonek" format="1">
  <advance width="456"/>
  <unicode hex="0119"/>
  <outline>
    <contour>
      <point x="373" y="-163" type="line"/>
      <point x="348" y="-175"/>
      <point x="337" y="-178"/>
      <point x="320" y="-178" type="curve" smooth="yes"/>
      <point x="289" y="-178"/>
      <point x="273" y="-161"/>
      <point x="273" y="-126" type="curve" smooth="yes"/>
      <point x="273" y="-78"/>
      <point x="300" y="-26"/>
      <point x="360" y="46" type="curve" smooth="yes"/>
      <point x="401" y="93"/>
      <point x="407" y="106"/>
      <point x="417" y="164" type="curve"/>
      <point x="345" y="164" type="line"/>
      <point x="338" y="105"/>
      <point x="290" y="62"/>
      <point x="232" y="62" type="curve" smooth="yes"/>
      <point x="190" y="62"/>
      <point x="156" y="81"/>
      <point x="135" y="117" type="curve" smooth="yes"/>
      <point x="118" y="146"/>
      <point x="112" y="174"/>
      <point x="110" y="233" type="curve"/>
      <point x="423" y="233" type="line"/>
      <point x="420" y="336"/>
      <point x="411" y="385"/>
      <point x="386" y="437" type="curve" smooth="yes"/>
      <point x="353" y="506"/>
      <point x="305" y="538"/>
      <point x="236" y="538" type="curve" smooth="yes"/>
      <point x="112" y="538"/>
      <point x="33" y="427"/>
      <point x="33" y="252" type="curve" smooth="yes"/>
      <point x="33" y="86"/>
      <point x="108" y="-15"/>
      <point x="230" y="-15" type="curve" smooth="yes"/>
      <point x="246" y="-15"/>
      <point x="261" y="-13"/>
      <point x="279" y="-9" type="curve"/>
      <point x="238" y="-31"/>
      <point x="211" y="-79"/>
      <point x="211" y="-133" type="curve" smooth="yes"/>
      <point x="211" y="-187"/>
      <point x="250" y="-225"/>
      <point x="306" y="-225" type="curve" smooth="yes"/>
      <point x="331" y="-225"/>
      <point x="356" y="-218"/>
      <point x="387" y="-203" type="curve"/>
    </contour>
    <contour>
      <point x="110" y="303" type="line"/>
      <point x="114" y="397"/>
      <point x="164" y="460"/>
      <point x="233" y="460" type="curve" smooth="yes"/>
      <point x="270" y="460"/>
      <point x="301" y="442"/>
      <point x="321" y="410" type="curve" smooth="yes"/>
      <point x="337" y="383"/>
      <point x="344" y="357"/>
      <point x="348" y="303" type="curve"/>
    </contour>
  </outline>
</glyph>
<glyph name="Ecaron" format="1">
  <advance width="547"/>
  <unicode hex="011A"/>
  <outline>
    <contour>
      <point x="505" y="87" type="line"/>
      <point x="151" y="87" type="line"/>
      <point x="151" y="325" type="line"/>
      <point x="472" y="325" type="line"/>
      <point x="472" y="412" type="line"/>
      <point x="151" y="412" type="line"/>
      <point x="151" y="631" type="line"/>
      <point x="499" y="631" type="line"/>
      <point x="499" y="718" type="line"/>
      <point x="71" y="718" type="line"/>
      <point x="71" y="0" type="line"/>
      <point x="505" y="0" type="line"/>
    </contour>
    <contour>
      <point x="219" y="929" type="line"/>
      <point x="154" y="929" type="line"/>
      <point x="235" y="788" type="line"/>
      <point x="312" y="788" type="line"/>
      <point x="393" y="929" type="line"/>
      <point x="327" y="929" type="line"/>
      <point x="273" y="836" type="line"/>
    </contour>
  </outline>
</glyph>
<glyph name="ecaron" format="1">
  <advance width="456"/>
  <unicode hex="011B"/>
  <outline>
    <contour>
      <point x="345" y="164" type="line"/>
      <point x="338" y="105"/>
      <point x="290" y="62"/>
      <point x="232" y="62" type="curve" smooth="yes"/>
      <point x="190" y="62"/>
      <point x="156" y="81"/>
      <point x="135" y="117" type="curve" smooth="yes"/>
      <point x="118" y="146"/>
      <point x="112" y="174"/>
      <point x="110" y="233" type="curve"/>
      <point x="423" y="233" type="line"/>
      <point x="420" y="336"/>
      <point x="411" y="385"/>
      <point x="386" y="437" type="curve" smooth="yes"/>
      <point x="353" y="506"/>
      <point x="305" y="538"/>
      <point x="236" y="538" type="curve" smooth="yes"/>
      <point x="112" y="538"/>
      <point x="33" y="427"/>
      <point x="33" y="252" type="curve" smooth="yes"/>
      <point x="33" y="87"/>
      <point x="108" y="-15"/>
      <point x="230" y="-15" type="curve" smooth="yes"/>
      <point x="329" y="-15"/>
      <point x="398" y="51"/>
      <point x="417" y="164" type="curve"/>
    </contour>
    <contour>
      <point x="110" y="303" type="line"/>
      <point x="114" y="397"/>
      <point x="164" y="460"/>
      <point x="233" y="460" type="curve" smooth="yes"/>
      <point x="270" y="460"/>
      <point x="301" y="442"/>
      <point x="321" y="410" type="curve" smooth="yes"/>
      <point x="337" y="383"/>
      <point x="344" y="357"/>
      <point x="348" y="303" type="curve"/>
    </contour>
    <contour>
      <point x="174" y="734" type="line"/>
      <point x="109" y="734" type="line"/>
      <point x="190" y="593" type="line"/>
      <point x="267" y="593" type="line"/>
      <point x="348" y="734" type="line"/>
      <point x="282" y="734" type="line"/>
      <point x="228" y="641" type="line"/>
    </contour>
  </outline>
</glyph>
<glyph name="Gbreve" format="1">
  <advance width="638"/>
  <unicode hex="011E"/>
  <outline>
    <contour>
      <point x="319" y="301" type="line"/>
      <point x="502" y="301" type="line"/>
      <point x="501" y="215"/>
      <point x="488" y="171"/>
      <point x="455" y="129" type="curve" smooth="yes"/>
      <point x="420" y="86"/>
      <point x="375" y="64"/>
      <point x="320" y="64" type="curve" smooth="yes"/>
      <point x="190" y="64"/>
      <point x="121" y="165"/>
      <point x="121" y="353" type="curve" smooth="yes"/>
      <point x="121" y="535"/>
      <point x="197" y="650"/>
      <point x="318" y="650" type="curve" smooth="yes"/>
      <point x="360" y="650"/>
      <point x="402" y="636"/>
      <point x="430" y="611" type="curve" smooth="yes"/>
      <point x="461" y="584"/>
      <point x="476" y="558"/>
      <point x="490" y="500" type="curve"/>
      <point x="567" y="500" type="line"/>
      <point x="559" y="555"/>
      <point x="550" y="583"/>
      <point x="529" y="618" type="curve" smooth="yes"/>
      <point x="484" y="692"/>
      <point x="404" y="737"/>
      <point x="317" y="737" type="curve" smooth="yes"/>
      <point x="151" y="737"/>
      <point x="39" y="581"/>
      <point x="39" y="350" type="curve" smooth="yes"/>
      <point x="39" y="227"/>
      <point x="68" y="138"/>
      <point x="132" y="62" type="curve" smooth="yes"/>
      <point x="179" y="7"/>
      <point x="235" y="-19"/>
      <point x="308" y="-19" type="curve" smooth="yes"/>
      <point x="353" y="-19"/>
      <point x="393" y="-8"/>
      <point x="431" y="15" type="curve" smooth="yes"/>
      <point x="462" y="35"/>
      <point x="479" y="52"/>
      <point x="507" y="93" type="curve"/>
      <point x="525" y="0" type="line"/>
      <point x="577" y="0" type="line"/>
      <point x="577" y="384" type="line"/>
      <point x="319" y="384" type="line"/>
    </contour>
    <contour>
      <point x="407" y="926" type="line"/>
      <point x="392" y="867"/>
      <point x="371" y="847"/>
      <point x="322" y="847" type="curve" smooth="yes"/>
      <point x="275" y="847"/>
      <point x="249" y="869"/>
      <point x="236" y="919" type="curve" smooth="yes"/>
      <point x="234" y="926" type="line"/>
      <point x="194" y="926" type="line"/>
      <point x="204" y="832"/>
      <point x="242" y="790"/>
      <point x="317" y="790" type="curve" smooth="yes"/>
      <point x="395" y="790"/>
      <point x="434" y="832"/>
      <point x="446" y="926" type="curve"/>
    </contour>
  </outline>
</glyph>
<glyph name="gbreve" format="1">
  <advance width="456"/>
  <unicode hex="011F"/>
  <outline>
    <contour>
      <point x="409" y="523" type="line"/>
      <point x="341" y="523" type="line"/>
      <point x="341" y="446" type="line"/>
      <point x="302" y="514"/>
      <point x="268" y="538"/>
      <point x="210" y="538" type="curve" smooth="yes"/>
      <point x="104" y="538"/>
      <point x="33" y="432"/>
      <point x="33" y="274" type="curve" smooth="yes"/>
      <point x="33" y="100"/>
      <point x="107" y="-15"/>
      <point x="220" y="-15" type="curve" smooth="yes"/>
      <point x="273" y="-15"/>
      <point x="309" y="7"/>
      <point x="337" y="58" type="curve"/>
      <point x="337" y="37" type="line" smooth="yes"/>
      <point x="337" y="-27"/>
      <point x="332" y="-60"/>
      <point x="318" y="-88" type="curve" smooth="yes"/>
      <point x="299" y="-128"/>
      <point x="265" y="-147"/>
      <point x="214" y="-147" type="curve" smooth="yes"/>
      <point x="159" y="-147"/>
      <point x="131" y="-123"/>
      <point x="118" y="-64" type="curve"/>
      <point x="46" y="-64" type="line"/>
      <point x="57" y="-131"/>
      <point x="71" y="-161"/>
      <point x="105" y="-188" type="curve" smooth="yes"/>
      <point x="133" y="-209"/>
      <point x="169" y="-220"/>
      <point x="211" y="-220" type="curve" smooth="yes"/>
      <point x="286" y="-220"/>
      <point x="342" y="-191"/>
      <point x="374" y="-136" type="curve" smooth="yes"/>
      <point x="399" y="-93"/>
      <point x="409" y="-41"/>
      <point x="409" y="43" type="curve" smooth="yes"/>
    </contour>
    <contour>
      <point x="225" y="460" type="curve" smooth="yes"/>
      <point x="299" y="460"/>
      <point x="340" y="385"/>
      <point x="340" y="247" type="curve" smooth="yes"/>
      <point x="340" y="132"/>
      <point x="296" y="62"/>
      <point x="222" y="62" type="curve" smooth="yes"/>
      <point x="150" y="62"/>
      <point x="108" y="138"/>
      <point x="108" y="269" type="curve" smooth="yes"/>
      <point x="108" y="397"/>
      <point x="147" y="460"/>
    </contour>
    <contour>
      <point x="316" y="731" type="line"/>
      <point x="301" y="672"/>
      <point x="280" y="652"/>
      <point x="231" y="652" type="curve" smooth="yes"/>
      <point x="184" y="652"/>
      <point x="158" y="674"/>
      <point x="145" y="724" type="curve" smooth="yes"/>
      <point x="143" y="731" type="line"/>
      <point x="103" y="731" type="line"/>
      <point x="113" y="637"/>
      <point x="151" y="595"/>
      <point x="226" y="595" type="curve" smooth="yes"/>
      <point x="304" y="595"/>
      <point x="343" y="637"/>
      <point x="355" y="731" type="curve"/>
    </contour>
  </outline>
</glyph>
<glyph name="Gcommaaccent" format="1">
  <advance width="638"/>
  <unicode hex="0122"/>
  <outline>
    <contour>
      <point x="319" y="301" type="line"/>
      <point x="502" y="301" type="line"/>
      <point x="501" y="215"/>
      <point x="488" y="171"/>
      <point x="455" y="129" type="curve" smooth="yes"/>
      <point x="420" y="86"/>
      <point x="375" y="64"/>
      <point x="320" y="64" type="curve" smooth="yes"/>
      <point x="190" y="64"/>
      <point x="121" y="165"/>
      <point x="121" y="353" type="curve" smooth="yes"/>
      <point x="121" y="535"/>
      <point x="197" y="650"/>
      <point x="318" y="650" type="curve" smooth="yes"/>
      <point x="360" y="650"/>
      <point x="402" y="636"/>
      <point x="430" y="611" type="curve" smooth="yes"/>
      <point x="461" y="584"/>
      <point x="476" y="558"/>
      <point x="490" y="500" type="curve"/>
      <point x="567" y="500" type="line"/>
      <point x="559" y="555"/>
      <point x="550" y="583"/>
      <point x="529" y="618" type="curve" smooth="yes"/>
      <point x="484" y="692"/>
      <point x="404" y="737"/>
      <point x="317" y="737" type="curve" smooth="yes"/>
      <point x="151" y="737"/>
      <point x="39" y="581"/>
      <point x="39" y="350" type="curve" smooth="yes"/>
      <point x="39" y="227"/>
      <point x="68" y="138"/>
      <point x="132" y="62" type="curve" smooth="yes"/>
      <point x="179" y="7"/>
      <point x="235" y="-19"/>
      <point x="308" y="-19" type="curve" smooth="yes"/>
      <point x="353" y="-19"/>
      <point x="393" y="-8"/>
      <point x="431" y="15" type="curve" smooth="yes"/>
      <point x="462" y="35"/>
      <point x="479" y="52"/>
      <point x="507" y="93" type="curve"/>
      <point x="525" y="0" type="line"/>
      <point x="577" y="0" type="line"/>
      <point x="577" y="384" type="line"/>
      <point x="319" y="384" type="line"/>
    </contour>
    <contour>
      <point x="278" y="-60" type="line"/>
      <point x="278" y="-157" type="line"/>
      <point x="324" y="-157" type="line"/>
      <point x="326" y="-217"/>
      <point x="310" y="-248"/>
      <point x="279" y="-246" type="curve"/>
      <point x="279" y="-282" type="line"/>
      <point x="334" y="-282"/>
      <point x="361" y="-239"/>
      <point x="361" y="-153" type="curve" smooth="yes"/>
      <point x="361" y="-60" type="line"/>
    </contour>
  </outline>
</glyph>
<glyph name="gcommaaccent" format="1">
  <advance width="456"/>
  <unicode hex="0123"/>
  <outline>
    <contour>
      <point x="409" y="523" type="line"/>
      <point x="341" y="523" type="line"/>
      <point x="341" y="446" type="line"/>
      <point x="302" y="514"/>
      <point x="268" y="538"/>
      <point x="210" y="538" type="curve" smooth="yes"/>
      <point x="104" y="538"/>
      <point x="33" y="432"/>
      <point x="33" y="274" type="curve" smooth="yes"/>
      <point x="33" y="100"/>
      <point x="107" y="-15"/>
      <point x="220" y="-15" type="curve" smooth="yes"/>
      <point x="273" y="-15"/>
      <point x="309" y="7"/>
      <point x="337" y="58" type="curve"/>
      <point x="337" y="37" type="line" smooth="yes"/>
      <point x="337" y="-27"/>
      <point x="332" y="-60"/>
      <point x="318" y="-88" type="curve" smooth="yes"/>
      <point x="299" y="-128"/>
      <point x="265" y="-147"/>
      <point x="214" y="-147" type="curve" smooth="yes"/>
      <point x="159" y="-147"/>
      <point x="131" y="-123"/>
      <point x="118" y="-64" type="curve"/>
      <point x="46" y="-64" type="line"/>
      <point x="57" y="-131"/>
      <point x="71" y="-161"/>
      <point x="105" y="-188" type="curve" smooth="yes"/>
      <point x="133" y="-209"/>
      <point x="169" y="-220"/>
      <point x="211" y="-220" type="curve" smooth="yes"/>
      <point x="286" y="-220"/>
      <point x="342" y="-191"/>
      <point x="374" y="-136" type="curve" smooth="yes"/>
      <point x="399" y="-93"/>
      <point x="409" y="-41"/>
      <point x="409" y="43" type="curve" smooth="yes"/>
    </contour>
    <contour>
      <point x="225" y="460" type="curve" smooth="yes"/>
      <point x="299" y="460"/>
      <point x="340" y="385"/>
      <point x="340" y="247" type="curve" smooth="yes"/>
      <point x="340" y="132"/>
      <point x="296" y="62"/>
      <point x="222" y="62" type="curve" smooth="yes"/>
      <point x="150" y="62"/>
      <point x="108" y="138"/>
      <point x="108" y="269" type="curve" smooth="yes"/>
      <point x="108" y="397"/>
      <point x="147" y="460"/>
    </contour>
    <contour>
      <point x="270" y="591" type="line"/>
      <point x="270" y="688" type="line"/>
      <point x="224" y="688" type="line"/>
      <point x="222" y="748"/>
      <point x="238" y="779"/>
      <point x="269" y="777" type="curve"/>
      <point x="269" y="813" type="line"/>
      <point x="214" y="813"/>
      <point x="187" y="770"/>
      <point x="187" y="684" type="curve" smooth="yes"/>
      <point x="187" y="591" type="line"/>
    </contour>
  </outline>
</glyph>
<glyph name="hbar" format="1">
  <advance width="456"/>
  <unicode hex="0127"/>
  <outline>
    <contour>
      <point x="125" y="718" type="line"/>
      <point x="53" y="718" type="line"/>
      <point x="53" y="0" type="line"/>
      <point x="125" y="0" type="line"/>
      <point x="125" y="285" type="line" smooth="yes"/>
      <point x="125" y="396"/>
      <point x="169" y="460"/>
      <point x="247" y="460" type="curve" smooth="yes"/>
      <point x="306" y="460"/>
      <point x="331" y="425"/>
      <point x="331" y="342" type="curve" smooth="yes"/>
      <point x="331" y="0" type="line"/>
      <point x="403" y="0" type="line"/>
      <point x="403" y="356" type="line" smooth="yes"/>
      <point x="403" y="471"/>
      <point x="349" y="538"/>
      <point x="258" y="538" type="curve" smooth="yes"/>
      <point x="201" y="538"/>
      <point x="167" y="516"/>
      <point x="125" y="451" type="curve"/>
    </contour>
  </outline>
</glyph>
<glyph name="Imacron" format="1">
  <advance width="228"/>
  <unicode hex="012A"/>
  <outline>
    <contour>
      <point x="154" y="718" type="line"/>
      <point x="75" y="718" type="line"/>
      <point x="75" y="0" type="line"/>
      <point x="154" y="0" type="line"/>
    </contour>
    <contour>
      <point x="242" y="879" type="line"/>
      <point x="-15" y="879" type="line"/>
      <point x="-15" y="822" type="line"/>
      <point x="242" y="822" type="line"/>
    </contour>
  </outline>
</glyph>
<glyph name="imacron" format="1">
  <advance width="228"/>
  <unicode hex="012B"/>
  <outline>
    <contour>
      <point x="150" y="523" type="line"/>
      <point x="78" y="523" type="line"/>
      <point x="78" y="0" type="line"/>
      <point x="150" y="0" type="line"/>
    </contour>
    <contour>
      <point x="242" y="684" type="line"/>
      <point x="-15" y="684" type="line"/>
      <point x="-15" y="627" type="line"/>
      <point x="242" y="627" type="line"/>
    </contour>
  </outline>
</glyph>
<glyph name="Iogonek" format="1">
  <advance width="228"/>
  <unicode hex="012E"/>
  <outline>
    <contour>
      <point x="154" y="718" type="line"/>
      <point x="75" y="718" type="line"/>
      <point x="75" y="0" type="line"/>
      <point x="99" y="0" type="line"/>
      <point x="70" y="-13"/>
      <point x="62" y="-17"/>
      <point x="49" y="-31" type="curve" smooth="yes"/>
      <point x="24" y="-57"/>
      <point x="10" y="-95"/>
      <point x="10" y="-133" type="curve" smooth="yes"/>
      <point x="10" y="-187"/>
      <point x="49" y="-225"/>
      <point x="105" y="-225" type="curve" smooth="yes"/>
      <point x="130" y="-225"/>
      <point x="155" y="-218"/>
      <point x="185" y="-203" type="curve"/>
      <point x="171" y="-163" type="line"/>
      <point x="146" y="-175"/>
      <point x="135" y="-178"/>
      <point x="119" y="-178" type="curve" smooth="yes"/>
      <point x="87" y="-178"/>
      <point x="72" y="-161"/>
      <point x="72" y="-124" type="curve" smooth="yes"/>
      <point x="72" y="-74"/>
      <point x="89" y="-49"/>
      <point x="154" y="-4" type="curve"/>
    </contour>
  </outline>
</glyph>
<glyph name="iogonek" format="1">
  <advance width="182"/>
  <unicode hex="012F"/>
  <outline>
    <contour>
      <point x="127" y="523" type="line"/>
      <point x="55" y="523" type="line"/>
      <point x="55" y="0" type="line"/>
      <point x="72" y="0" type="line"/>
      <point x="43" y="-13"/>
      <point x="35" y="-17"/>
      <point x="22" y="-31" type="curve" smooth="yes"/>
      <point x="-3" y="-57"/>
      <point x="-17" y="-95"/>
      <point x="-17" y="-133" type="curve" smooth="yes"/>
      <point x="-17" y="-187"/>
      <point x="22" y="-225"/>
      <point x="78" y="-225" type="curve" smooth="yes"/>
      <point x="103" y="-225"/>
      <point x="128" y="-218"/>
      <point x="158" y="-203" type="curve"/>
      <point x="144" y="-163" type="line"/>
      <point x="119" y="-175"/>
      <point x="108" y="-178"/>
      <point x="92" y="-178" type="curve" smooth="yes"/>
      <point x="60" y="-178"/>
      <point x="45" y="-161"/>
      <point x="45" y="-124" type="curve" smooth="yes"/>
      <point x="45" y="-74"/>
      <point x="62" y="-49"/>
      <point x="127" y="-4" type="curve"/>
    </contour>
    <contour>
      <point x="127" y="618" type="line"/>
      <point x="127" y="718" type="line"/>
      <point x="55" y="718" type="line"/>
      <point x="55" y="618" type="line"/>
    </contour>
  </outline>
</glyph>
<glyph name="Idotaccent" format="1">
  <advance width="228"/>
  <unicode hex="0130"/>
  <outline>
    <contour>
      <point x="154" y="718" type="line"/>
      <point x="75" y="718" type="line"/>
      <point x="75" y="0" type="line"/>
      <point x="154" y="0" type="line"/>
    </contour>
    <contour>
      <point x="152" y="901" type="line"/>
      <point x="77" y="901" type="line"/>
      <point x="77" y="799" type="line"/>
      <point x="152" y="799" type="line"/>
    </contour>
  </outline>
</glyph>
<glyph name="IJ" format="1">
  <advance width="644"/>
  <unicode hex="0132"/>
  <outline>
    <contour>
      <point x="229" y="231" type="line"/>
      <point x="229" y="160" type="line" smooth="yes"/>
      <point x="229" y="51"/>
      <point x="294" y="-19"/>
      <point x="395" y="-19" type="curve" smooth="yes"/>
      <point x="504" y="-19"/>
      <point x="566" y="58"/>
      <point x="566" y="194" type="curve" smooth="yes"/>
      <point x="566" y="718" type="line"/>
      <point x="486" y="718" type="line"/>
      <point x="486" y="188" type="line" smooth="yes"/>
      <point x="486" y="105"/>
      <point x="456" y="64"/>
      <point x="394" y="64" type="curve" smooth="yes"/>
      <point x="332" y="64"/>
      <point x="304" y="101"/>
      <point x="304" y="181" type="curve" smooth="yes"/>
      <point x="304" y="231" type="line"/>
    </contour>
    <contour>
      <point x="154" y="718" type="line"/>
      <point x="75" y="718" type="line"/>
      <point x="75" y="0" type="line"/>
      <point x="154" y="0" type="line"/>
    </contour>
  </outline>
</glyph>
<glyph name="ij" format="1">
  <advance width="308"/>
  <unicode hex="0133"/>
  <outline>
    <contour>
      <point x="254" y="523" type="line"/>
      <point x="182" y="523" type="line"/>
      <point x="182" y="-67" type="line" smooth="yes"/>
      <point x="182" y="-122"/>
      <point x="174" y="-131"/>
      <point x="129" y="-131" type="curve" smooth="yes"/>
      <point x="114" y="-131" type="line"/>
      <point x="114" y="-207" type="line"/>
      <point x="126" y="-209"/>
      <point x="136" y="-210"/>
      <point x="147" y="-210" type="curve" smooth="yes"/>
      <point x="220" y="-210"/>
      <point x="254" y="-168"/>
      <point x="254" y="-77" type="curve" smooth="yes"/>
    </contour>
    <contour>
      <point x="254" y="718" type="line"/>
      <point x="182" y="718" type="line"/>
      <point x="182" y="618" type="line"/>
      <point x="254" y="618" type="line"/>
    </contour>
    <contour>
      <point x="127" y="523" type="line"/>
      <point x="55" y="523" type="line"/>
      <point x="55" y="0" type="line"/>
      <point x="127" y="0" type="line"/>
    </contour>
    <contour>
      <point x="127" y="618" type="line"/>
      <point x="127" y="718" type="line"/>
      <point x="55" y="718" type="line"/>
      <point x="55" y="618" type="line"/>
    </contour>
  </outline>
</glyph>
<glyph name="jcircumflex" format="1">
  <advance width="182"/>
  <unicode hex="0135"/>
  <outline>
    <contour>
      <point x="127" y="523" type="line"/>
      <point x="55" y="523" type="line"/>
      <point x="55" y="-67" type="line" smooth="yes"/>
      <point x="55" y="-122"/>
      <point x="47" y="-131"/>
      <point x="2" y="-131" type="curve" smooth="yes"/>
      <point x="-13" y="-131" type="line"/>
      <point x="-13" y="-207" type="line"/>
      <point x="-1" y="-209"/>
      <point x="9" y="-210"/>
      <point x="20" y="-210" type="curve" smooth="yes"/>
      <point x="93" y="-210"/>
      <point x="127" y="-168"/>
      <point x="127" y="-77" type="curve" smooth="yes"/>
    </contour>
    <contour>
      <point x="91" y="738" type="line"/>
      <point x="145" y="645" type="line"/>
      <point x="211" y="645" type="line"/>
      <point x="131" y="786" type="line"/>
      <point x="53" y="786" type="line"/>
      <point x="-27" y="645" type="line"/>
      <point x="37" y="645" type="line"/>
    </contour>
  </outline>
</glyph>
<glyph name="Kcommaaccent" format="1">
  <advance width="547"/>
  <unicode hex="0136"/>
  <outline>
    <contour>
      <point x="142" y="252" type="line"/>
      <point x="235" y="360" type="line"/>
      <point x="441" y="0" type="line"/>
      <point x="544" y="0" type="line"/>
      <point x="292" y="428" type="line"/>
      <point x="538" y="718" type="line"/>
      <point x="428" y="718" type="line"/>
      <point x="142" y="370" type="line"/>
      <point x="142" y="718" type="line"/>
      <point x="62" y="718" type="line"/>
      <point x="62" y="0" type="line"/>
      <point x="142" y="0" type="line"/>
    </contour>
    <contour>
      <point x="232" y="-60" type="line"/>
      <point x="232" y="-157" type="line"/>
      <point x="278" y="-157" type="line"/>
      <point x="280" y="-217"/>
      <point x="264" y="-248"/>
      <point x="233" y="-246" type="curve"/>
      <point x="233" y="-282" type="line"/>
      <point x="288" y="-282"/>
      <point x="315" y="-239"/>
      <point x="315" y="-153" type="curve" smooth="yes"/>
      <point x="315" y="-60" type="line"/>
    </contour>
  </outline>
</glyph>
<glyph name="kcommaaccent" format="1">
  <advance width="410"/>
  <unicode hex="0137"/>
  <outline>
    <contour>
      <point x="237" y="328" type="line"/>
      <point x="401" y="523" type="line"/>
      <point x="310" y="523" type="line"/>
      <point x="125" y="302" type="line"/>
      <point x="125" y="718" type="line"/>
      <point x="55" y="718" type="line"/>
      <point x="55" y="0" type="line"/>
      <point x="125" y="0" type="line"/>
      <point x="125" y="198" type="line"/>
      <point x="185" y="264" type="line"/>
      <point x="318" y="0" type="line"/>
      <point x="411" y="0" type="line"/>
    </contour>
    <contour>
      <point x="164" y="-60" type="line"/>
      <point x="164" y="-157" type="line"/>
      <point x="210" y="-157" type="line"/>
      <point x="212" y="-217"/>
      <point x="196" y="-248"/>
      <point x="165" y="-246" type="curve"/>
      <point x="165" y="-282" type="line"/>
      <point x="220" y="-282"/>
      <point x="247" y="-239"/>
      <point x="247" y="-153" type="curve" smooth="yes"/>
      <point x="247" y="-60" type="line"/>
    </contour>
  </outline>
</glyph>
<glyph name="Lacute" format="1">
  <advance width="456"/>
  <unicode hex="0139"/>
  <outline>
    <contour>
      <point x="142" y="718" type="line"/>
      <point x="62" y="718" type="line"/>
      <point x="62" y="0" type="line"/>
      <point x="440" y="0" type="line"/>
      <point x="440" y="87" type="line"/>
      <point x="142" y="87" type="line"/>
    </contour>
    <contour>
      <point x="254" y="903" type="line"/>
      <point x="165" y="903" type="line"/>
      <point x="92" y="762" type="line"/>
      <point x="147" y="762" type="line"/>
    </contour>
  </outline>
</glyph>
<glyph name="lacute" format="1">
  <advance width="182"/>
  <unicode hex="013A"/>
  <outline>
    <contour>
      <point x="128" y="718" type="line"/>
      <point x="56" y="718" type="line"/>
      <point x="56" y="0" type="line"/>
      <point x="128" y="0" type="line"/>
    </contour>
    <contour>
      <point x="217" y="903" type="line"/>
      <point x="128" y="903" type="line"/>
      <point x="55" y="762" type="line"/>
      <point x="110" y="762" type="line"/>
    </contour>
  </outline>
</glyph>
<glyph name="Lcommaaccent" format="1">
  <advance width="456"/>
  <unicode hex="013B"/>
  <outline>
    <contour>
      <point x="142" y="718" type="line"/>
      <point x="62" y="718" type="line"/>
      <point x="62" y="0" type="line"/>
      <point x="440" y="0" type="line"/>
      <point x="440" y="87" type="line"/>
      <point x="142" y="87" type="line"/>
    </contour>
    <contour>
      <point x="187" y="-60" type="line"/>
      <point x="187" y="-157" type="line"/>
      <point x="233" y="-157" type="line"/>
      <point x="235" y="-217"/>
      <point x="219" y="-248"/>
      <point x="188" y="-246" type="curve"/>
      <point x="188" y="-282" type="line"/>
      <point x="243" y="-282"/>
      <point x="270" y="-239"/>
      <point x="270" y="-153" type="curve" smooth="yes"/>
      <point x="270" y="-60" type="line"/>
    </contour>
  </outline>
</glyph>
<glyph name="lcommaaccent" format="1">
  <advance width="182"/>
  <unicode hex="013C"/>
  <outline>
    <contour>
      <point x="127" y="718" type="line"/>
      <point x="55" y="718" type="line"/>
      <point x="55" y="0" type="line"/>
      <point x="127" y="0" type="line"/>
    </contour>
    <contour>
      <point x="50" y="-60" type="line"/>
      <point x="50" y="-157" type="line"/>
      <point x="96" y="-157" type="line"/>
      <point x="98" y="-217"/>
      <point x="82" y="-248"/>
      <point x="51" y="-246" type="curve"/>
      <point x="51" y="-282" type="line"/>
      <point x="106" y="-282"/>
      <point x="133" y="-239"/>
      <point x="133" y="-153" type="curve" smooth="yes"/>
      <point x="133" y="-60" type="line"/>
    </contour>
  </outline>
</glyph>
